G75*
%MOIN*%
%OFA0B0*%
%FSLAX25Y25*%
%IPPOS*%
%LPD*%
%AMOC8*
5,1,8,0,0,1.08239X$1,22.5*
%
%ADD10C,0.13398*%
%ADD11OC8,0.07100*%
%ADD12C,0.07400*%
%ADD13C,0.08200*%
%ADD14C,0.05162*%
%ADD15C,0.05477*%
%ADD16C,0.04762*%
D10*
X0011000Y0011000D03*
X0163500Y0011000D03*
X0164750Y0199750D03*
X0009750Y0199750D03*
D11*
X0012250Y0174750D03*
X0012250Y0164750D03*
X0016000Y0127250D03*
X0016000Y0107250D03*
X0049750Y0146000D03*
X0052250Y0129750D03*
X0062250Y0129750D03*
X0049750Y0166000D03*
D12*
X0033500Y0142437D03*
X0033500Y0194327D03*
D13*
X0081000Y0176750D03*
X0081000Y0166750D03*
X0081000Y0156750D03*
X0081000Y0146750D03*
X0081000Y0136750D03*
X0081000Y0126750D03*
X0081000Y0116750D03*
X0081000Y0106750D03*
X0081000Y0096750D03*
X0081000Y0086750D03*
X0081000Y0076750D03*
X0081000Y0066750D03*
X0151000Y0066750D03*
X0151000Y0076750D03*
X0151000Y0086750D03*
X0151000Y0096750D03*
X0151000Y0106750D03*
X0151000Y0116750D03*
X0151000Y0126750D03*
X0151000Y0136750D03*
X0151000Y0146750D03*
X0151000Y0156750D03*
X0151000Y0166750D03*
X0151000Y0176750D03*
D14*
X0063687Y0179750D03*
X0055813Y0179750D03*
X0084189Y0029750D03*
X0092063Y0029750D03*
X0099937Y0029750D03*
X0107811Y0029750D03*
D15*
X0014874Y0040931D02*
X0010197Y0040931D01*
X0010197Y0045986D02*
X0014874Y0045986D01*
X0014874Y0050994D02*
X0010197Y0050994D01*
X0010197Y0056049D02*
X0014874Y0056049D01*
D16*
X0037181Y0094031D03*
X0037181Y0099868D03*
X0037260Y0120104D03*
M02*
