%
M48
M72
T01C0.02362
T02C0.02677
T03C0.03200
T04C0.04000
T05C0.04400
T06C0.12598
%
T01
X37181Y94031
X37181Y99868
X37260Y120104
X55813Y179750
X63687Y179750
X84189Y29750
X92063Y29750
X99937Y29750
X107811Y29750
T02
X12535Y40931
X12535Y45986
X12535Y50994
X12535Y56049
T03
X16000Y107250
X16000Y127250
X12250Y164750
X12250Y174750
X49750Y166000
X49750Y146000
X52250Y129750
X62250Y129750
T04
X81000Y126750
X81000Y116750
X81000Y106750
X81000Y96750
X81000Y86750
X81000Y76750
X81000Y66750
X81000Y136750
X81000Y146750
X81000Y156750
X81000Y166750
X81000Y176750
X151000Y176750
X151000Y166750
X151000Y156750
X151000Y146750
X151000Y136750
X151000Y126750
X151000Y116750
X151000Y106750
X151000Y96750
X151000Y86750
X151000Y76750
X151000Y66750
T05
X33500Y142437
X33500Y194327
T06
X11000Y11000
X163500Y11000
X164750Y199750
X9750Y199750
M30
