G75*
%MOIN*%
%OFA0B0*%
%FSLAX25Y25*%
%IPPOS*%
%LPD*%
%AMOC8*
5,1,8,0,0,1.08239X$1,22.5*
%
%ADD10C,0.06600*%
%ADD11R,0.05500X0.05500*%
%ADD12C,0.05500*%
%ADD13OC8,0.05200*%
%ADD14C,0.05200*%
%ADD15C,0.07050*%
%ADD16C,0.06693*%
%ADD17C,0.06000*%
%ADD18C,0.01600*%
%ADD19C,0.05000*%
%ADD20C,0.01200*%
%ADD21C,0.02400*%
%ADD22C,0.01000*%
%ADD23R,0.10000X0.10000*%
D10*
X0033500Y0013500D03*
X0073500Y0013500D03*
X0274750Y0080250D03*
X0293000Y0080250D03*
X0312500Y0080250D03*
X0329750Y0080250D03*
X0329750Y0120250D03*
X0312500Y0120250D03*
X0293000Y0120250D03*
X0274750Y0120250D03*
D11*
X0231000Y0206000D03*
D12*
X0221000Y0206000D03*
X0211000Y0206000D03*
X0201000Y0206000D03*
X0191000Y0206000D03*
X0181000Y0206000D03*
X0171000Y0206000D03*
X0161000Y0206000D03*
X0151000Y0206000D03*
X0141000Y0206000D03*
X0131000Y0206000D03*
X0121000Y0206000D03*
X0111000Y0206000D03*
X0101000Y0206000D03*
X0091000Y0206000D03*
X0081000Y0206000D03*
X0071000Y0206000D03*
X0061000Y0206000D03*
X0051000Y0206000D03*
X0041000Y0206000D03*
X0041000Y0196000D03*
X0051000Y0196000D03*
X0061000Y0196000D03*
X0071000Y0196000D03*
X0081000Y0196000D03*
X0091000Y0196000D03*
X0101000Y0196000D03*
X0111000Y0196000D03*
X0121000Y0196000D03*
X0131000Y0196000D03*
X0141000Y0196000D03*
X0151000Y0196000D03*
X0161000Y0196000D03*
X0171000Y0196000D03*
X0181000Y0196000D03*
X0191000Y0196000D03*
X0201000Y0196000D03*
X0211000Y0196000D03*
X0221000Y0196000D03*
X0231000Y0196000D03*
D13*
X0286000Y0216000D03*
X0296000Y0216000D03*
X0311000Y0216000D03*
X0321000Y0216000D03*
X0333500Y0216000D03*
X0343500Y0216000D03*
X0358500Y0216000D03*
X0368500Y0216000D03*
X0366000Y0191000D03*
X0366000Y0176000D03*
X0366000Y0161000D03*
X0366000Y0146000D03*
X0336000Y0146000D03*
X0321000Y0146000D03*
X0321000Y0161000D03*
X0336000Y0161000D03*
X0336000Y0176000D03*
X0321000Y0176000D03*
X0321000Y0191000D03*
X0336000Y0191000D03*
X0291000Y0191000D03*
X0291000Y0176000D03*
X0291000Y0161000D03*
X0291000Y0146000D03*
X0183500Y0102250D03*
X0183500Y0072250D03*
X0129750Y0071000D03*
X0129750Y0101000D03*
X0111000Y0136000D03*
X0093500Y0136000D03*
X0093500Y0166000D03*
X0111000Y0166000D03*
X0178500Y0166000D03*
X0178500Y0136000D03*
X0077250Y0102250D03*
X0077250Y0072250D03*
X0056000Y0036000D03*
X0046000Y0036000D03*
X0026000Y0036000D03*
X0026000Y0066000D03*
X0026000Y0078500D03*
X0026000Y0108500D03*
X0026000Y0136000D03*
X0026000Y0166000D03*
X0213500Y0021000D03*
X0243500Y0021000D03*
X0258500Y0021000D03*
X0288500Y0021000D03*
X0306000Y0021000D03*
X0336000Y0021000D03*
X0339750Y0033500D03*
X0369750Y0033500D03*
X0330750Y0057500D03*
X0320750Y0057500D03*
X0305750Y0057500D03*
X0295750Y0057500D03*
X0279500Y0057500D03*
X0269500Y0057500D03*
X0254000Y0057500D03*
X0244000Y0057500D03*
D14*
X0241000Y0130800D02*
X0241000Y0136000D01*
X0231000Y0136000D02*
X0231000Y0130800D01*
X0221000Y0130800D02*
X0221000Y0136000D01*
X0211000Y0136000D02*
X0211000Y0130800D01*
X0201000Y0130800D02*
X0201000Y0136000D01*
X0158500Y0136000D02*
X0158500Y0130800D01*
X0148500Y0130800D02*
X0148500Y0136000D01*
X0138500Y0136000D02*
X0138500Y0130800D01*
X0128500Y0130800D02*
X0128500Y0136000D01*
X0128500Y0166000D02*
X0128500Y0171200D01*
X0138500Y0171200D02*
X0138500Y0166000D01*
X0148500Y0166000D02*
X0148500Y0171200D01*
X0158500Y0171200D02*
X0158500Y0166000D01*
X0201000Y0166000D02*
X0201000Y0171200D01*
X0211000Y0171200D02*
X0211000Y0166000D01*
X0221000Y0166000D02*
X0221000Y0171200D01*
X0231000Y0171200D02*
X0231000Y0166000D01*
X0241000Y0166000D02*
X0241000Y0171200D01*
X0251000Y0171200D02*
X0251000Y0166000D01*
X0261000Y0166000D02*
X0261000Y0171200D01*
X0271000Y0171200D02*
X0271000Y0166000D01*
X0271000Y0136000D02*
X0271000Y0130800D01*
X0261000Y0130800D02*
X0261000Y0136000D01*
X0251000Y0136000D02*
X0251000Y0130800D01*
X0071000Y0130800D02*
X0071000Y0136000D01*
X0061000Y0136000D02*
X0061000Y0130800D01*
X0051000Y0130800D02*
X0051000Y0136000D01*
X0041000Y0136000D02*
X0041000Y0130800D01*
X0041000Y0166000D02*
X0041000Y0171200D01*
X0051000Y0171200D02*
X0051000Y0166000D01*
X0061000Y0166000D02*
X0061000Y0171200D01*
X0071000Y0171200D02*
X0071000Y0166000D01*
D15*
X0089287Y0032025D02*
X0089287Y0024975D01*
X0108972Y0024975D02*
X0108972Y0032025D01*
X0128657Y0032025D02*
X0128657Y0024975D01*
X0148343Y0024975D02*
X0148343Y0032025D01*
X0168028Y0032025D02*
X0168028Y0024975D01*
X0187713Y0024975D02*
X0187713Y0032025D01*
D16*
X0362894Y0060161D03*
X0362894Y0073941D03*
X0362894Y0087720D03*
X0362894Y0101500D03*
X0362894Y0115280D03*
X0362894Y0129059D03*
X0227339Y0233894D03*
X0213559Y0233894D03*
X0199780Y0233894D03*
X0186000Y0233894D03*
X0172220Y0233894D03*
X0158441Y0233894D03*
X0144661Y0233894D03*
X0130882Y0233894D03*
X0117102Y0233894D03*
X0103323Y0233894D03*
X0089543Y0233894D03*
X0075764Y0233894D03*
X0061984Y0233894D03*
X0048205Y0233894D03*
D17*
X0051000Y0111500D02*
X0051000Y0105500D01*
X0060000Y0105500D02*
X0060000Y0111500D01*
X0042000Y0111500D02*
X0042000Y0105500D01*
X0092000Y0105500D02*
X0092000Y0111500D01*
X0101000Y0111500D02*
X0101000Y0105500D01*
X0110000Y0105500D02*
X0110000Y0111500D01*
X0147000Y0111500D02*
X0147000Y0105500D01*
X0156000Y0105500D02*
X0156000Y0111500D01*
X0165000Y0111500D02*
X0165000Y0105500D01*
X0200750Y0105500D02*
X0200750Y0111500D01*
X0209750Y0111500D02*
X0209750Y0105500D01*
X0218750Y0105500D02*
X0218750Y0111500D01*
D18*
X0178500Y0136000D02*
X0178500Y0146000D01*
X0158500Y0156000D01*
X0158500Y0166000D01*
X0138500Y0166000D02*
X0138500Y0156000D01*
X0111000Y0144750D01*
X0111000Y0136000D01*
X0093500Y0136000D02*
X0093500Y0144750D01*
X0071000Y0156000D01*
X0071000Y0166000D01*
X0051000Y0166000D02*
X0046000Y0151000D01*
X0033500Y0151000D01*
X0026000Y0136000D01*
X0130882Y0233894D02*
X0144661Y0233894D01*
D19*
X0156000Y0108500D02*
X0156000Y0078500D01*
X0172250Y0069750D02*
X0161000Y0058500D01*
X0153500Y0058500D01*
X0148500Y0053500D01*
X0148500Y0028657D01*
X0148343Y0028500D01*
X0168028Y0028500D02*
X0168500Y0025222D01*
X0168500Y0049750D01*
X0178500Y0059750D01*
X0218500Y0059750D01*
X0226000Y0067250D01*
X0226000Y0102250D01*
X0218750Y0108250D01*
X0218750Y0108500D01*
X0209750Y0108500D02*
X0209750Y0078500D01*
X0172250Y0069750D02*
X0172250Y0102250D01*
X0166000Y0108500D01*
X0165000Y0108500D01*
X0117250Y0102250D02*
X0110000Y0107000D01*
X0110000Y0108500D01*
X0101000Y0108500D02*
X0101000Y0078500D01*
X0117250Y0064750D02*
X0126000Y0051000D01*
X0126000Y0031157D01*
X0128657Y0028500D01*
X0108972Y0028500D02*
X0108500Y0028972D01*
X0108500Y0041000D01*
X0103500Y0046000D01*
X0098500Y0046000D01*
X0083500Y0058500D01*
X0072250Y0058500D01*
X0066000Y0066000D01*
X0066000Y0103500D01*
X0061000Y0108500D01*
X0060000Y0108500D01*
X0051000Y0108500D02*
X0051000Y0078500D01*
X0051000Y0063500D01*
X0067250Y0046000D01*
X0081000Y0046000D01*
X0089287Y0038963D01*
X0089287Y0028500D01*
X0117250Y0064750D02*
X0117250Y0102250D01*
D20*
X0111000Y0166000D02*
X0111000Y0174750D01*
X0101000Y0184750D01*
X0066000Y0184750D01*
X0061000Y0191000D01*
X0061000Y0196000D01*
X0071000Y0206000D01*
X0071000Y0213500D01*
X0073500Y0216000D01*
X0078500Y0216000D01*
X0084750Y0222250D01*
X0098500Y0222250D01*
X0103500Y0227250D01*
X0103500Y0233717D01*
X0103323Y0233894D01*
X0117102Y0233894D01*
X0112250Y0223500D02*
X0128500Y0223500D01*
X0131000Y0226000D01*
X0131000Y0233776D01*
X0130882Y0233894D01*
X0112250Y0223500D02*
X0103500Y0214750D01*
X0084750Y0214750D01*
X0081000Y0211000D01*
X0081000Y0206000D01*
X0081000Y0196000D01*
X0089750Y0179750D02*
X0061000Y0179750D01*
X0051000Y0188500D01*
X0051000Y0196000D01*
X0061000Y0206000D01*
X0061000Y0216000D01*
X0066000Y0221000D01*
X0073500Y0221000D01*
X0076000Y0223500D01*
X0076000Y0233657D01*
X0075764Y0233894D01*
X0089543Y0233894D01*
X0099150Y0243500D01*
X0313500Y0243500D01*
X0333500Y0231000D01*
X0333500Y0216000D01*
X0343500Y0216000D02*
X0343500Y0206000D01*
X0348500Y0201000D01*
X0348500Y0166000D01*
X0336000Y0161000D01*
X0336000Y0146000D02*
X0353500Y0151000D01*
X0353500Y0201000D01*
X0363500Y0206000D01*
X0368500Y0216000D01*
X0358500Y0216000D02*
X0358500Y0231000D01*
X0336000Y0246000D01*
X0076591Y0246000D01*
X0061984Y0233894D01*
X0048205Y0233894D01*
X0048500Y0233598D01*
X0048500Y0222250D01*
X0051000Y0219750D01*
X0051000Y0206000D01*
X0041000Y0196000D01*
X0031000Y0196000D01*
X0026000Y0191000D01*
X0026000Y0166000D01*
X0089750Y0179750D02*
X0093500Y0176000D01*
X0093500Y0166000D01*
X0131000Y0196000D02*
X0143500Y0178500D01*
X0208500Y0178500D01*
X0211000Y0166000D01*
X0211000Y0158500D01*
X0223500Y0147250D01*
X0279750Y0147250D01*
X0281000Y0146000D01*
X0291000Y0146000D01*
X0281000Y0152250D02*
X0236000Y0152250D01*
X0231000Y0166000D01*
X0231000Y0168500D01*
X0227250Y0181000D01*
X0161000Y0181000D01*
X0151000Y0196000D01*
X0161000Y0196000D02*
X0171000Y0183500D01*
X0248500Y0183500D01*
X0251000Y0173500D01*
X0251000Y0166000D01*
X0253500Y0157250D01*
X0278500Y0157250D01*
X0286000Y0176000D01*
X0291000Y0176000D01*
X0306000Y0191000D02*
X0313500Y0183500D01*
X0328500Y0183500D01*
X0336000Y0176000D01*
X0336000Y0191000D02*
X0336000Y0193500D01*
X0326000Y0203500D01*
X0323500Y0203500D01*
X0321000Y0206000D01*
X0321000Y0216000D01*
X0296000Y0216000D02*
X0296000Y0203500D01*
X0306000Y0191000D01*
X0291000Y0191000D02*
X0282250Y0191000D01*
X0271000Y0171000D01*
X0263500Y0186000D01*
X0186000Y0186000D01*
X0181000Y0196000D01*
X0227500Y0222250D02*
X0227500Y0233732D01*
X0227339Y0233894D01*
X0227500Y0222250D02*
X0231000Y0218750D01*
X0231000Y0206000D01*
X0271000Y0171000D02*
X0271000Y0166000D01*
X0281000Y0152250D02*
X0291000Y0161000D01*
D21*
X0271000Y0136000D02*
X0271000Y0128500D01*
X0274750Y0124750D01*
X0274750Y0120250D01*
X0293000Y0120250D01*
X0312500Y0120250D01*
X0329750Y0120250D01*
X0302500Y0096250D02*
X0302500Y0077250D01*
X0309000Y0070750D01*
X0316750Y0070750D01*
X0320750Y0066750D01*
X0320750Y0057500D01*
X0305750Y0057500D02*
X0305750Y0049500D01*
X0316750Y0038500D01*
X0316750Y0030250D01*
X0326000Y0021000D01*
X0336000Y0021000D01*
X0288500Y0021000D02*
X0288500Y0033000D01*
X0279500Y0042250D01*
X0279500Y0057500D01*
X0290500Y0057500D02*
X0284250Y0068250D01*
X0284250Y0091250D01*
X0279250Y0096250D01*
X0261500Y0096250D01*
X0253000Y0104750D01*
X0253000Y0117000D01*
X0246500Y0123500D01*
X0243500Y0123500D01*
X0241000Y0126000D01*
X0241000Y0136000D01*
X0233500Y0123500D02*
X0226000Y0123500D01*
X0221000Y0128500D01*
X0221000Y0136000D01*
X0233500Y0123500D02*
X0242500Y0114500D01*
X0242500Y0092500D01*
X0261250Y0073750D01*
X0261250Y0061750D01*
X0265500Y0057500D01*
X0269500Y0057500D01*
X0254000Y0057500D02*
X0254000Y0044000D01*
X0243500Y0033500D01*
X0243500Y0021000D01*
X0244000Y0057500D02*
X0238500Y0057500D01*
X0238250Y0057750D01*
X0233250Y0062500D01*
X0233250Y0110250D01*
X0221000Y0121000D01*
X0208500Y0121000D01*
X0201000Y0128500D01*
X0201000Y0136000D01*
X0196000Y0121000D02*
X0200750Y0116250D01*
X0200750Y0108500D01*
X0196000Y0121000D02*
X0153500Y0121000D01*
X0148500Y0126000D01*
X0148500Y0136000D01*
X0141000Y0121000D02*
X0133500Y0121000D01*
X0128500Y0126000D01*
X0128500Y0136000D01*
X0141000Y0121000D02*
X0147000Y0115000D01*
X0147000Y0108500D01*
X0092000Y0108500D02*
X0092000Y0112500D01*
X0086000Y0118500D01*
X0068500Y0118500D01*
X0061000Y0126000D01*
X0061000Y0136000D01*
X0041000Y0136000D02*
X0041000Y0121000D01*
X0042000Y0120000D01*
X0042000Y0108500D01*
X0026000Y0078500D02*
X0026000Y0066000D01*
X0261000Y0112250D02*
X0268750Y0104500D01*
X0294250Y0104500D01*
X0302500Y0096250D01*
X0261000Y0112250D02*
X0261000Y0136000D01*
X0290500Y0057500D02*
X0295750Y0057500D01*
D22*
X0181000Y0196000D02*
X0186000Y0201000D01*
X0186000Y0225114D01*
X0199780Y0233894D01*
X0213559Y0233894D02*
X0191000Y0216335D01*
X0191000Y0206000D01*
X0166000Y0201000D02*
X0166000Y0218894D01*
X0186000Y0233894D01*
X0172220Y0233894D02*
X0156000Y0222673D01*
X0156000Y0201000D01*
X0151000Y0196000D01*
X0161000Y0196000D02*
X0166000Y0201000D01*
X0136000Y0201000D02*
X0136000Y0216453D01*
X0158441Y0233894D01*
X0136000Y0201000D02*
X0131000Y0196000D01*
D23*
X0156000Y0078500D03*
X0209750Y0078500D03*
X0101000Y0078500D03*
X0051000Y0078500D03*
M02*
