G75*
%MOIN*%
%OFA0B0*%
%FSLAX25Y25*%
%IPPOS*%
%LPD*%
%AMOC8*
5,1,8,0,0,1.08239X$1,22.5*
%
%ADD10C,0.13398*%
%ADD11C,0.07400*%
%ADD12R,0.06300X0.06300*%
%ADD13C,0.06300*%
%ADD14OC8,0.06000*%
%ADD15C,0.06000*%
%ADD16C,0.07850*%
%ADD17C,0.05950*%
%ADD18R,0.25800X0.25800*%
%ADD19C,0.07493*%
%ADD20C,0.03800*%
D10*
X0013500Y0013500D03*
X0013500Y0238500D03*
X0363500Y0238500D03*
X0363500Y0013500D03*
D11*
X0361000Y0063500D03*
X0331000Y0063500D03*
X0303500Y0063500D03*
X0276000Y0063500D03*
X0276000Y0103500D03*
X0303500Y0103500D03*
X0331000Y0103500D03*
X0361000Y0103500D03*
X0106000Y0018500D03*
X0066000Y0018500D03*
D12*
X0231000Y0206000D03*
D13*
X0221000Y0206000D03*
X0211000Y0206000D03*
X0201000Y0206000D03*
X0191000Y0206000D03*
X0181000Y0206000D03*
X0171000Y0206000D03*
X0161000Y0206000D03*
X0151000Y0206000D03*
X0141000Y0206000D03*
X0131000Y0206000D03*
X0121000Y0206000D03*
X0111000Y0206000D03*
X0101000Y0206000D03*
X0091000Y0206000D03*
X0081000Y0206000D03*
X0071000Y0206000D03*
X0061000Y0206000D03*
X0051000Y0206000D03*
X0041000Y0206000D03*
X0041000Y0196000D03*
X0051000Y0196000D03*
X0061000Y0196000D03*
X0071000Y0196000D03*
X0081000Y0196000D03*
X0091000Y0196000D03*
X0101000Y0196000D03*
X0111000Y0196000D03*
X0121000Y0196000D03*
X0131000Y0196000D03*
X0141000Y0196000D03*
X0151000Y0196000D03*
X0161000Y0196000D03*
X0171000Y0196000D03*
X0181000Y0196000D03*
X0191000Y0196000D03*
X0201000Y0196000D03*
X0211000Y0196000D03*
X0221000Y0196000D03*
X0231000Y0196000D03*
D14*
X0286000Y0216000D03*
X0296000Y0216000D03*
X0311000Y0216000D03*
X0321000Y0216000D03*
X0333500Y0216000D03*
X0343500Y0216000D03*
X0358500Y0216000D03*
X0368500Y0216000D03*
X0366000Y0181000D03*
X0366000Y0161000D03*
X0366000Y0143500D03*
X0366000Y0126000D03*
X0336000Y0126000D03*
X0321000Y0126000D03*
X0321000Y0143500D03*
X0336000Y0143500D03*
X0336000Y0161000D03*
X0321000Y0161000D03*
X0321000Y0181000D03*
X0336000Y0181000D03*
X0291000Y0181000D03*
X0291000Y0161000D03*
X0291000Y0143500D03*
X0291000Y0126000D03*
X0236000Y0098500D03*
X0236000Y0068500D03*
X0226000Y0051000D03*
X0196000Y0051000D03*
X0178500Y0051000D03*
X0181000Y0066000D03*
X0148500Y0051000D03*
X0111000Y0048500D03*
X0098500Y0033500D03*
X0081000Y0048500D03*
X0068500Y0033500D03*
X0048500Y0021000D03*
X0038500Y0021000D03*
X0031000Y0048500D03*
X0026000Y0063500D03*
X0061000Y0048500D03*
X0073500Y0066000D03*
X0073500Y0096000D03*
X0026000Y0093500D03*
X0026000Y0136000D03*
X0026000Y0166000D03*
X0093500Y0166000D03*
X0111000Y0166000D03*
X0111000Y0136000D03*
X0093500Y0136000D03*
X0178500Y0136000D03*
X0178500Y0166000D03*
X0181000Y0096000D03*
X0261000Y0038500D03*
X0271000Y0038500D03*
X0293500Y0038500D03*
X0303500Y0038500D03*
X0326000Y0038500D03*
X0336000Y0038500D03*
X0358500Y0038500D03*
X0368500Y0038500D03*
D15*
X0271000Y0128300D02*
X0271000Y0133500D01*
X0261000Y0133500D02*
X0261000Y0128300D01*
X0251000Y0128300D02*
X0251000Y0133500D01*
X0241000Y0133500D02*
X0241000Y0128300D01*
X0231000Y0128300D02*
X0231000Y0133500D01*
X0221000Y0133500D02*
X0221000Y0128300D01*
X0211000Y0128300D02*
X0211000Y0133500D01*
X0201000Y0133500D02*
X0201000Y0128300D01*
X0158500Y0128300D02*
X0158500Y0133500D01*
X0148500Y0133500D02*
X0148500Y0128300D01*
X0138500Y0128300D02*
X0138500Y0133500D01*
X0128500Y0133500D02*
X0128500Y0128300D01*
X0128500Y0163500D02*
X0128500Y0168700D01*
X0138500Y0168700D02*
X0138500Y0163500D01*
X0148500Y0163500D02*
X0148500Y0168700D01*
X0158500Y0168700D02*
X0158500Y0163500D01*
X0201000Y0163500D02*
X0201000Y0168700D01*
X0211000Y0168700D02*
X0211000Y0163500D01*
X0221000Y0163500D02*
X0221000Y0168700D01*
X0231000Y0168700D02*
X0231000Y0163500D01*
X0241000Y0163500D02*
X0241000Y0168700D01*
X0251000Y0168700D02*
X0251000Y0163500D01*
X0261000Y0163500D02*
X0261000Y0168700D01*
X0271000Y0168700D02*
X0271000Y0163500D01*
X0071000Y0163500D02*
X0071000Y0168700D01*
X0061000Y0168700D02*
X0061000Y0163500D01*
X0051000Y0163500D02*
X0051000Y0168700D01*
X0041000Y0168700D02*
X0041000Y0163500D01*
X0041000Y0133500D02*
X0041000Y0128300D01*
X0051000Y0128300D02*
X0051000Y0133500D01*
X0061000Y0133500D02*
X0061000Y0128300D01*
X0071000Y0128300D02*
X0071000Y0133500D01*
D16*
X0131787Y0027025D02*
X0131787Y0019975D01*
X0151472Y0019975D02*
X0151472Y0027025D01*
X0171157Y0027025D02*
X0171157Y0019975D01*
X0190843Y0019975D02*
X0190843Y0027025D01*
X0210528Y0027025D02*
X0210528Y0019975D01*
X0230213Y0019975D02*
X0230213Y0027025D01*
D17*
X0217516Y0105925D02*
X0217516Y0111075D01*
X0208500Y0111075D02*
X0208500Y0105925D01*
X0199484Y0105925D02*
X0199484Y0111075D01*
X0165016Y0111075D02*
X0165016Y0105925D01*
X0156000Y0105925D02*
X0156000Y0111075D01*
X0146984Y0111075D02*
X0146984Y0105925D01*
X0110016Y0105925D02*
X0110016Y0111075D01*
X0101000Y0111075D02*
X0101000Y0105925D01*
X0091984Y0105925D02*
X0091984Y0111075D01*
X0055016Y0111075D02*
X0055016Y0105925D01*
X0046000Y0105925D02*
X0046000Y0111075D01*
X0036984Y0111075D02*
X0036984Y0105925D01*
D18*
X0046000Y0078500D03*
X0101000Y0078500D03*
X0156000Y0078500D03*
X0208500Y0078500D03*
D19*
X0213559Y0233894D03*
X0199780Y0233894D03*
X0186000Y0233894D03*
X0172220Y0233894D03*
X0158441Y0233894D03*
X0144661Y0233894D03*
X0130882Y0233894D03*
X0117102Y0233894D03*
X0103323Y0233894D03*
X0089543Y0233894D03*
X0075764Y0233894D03*
X0061984Y0233894D03*
X0048205Y0233894D03*
X0227339Y0233894D03*
D20*
X0251000Y0058500D03*
X0238500Y0043500D03*
X0231000Y0038500D03*
X0141000Y0058500D03*
X0121000Y0058500D03*
X0076000Y0058500D03*
M02*
