%
M48
M72
T01C0.01400
T02C0.03150
T03C0.03200
T04C0.03500
T05C0.04331
T06C0.04400
T07C0.04700
T08C0.12598
%
T01
X76000Y58500
X121000Y58500
X141000Y58500
X231000Y38500
X238500Y43500
X251000Y58500
T02
X217516Y108500
X208500Y108500
X199484Y108500
X165016Y108500
X156000Y108500
X146984Y108500
X110016Y108500
X101000Y108500
X91984Y108500
X55016Y108500
X46000Y108500
X36984Y108500
T03
X26000Y93500
X26000Y63500
X31000Y48500
X61000Y48500
X68500Y33500
X48500Y21000
X38500Y21000
X81000Y48500
X98500Y33500
X111000Y48500
X148500Y51000
X178500Y51000
X196000Y51000
X181000Y66000
X181000Y96000
X201000Y133500
X211000Y133500
X221000Y133500
X231000Y133500
X241000Y133500
X251000Y133500
X261000Y133500
X271000Y133500
X291000Y126000
X291000Y143500
X291000Y161000
X271000Y163500
X261000Y163500
X251000Y163500
X241000Y163500
X231000Y163500
X221000Y163500
X211000Y163500
X201000Y163500
X178500Y166000
X158500Y163500
X148500Y163500
X138500Y163500
X128500Y163500
X111000Y166000
X93500Y166000
X71000Y163500
X61000Y163500
X51000Y163500
X41000Y163500
X26000Y166000
X26000Y136000
X41000Y133500
X51000Y133500
X61000Y133500
X71000Y133500
X93500Y136000
X111000Y136000
X128500Y133500
X138500Y133500
X148500Y133500
X158500Y133500
X178500Y136000
X236000Y98500
X236000Y68500
X226000Y51000
X261000Y38500
X271000Y38500
X293500Y38500
X303500Y38500
X326000Y38500
X336000Y38500
X358500Y38500
X368500Y38500
X366000Y126000
X366000Y143500
X366000Y161000
X366000Y181000
X336000Y181000
X321000Y181000
X321000Y161000
X336000Y161000
X336000Y143500
X321000Y143500
X321000Y126000
X336000Y126000
X291000Y181000
X286000Y216000
X296000Y216000
X311000Y216000
X321000Y216000
X333500Y216000
X343500Y216000
X358500Y216000
X368500Y216000
X73500Y96000
X73500Y66000
T04
X71000Y196000
X61000Y196000
X51000Y196000
X41000Y196000
X41000Y206000
X51000Y206000
X61000Y206000
X71000Y206000
X81000Y206000
X91000Y206000
X101000Y206000
X111000Y206000
X121000Y206000
X131000Y206000
X141000Y206000
X151000Y206000
X161000Y206000
X171000Y206000
X181000Y206000
X191000Y206000
X201000Y206000
X211000Y206000
X221000Y206000
X231000Y206000
X231000Y196000
X221000Y196000
X211000Y196000
X201000Y196000
X191000Y196000
X181000Y196000
X171000Y196000
X161000Y196000
X151000Y196000
X141000Y196000
X131000Y196000
X121000Y196000
X111000Y196000
X101000Y196000
X91000Y196000
X81000Y196000
T05
X75764Y233894
X61984Y233894
X48205Y233894
X89543Y233894
X103323Y233894
X117102Y233894
X130882Y233894
X144661Y233894
X158441Y233894
X172220Y233894
X186000Y233894
X199780Y233894
X213559Y233894
X227339Y233894
T06
X276000Y103500
X303500Y103500
X331000Y103500
X361000Y103500
X361000Y63500
X331000Y63500
X303500Y63500
X276000Y63500
X106000Y18500
X66000Y18500
T07
X131787Y23500
X151472Y23500
X171157Y23500
X190843Y23500
X210528Y23500
X230213Y23500
T08
X13500Y13500
X13500Y238500
X363500Y238500
X363500Y13500
M30
