G75*
%MOIN*%
%OFA0B0*%
%FSLAX25Y25*%
%IPPOS*%
%LPD*%
%AMOC8*
5,1,8,0,0,1.08239X$1,22.5*
%
%ADD10C,0.13398*%
%ADD11C,0.07400*%
%ADD12R,0.06300X0.06300*%
%ADD13C,0.06300*%
%ADD14OC8,0.06000*%
%ADD15C,0.06000*%
%ADD16C,0.07850*%
%ADD17C,0.07493*%
%ADD18C,0.06800*%
%ADD19R,0.10800X0.10800*%
D10*
X0013500Y0013500D03*
X0013500Y0238500D03*
X0368500Y0238500D03*
X0368500Y0013500D03*
D11*
X0329750Y0080250D03*
X0312500Y0080250D03*
X0293000Y0080250D03*
X0274750Y0080250D03*
X0274750Y0120250D03*
X0293000Y0120250D03*
X0312500Y0120250D03*
X0329750Y0120250D03*
X0073500Y0013500D03*
X0033500Y0013500D03*
D12*
X0231000Y0206000D03*
D13*
X0221000Y0206000D03*
X0211000Y0206000D03*
X0201000Y0206000D03*
X0191000Y0206000D03*
X0181000Y0206000D03*
X0171000Y0206000D03*
X0161000Y0206000D03*
X0151000Y0206000D03*
X0141000Y0206000D03*
X0131000Y0206000D03*
X0121000Y0206000D03*
X0111000Y0206000D03*
X0101000Y0206000D03*
X0091000Y0206000D03*
X0081000Y0206000D03*
X0071000Y0206000D03*
X0061000Y0206000D03*
X0051000Y0206000D03*
X0041000Y0206000D03*
X0041000Y0196000D03*
X0051000Y0196000D03*
X0061000Y0196000D03*
X0071000Y0196000D03*
X0081000Y0196000D03*
X0091000Y0196000D03*
X0101000Y0196000D03*
X0111000Y0196000D03*
X0121000Y0196000D03*
X0131000Y0196000D03*
X0141000Y0196000D03*
X0151000Y0196000D03*
X0161000Y0196000D03*
X0171000Y0196000D03*
X0181000Y0196000D03*
X0191000Y0196000D03*
X0201000Y0196000D03*
X0211000Y0196000D03*
X0221000Y0196000D03*
X0231000Y0196000D03*
D14*
X0286000Y0216000D03*
X0296000Y0216000D03*
X0311000Y0216000D03*
X0321000Y0216000D03*
X0333500Y0216000D03*
X0343500Y0216000D03*
X0358500Y0216000D03*
X0368500Y0216000D03*
X0366000Y0191000D03*
X0366000Y0176000D03*
X0366000Y0161000D03*
X0366000Y0146000D03*
X0336000Y0146000D03*
X0321000Y0146000D03*
X0321000Y0161000D03*
X0336000Y0161000D03*
X0336000Y0176000D03*
X0321000Y0176000D03*
X0321000Y0191000D03*
X0336000Y0191000D03*
X0291000Y0191000D03*
X0291000Y0176000D03*
X0291000Y0161000D03*
X0291000Y0146000D03*
X0183500Y0102250D03*
X0183500Y0072250D03*
X0129750Y0071000D03*
X0129750Y0101000D03*
X0111000Y0136000D03*
X0093500Y0136000D03*
X0093500Y0166000D03*
X0111000Y0166000D03*
X0178500Y0166000D03*
X0178500Y0136000D03*
X0077250Y0102250D03*
X0077250Y0072250D03*
X0056000Y0036000D03*
X0046000Y0036000D03*
X0026000Y0036000D03*
X0026000Y0066000D03*
X0026000Y0078500D03*
X0026000Y0108500D03*
X0026000Y0136000D03*
X0026000Y0166000D03*
X0213500Y0021000D03*
X0243500Y0021000D03*
X0258500Y0021000D03*
X0288500Y0021000D03*
X0306000Y0021000D03*
X0336000Y0021000D03*
X0339750Y0033500D03*
X0369750Y0033500D03*
X0330750Y0057500D03*
X0320750Y0057500D03*
X0305750Y0057500D03*
X0295750Y0057500D03*
X0279500Y0057500D03*
X0269500Y0057500D03*
X0254000Y0057500D03*
X0244000Y0057500D03*
D15*
X0241000Y0130800D02*
X0241000Y0136000D01*
X0231000Y0136000D02*
X0231000Y0130800D01*
X0221000Y0130800D02*
X0221000Y0136000D01*
X0211000Y0136000D02*
X0211000Y0130800D01*
X0201000Y0130800D02*
X0201000Y0136000D01*
X0158500Y0136000D02*
X0158500Y0130800D01*
X0148500Y0130800D02*
X0148500Y0136000D01*
X0138500Y0136000D02*
X0138500Y0130800D01*
X0128500Y0130800D02*
X0128500Y0136000D01*
X0128500Y0166000D02*
X0128500Y0171200D01*
X0138500Y0171200D02*
X0138500Y0166000D01*
X0148500Y0166000D02*
X0148500Y0171200D01*
X0158500Y0171200D02*
X0158500Y0166000D01*
X0201000Y0166000D02*
X0201000Y0171200D01*
X0211000Y0171200D02*
X0211000Y0166000D01*
X0221000Y0166000D02*
X0221000Y0171200D01*
X0231000Y0171200D02*
X0231000Y0166000D01*
X0241000Y0166000D02*
X0241000Y0171200D01*
X0251000Y0171200D02*
X0251000Y0166000D01*
X0261000Y0166000D02*
X0261000Y0171200D01*
X0271000Y0171200D02*
X0271000Y0166000D01*
X0271000Y0136000D02*
X0271000Y0130800D01*
X0261000Y0130800D02*
X0261000Y0136000D01*
X0251000Y0136000D02*
X0251000Y0130800D01*
X0071000Y0130800D02*
X0071000Y0136000D01*
X0061000Y0136000D02*
X0061000Y0130800D01*
X0051000Y0130800D02*
X0051000Y0136000D01*
X0041000Y0136000D02*
X0041000Y0130800D01*
X0041000Y0166000D02*
X0041000Y0171200D01*
X0051000Y0171200D02*
X0051000Y0166000D01*
X0061000Y0166000D02*
X0061000Y0171200D01*
X0071000Y0171200D02*
X0071000Y0166000D01*
D16*
X0089287Y0032025D02*
X0089287Y0024975D01*
X0108972Y0024975D02*
X0108972Y0032025D01*
X0128657Y0032025D02*
X0128657Y0024975D01*
X0148343Y0024975D02*
X0148343Y0032025D01*
X0168028Y0032025D02*
X0168028Y0024975D01*
X0187713Y0024975D02*
X0187713Y0032025D01*
D17*
X0362894Y0060161D03*
X0362894Y0073941D03*
X0362894Y0087720D03*
X0362894Y0101500D03*
X0362894Y0115280D03*
X0362894Y0129059D03*
X0227339Y0233894D03*
X0213559Y0233894D03*
X0199780Y0233894D03*
X0186000Y0233894D03*
X0172220Y0233894D03*
X0158441Y0233894D03*
X0144661Y0233894D03*
X0130882Y0233894D03*
X0117102Y0233894D03*
X0103323Y0233894D03*
X0089543Y0233894D03*
X0075764Y0233894D03*
X0061984Y0233894D03*
X0048205Y0233894D03*
D18*
X0051000Y0111500D02*
X0051000Y0105500D01*
X0060000Y0105500D02*
X0060000Y0111500D01*
X0042000Y0111500D02*
X0042000Y0105500D01*
X0092000Y0105500D02*
X0092000Y0111500D01*
X0101000Y0111500D02*
X0101000Y0105500D01*
X0110000Y0105500D02*
X0110000Y0111500D01*
X0147000Y0111500D02*
X0147000Y0105500D01*
X0156000Y0105500D02*
X0156000Y0111500D01*
X0165000Y0111500D02*
X0165000Y0105500D01*
X0200750Y0105500D02*
X0200750Y0111500D01*
X0209750Y0111500D02*
X0209750Y0105500D01*
X0218750Y0105500D02*
X0218750Y0111500D01*
D19*
X0209750Y0078500D03*
X0156000Y0078500D03*
X0101000Y0078500D03*
X0051000Y0078500D03*
M02*
