%
M48
M72
T01C0.03200
T02C0.03500
T03C0.04000
T04C0.04331
T05C0.04400
T06C0.04700
T07C0.05000
T08C0.12598
%
T01
X26000Y36000
X46000Y36000
X56000Y36000
X26000Y66000
X26000Y78500
X26000Y108500
X26000Y136000
X41000Y136000
X51000Y136000
X61000Y136000
X71000Y136000
X93500Y136000
X111000Y136000
X128500Y136000
X138500Y136000
X148500Y136000
X158500Y136000
X178500Y136000
X201000Y136000
X211000Y136000
X221000Y136000
X231000Y136000
X241000Y136000
X251000Y136000
X261000Y136000
X271000Y136000
X291000Y146000
X291000Y161000
X291000Y176000
X291000Y191000
X321000Y191000
X336000Y191000
X336000Y176000
X321000Y176000
X321000Y161000
X336000Y161000
X336000Y146000
X321000Y146000
X366000Y146000
X366000Y161000
X366000Y176000
X366000Y191000
X368500Y216000
X358500Y216000
X343500Y216000
X333500Y216000
X321000Y216000
X311000Y216000
X296000Y216000
X286000Y216000
X271000Y166000
X261000Y166000
X251000Y166000
X241000Y166000
X231000Y166000
X221000Y166000
X211000Y166000
X201000Y166000
X178500Y166000
X158500Y166000
X148500Y166000
X138500Y166000
X128500Y166000
X111000Y166000
X93500Y166000
X71000Y166000
X61000Y166000
X51000Y166000
X41000Y166000
X26000Y166000
X77250Y102250
X77250Y72250
X129750Y71000
X129750Y101000
X183500Y102250
X183500Y72250
X244000Y57500
X254000Y57500
X269500Y57500
X279500Y57500
X295750Y57500
X305750Y57500
X320750Y57500
X330750Y57500
X339750Y33500
X336000Y21000
X306000Y21000
X288500Y21000
X258500Y21000
X243500Y21000
X213500Y21000
X369750Y33500
T02
X231000Y196000
X221000Y196000
X211000Y196000
X201000Y196000
X191000Y196000
X181000Y196000
X171000Y196000
X161000Y196000
X151000Y196000
X141000Y196000
X131000Y196000
X121000Y196000
X111000Y196000
X101000Y196000
X91000Y196000
X81000Y196000
X71000Y196000
X61000Y196000
X51000Y196000
X41000Y196000
X41000Y206000
X51000Y206000
X61000Y206000
X71000Y206000
X81000Y206000
X91000Y206000
X101000Y206000
X111000Y206000
X121000Y206000
X131000Y206000
X141000Y206000
X151000Y206000
X161000Y206000
X171000Y206000
X181000Y206000
X191000Y206000
X201000Y206000
X211000Y206000
X221000Y206000
X231000Y206000
T03
X218750Y108500
X209750Y108500
X200750Y108500
X165000Y108500
X156000Y108500
X147000Y108500
X110000Y108500
X101000Y108500
X92000Y108500
X60000Y108500
X51000Y108500
X42000Y108500
T04
X48205Y233894
X61984Y233894
X75764Y233894
X89543Y233894
X103323Y233894
X117102Y233894
X130882Y233894
X144661Y233894
X158441Y233894
X172220Y233894
X186000Y233894
X199780Y233894
X213559Y233894
X227339Y233894
X362894Y129059
X362894Y115280
X362894Y101500
X362894Y87720
X362894Y73941
X362894Y60161
T05
X329750Y80250
X312500Y80250
X293000Y80250
X274750Y80250
X274750Y120250
X293000Y120250
X312500Y120250
X329750Y120250
X73500Y13500
X33500Y13500
T06
X89287Y28500
X108972Y28500
X128657Y28500
X148343Y28500
X168028Y28500
X187713Y28500
T07
X209750Y78500
X156000Y78500
X101000Y78500
X51000Y78500
T08
X13500Y13500
X13500Y238500
X368500Y238500
X368500Y13500
M30
