%
M48
M72
T01C0.02756
T02C0.04000
T03C0.11024
%
T01
X29189Y33500
X37063Y33500
X44937Y33500
X52811Y33500
X34750Y54189
X34750Y62063
X34750Y69937
X34750Y77811
X30813Y158500
X38687Y158500
X41187Y219750
X33313Y219750
X25439Y219750
X36000Y235439
X36000Y243313
X36000Y251187
X36000Y259061
X49061Y219750
X179189Y219750
X187063Y219750
X194937Y219750
X202811Y219750
X192250Y236689
X192250Y244563
X192250Y252437
X192250Y260311
X194937Y347250
X187063Y347250
X37437Y348500
X29563Y348500
X183313Y158500
X191187Y158500
X189750Y75311
X189750Y67437
X189750Y59563
X189750Y51689
X193313Y34750
X201187Y34750
X209061Y34750
X185439Y34750
X336689Y33500
X344563Y33500
X352437Y33500
X360311Y33500
X347250Y50439
X347250Y58313
X347250Y66187
X347250Y74061
X347437Y158500
X339563Y158500
X337939Y219750
X345813Y219750
X353687Y219750
X361561Y219750
X346000Y236689
X346000Y244563
X346000Y252437
X346000Y260311
X348687Y348500
X340813Y348500
T02
X351000Y330500
X351000Y320500
X351000Y310500
X373500Y305500
X373500Y315500
X373500Y325500
X373500Y335500
X373500Y345500
X373500Y355500
X443500Y355500
X443500Y345500
X443500Y335500
X443500Y325500
X443500Y315500
X443500Y305500
X443500Y295500
X443500Y285500
X443500Y275500
X443500Y265500
X443500Y255500
X443500Y245500
X373500Y245500
X373500Y255500
X373500Y265500
X373500Y275500
X373500Y285500
X373500Y295500
X286000Y294250
X286000Y304250
X286000Y314250
X286000Y324250
X286000Y334250
X286000Y344250
X286000Y354250
X216000Y354250
X216000Y344250
X216000Y334250
X216000Y324250
X216000Y314250
X216000Y304250
X216000Y294250
X216000Y284250
X216000Y274250
X216000Y264250
X216000Y254250
X216000Y244250
X286000Y244250
X286000Y254250
X286000Y264250
X286000Y274250
X286000Y284250
X196000Y309250
X196000Y319250
X196000Y329250
X132250Y325500
X132250Y335500
X132250Y345500
X132250Y355500
X132250Y315500
X132250Y305500
X132250Y295500
X132250Y285500
X132250Y275500
X132250Y265500
X132250Y255500
X132250Y245500
X62250Y245500
X62250Y255500
X62250Y265500
X62250Y275500
X62250Y285500
X62250Y295500
X62250Y305500
X62250Y315500
X62250Y325500
X62250Y335500
X62250Y345500
X62250Y355500
X41000Y329250
X41000Y319250
X41000Y309250
X63500Y165500
X63500Y155500
X63500Y145500
X63500Y135500
X63500Y125500
X63500Y115500
X63500Y105500
X63500Y95500
X63500Y85500
X63500Y75500
X63500Y65500
X63500Y55500
X133500Y55500
X133500Y65500
X133500Y75500
X133500Y85500
X133500Y95500
X133500Y105500
X133500Y115500
X133500Y125500
X133500Y135500
X133500Y145500
X133500Y155500
X133500Y165500
X197250Y140500
X197250Y130500
X197250Y120500
X221000Y115500
X221000Y125500
X221000Y135500
X221000Y145500
X221000Y155500
X221000Y165500
X291000Y165500
X291000Y155500
X291000Y145500
X291000Y135500
X291000Y125500
X291000Y115500
X291000Y105500
X291000Y95500
X291000Y85500
X291000Y75500
X291000Y65500
X291000Y55500
X221000Y55500
X221000Y65500
X221000Y75500
X221000Y85500
X221000Y95500
X221000Y105500
X353500Y121750
X353500Y131750
X353500Y141750
X373500Y145500
X373500Y155500
X373500Y165500
X373500Y135500
X373500Y125500
X373500Y115500
X373500Y105500
X373500Y95500
X373500Y85500
X373500Y75500
X373500Y65500
X373500Y55500
X443500Y55500
X443500Y65500
X443500Y75500
X443500Y85500
X443500Y95500
X443500Y105500
X443500Y115500
X443500Y125500
X443500Y135500
X443500Y145500
X443500Y155500
X443500Y165500
X41000Y138000
X41000Y128000
X41000Y118000
T03
X9750Y9750
X147250Y9750
X166000Y9750
X302250Y9750
X319750Y9750
X457250Y9750
X457250Y182250
X457250Y197250
X319750Y197250
X319750Y182250
X303500Y182250
X303500Y197250
X164750Y197250
X164750Y181000
X147250Y181000
X147250Y197250
X9750Y197250
X9750Y181000
X11000Y369750
X147250Y369750
X164750Y369750
X301000Y369750
X321000Y369750
X457250Y369750
M30
