G75*
%MOIN*%
%OFA0B0*%
%FSLAX25Y25*%
%IPPOS*%
%LPD*%
%AMOC8*
5,1,8,0,0,1.08239X$1,22.5*
%
%ADD10C,0.04756*%
%ADD11C,0.07400*%
%ADD12R,0.05906X0.05118*%
%ADD13C,0.01200*%
%ADD14C,0.01600*%
D10*
X0029189Y0033500D03*
X0037063Y0033500D03*
X0044937Y0033500D03*
X0052811Y0033500D03*
X0034750Y0054189D03*
X0034750Y0062063D03*
X0034750Y0069937D03*
X0034750Y0077811D03*
X0030813Y0158500D03*
X0038687Y0158500D03*
X0041187Y0219750D03*
X0033313Y0219750D03*
X0025439Y0219750D03*
X0036000Y0235439D03*
X0036000Y0243313D03*
X0036000Y0251187D03*
X0036000Y0259061D03*
X0049061Y0219750D03*
X0179189Y0219750D03*
X0187063Y0219750D03*
X0194937Y0219750D03*
X0202811Y0219750D03*
X0192250Y0236689D03*
X0192250Y0244563D03*
X0192250Y0252437D03*
X0192250Y0260311D03*
X0194937Y0347250D03*
X0187063Y0347250D03*
X0037437Y0348500D03*
X0029563Y0348500D03*
X0183313Y0158500D03*
X0191187Y0158500D03*
X0189750Y0075311D03*
X0189750Y0067437D03*
X0189750Y0059563D03*
X0189750Y0051689D03*
X0193313Y0034750D03*
X0201187Y0034750D03*
X0209061Y0034750D03*
X0185439Y0034750D03*
X0336689Y0033500D03*
X0344563Y0033500D03*
X0352437Y0033500D03*
X0360311Y0033500D03*
X0347250Y0050439D03*
X0347250Y0058313D03*
X0347250Y0066187D03*
X0347250Y0074061D03*
X0347437Y0158500D03*
X0339563Y0158500D03*
X0337939Y0219750D03*
X0345813Y0219750D03*
X0353687Y0219750D03*
X0361561Y0219750D03*
X0346000Y0236689D03*
X0346000Y0244563D03*
X0346000Y0252437D03*
X0346000Y0260311D03*
X0348687Y0348500D03*
X0340813Y0348500D03*
D11*
X0351000Y0330500D03*
X0351000Y0320500D03*
X0351000Y0310500D03*
X0373500Y0305500D03*
X0373500Y0315500D03*
X0373500Y0325500D03*
X0373500Y0335500D03*
X0373500Y0345500D03*
X0373500Y0355500D03*
X0443500Y0355500D03*
X0443500Y0345500D03*
X0443500Y0335500D03*
X0443500Y0325500D03*
X0443500Y0315500D03*
X0443500Y0305500D03*
X0443500Y0295500D03*
X0443500Y0285500D03*
X0443500Y0275500D03*
X0443500Y0265500D03*
X0443500Y0255500D03*
X0443500Y0245500D03*
X0373500Y0245500D03*
X0373500Y0255500D03*
X0373500Y0265500D03*
X0373500Y0275500D03*
X0373500Y0285500D03*
X0373500Y0295500D03*
X0286000Y0294250D03*
X0286000Y0304250D03*
X0286000Y0314250D03*
X0286000Y0324250D03*
X0286000Y0334250D03*
X0286000Y0344250D03*
X0286000Y0354250D03*
X0216000Y0354250D03*
X0216000Y0344250D03*
X0216000Y0334250D03*
X0216000Y0324250D03*
X0216000Y0314250D03*
X0216000Y0304250D03*
X0216000Y0294250D03*
X0216000Y0284250D03*
X0216000Y0274250D03*
X0216000Y0264250D03*
X0216000Y0254250D03*
X0216000Y0244250D03*
X0286000Y0244250D03*
X0286000Y0254250D03*
X0286000Y0264250D03*
X0286000Y0274250D03*
X0286000Y0284250D03*
X0196000Y0309250D03*
X0196000Y0319250D03*
X0196000Y0329250D03*
X0132250Y0325500D03*
X0132250Y0335500D03*
X0132250Y0345500D03*
X0132250Y0355500D03*
X0132250Y0315500D03*
X0132250Y0305500D03*
X0132250Y0295500D03*
X0132250Y0285500D03*
X0132250Y0275500D03*
X0132250Y0265500D03*
X0132250Y0255500D03*
X0132250Y0245500D03*
X0062250Y0245500D03*
X0062250Y0255500D03*
X0062250Y0265500D03*
X0062250Y0275500D03*
X0062250Y0285500D03*
X0062250Y0295500D03*
X0062250Y0305500D03*
X0062250Y0315500D03*
X0062250Y0325500D03*
X0062250Y0335500D03*
X0062250Y0345500D03*
X0062250Y0355500D03*
X0041000Y0329250D03*
X0041000Y0319250D03*
X0041000Y0309250D03*
X0063500Y0165500D03*
X0063500Y0155500D03*
X0063500Y0145500D03*
X0063500Y0135500D03*
X0063500Y0125500D03*
X0063500Y0115500D03*
X0063500Y0105500D03*
X0063500Y0095500D03*
X0063500Y0085500D03*
X0063500Y0075500D03*
X0063500Y0065500D03*
X0063500Y0055500D03*
X0133500Y0055500D03*
X0133500Y0065500D03*
X0133500Y0075500D03*
X0133500Y0085500D03*
X0133500Y0095500D03*
X0133500Y0105500D03*
X0133500Y0115500D03*
X0133500Y0125500D03*
X0133500Y0135500D03*
X0133500Y0145500D03*
X0133500Y0155500D03*
X0133500Y0165500D03*
X0197250Y0140500D03*
X0197250Y0130500D03*
X0197250Y0120500D03*
X0221000Y0115500D03*
X0221000Y0125500D03*
X0221000Y0135500D03*
X0221000Y0145500D03*
X0221000Y0155500D03*
X0221000Y0165500D03*
X0291000Y0165500D03*
X0291000Y0155500D03*
X0291000Y0145500D03*
X0291000Y0135500D03*
X0291000Y0125500D03*
X0291000Y0115500D03*
X0291000Y0105500D03*
X0291000Y0095500D03*
X0291000Y0085500D03*
X0291000Y0075500D03*
X0291000Y0065500D03*
X0291000Y0055500D03*
X0221000Y0055500D03*
X0221000Y0065500D03*
X0221000Y0075500D03*
X0221000Y0085500D03*
X0221000Y0095500D03*
X0221000Y0105500D03*
X0353500Y0121750D03*
X0353500Y0131750D03*
X0353500Y0141750D03*
X0373500Y0145500D03*
X0373500Y0155500D03*
X0373500Y0165500D03*
X0373500Y0135500D03*
X0373500Y0125500D03*
X0373500Y0115500D03*
X0373500Y0105500D03*
X0373500Y0095500D03*
X0373500Y0085500D03*
X0373500Y0075500D03*
X0373500Y0065500D03*
X0373500Y0055500D03*
X0443500Y0055500D03*
X0443500Y0065500D03*
X0443500Y0075500D03*
X0443500Y0085500D03*
X0443500Y0095500D03*
X0443500Y0105500D03*
X0443500Y0115500D03*
X0443500Y0125500D03*
X0443500Y0135500D03*
X0443500Y0145500D03*
X0443500Y0155500D03*
X0443500Y0165500D03*
X0041000Y0138000D03*
X0041000Y0128000D03*
X0041000Y0118000D03*
D12*
X0039750Y0100990D03*
X0039750Y0093510D03*
X0027250Y0093510D03*
X0027250Y0100990D03*
X0013500Y0100990D03*
X0013500Y0093510D03*
X0171000Y0094760D03*
X0171000Y0102240D03*
X0186000Y0102240D03*
X0186000Y0094760D03*
X0199750Y0094760D03*
X0199750Y0102240D03*
X0324750Y0102240D03*
X0324750Y0094760D03*
X0338500Y0094760D03*
X0338500Y0102240D03*
X0354750Y0102240D03*
X0354750Y0094760D03*
X0351000Y0279760D03*
X0351000Y0287240D03*
X0338500Y0287240D03*
X0338500Y0279760D03*
X0324750Y0279760D03*
X0324750Y0287240D03*
X0196000Y0287240D03*
X0196000Y0279760D03*
X0182250Y0279760D03*
X0182250Y0287240D03*
X0167250Y0287240D03*
X0167250Y0279760D03*
X0041000Y0281010D03*
X0041000Y0288490D03*
X0027250Y0288490D03*
X0027250Y0281010D03*
X0013500Y0281010D03*
X0013500Y0288490D03*
D13*
X0029750Y0032939D02*
X0029750Y0018500D01*
X0033500Y0014750D01*
X0134750Y0014750D01*
X0146000Y0026000D01*
X0146000Y0063500D01*
X0141000Y0068500D01*
X0141000Y0161000D01*
X0136500Y0165500D01*
X0133500Y0165500D01*
X0134750Y0204750D02*
X0029750Y0204750D01*
X0024750Y0209750D01*
X0024750Y0215311D01*
X0025439Y0219750D01*
X0041187Y0219750D02*
X0041000Y0215813D01*
X0041000Y0211000D01*
X0044750Y0207250D01*
X0133500Y0207250D01*
X0141000Y0214750D01*
X0141000Y0252250D01*
X0137750Y0255500D01*
X0132250Y0255500D01*
X0141000Y0257250D02*
X0143500Y0254750D01*
X0143500Y0213500D01*
X0134750Y0204750D01*
X0132250Y0209750D02*
X0052250Y0209750D01*
X0049750Y0212250D01*
X0049750Y0215311D01*
X0049061Y0219750D01*
X0046000Y0236000D02*
X0036561Y0236000D01*
X0036000Y0235439D01*
X0036000Y0243313D02*
X0036187Y0243500D01*
X0042250Y0243500D01*
X0047250Y0248500D01*
X0047250Y0267250D01*
X0044750Y0269750D01*
X0032250Y0269750D01*
X0027250Y0274750D01*
X0027250Y0281010D01*
X0027250Y0288490D02*
X0027250Y0293500D01*
X0031000Y0297250D01*
X0054750Y0297250D01*
X0056000Y0296000D01*
X0061750Y0296000D01*
X0062250Y0295500D01*
X0053500Y0304750D02*
X0053500Y0313500D01*
X0056000Y0316000D01*
X0061750Y0316000D01*
X0062250Y0315500D01*
X0053500Y0304750D02*
X0048500Y0299750D01*
X0017250Y0299750D01*
X0013500Y0296000D01*
X0013500Y0288490D01*
X0013500Y0281010D02*
X0013500Y0267250D01*
X0022250Y0258500D01*
X0035439Y0258500D01*
X0036000Y0259061D01*
X0043500Y0274750D02*
X0048500Y0274750D01*
X0052250Y0271000D01*
X0052250Y0242250D01*
X0046000Y0236000D01*
X0043500Y0274750D02*
X0041000Y0277250D01*
X0041000Y0281010D01*
X0041000Y0288490D02*
X0048510Y0288490D01*
X0052250Y0284750D01*
X0061500Y0284750D01*
X0062250Y0285500D01*
X0132250Y0245500D02*
X0135250Y0245500D01*
X0138500Y0242250D01*
X0138500Y0216000D01*
X0132250Y0209750D01*
X0178500Y0219061D02*
X0178500Y0199750D01*
X0181000Y0197250D01*
X0288500Y0197250D01*
X0293500Y0202250D01*
X0293500Y0227250D01*
X0296000Y0229750D01*
X0296000Y0261000D01*
X0293500Y0263500D01*
X0293500Y0351000D01*
X0290250Y0354250D01*
X0286000Y0354250D01*
X0328500Y0298500D02*
X0357250Y0298500D01*
X0362250Y0303500D01*
X0362250Y0312250D01*
X0366000Y0316000D01*
X0373000Y0316000D01*
X0373500Y0315500D01*
X0373500Y0295500D02*
X0372750Y0294750D01*
X0342250Y0294750D01*
X0338500Y0291000D01*
X0338500Y0287240D01*
X0338500Y0279760D02*
X0338500Y0274750D01*
X0343500Y0269750D01*
X0353500Y0269750D01*
X0358500Y0264750D01*
X0358500Y0248500D01*
X0354750Y0244750D01*
X0346187Y0244750D01*
X0346000Y0244563D01*
X0346000Y0236689D02*
X0346689Y0236000D01*
X0352250Y0236000D01*
X0361000Y0244750D01*
X0361000Y0274750D01*
X0355990Y0279760D01*
X0351000Y0279760D01*
X0351000Y0287240D02*
X0362260Y0287240D01*
X0364750Y0284750D01*
X0372750Y0284750D01*
X0373500Y0285500D01*
X0346000Y0260311D02*
X0345439Y0259750D01*
X0329750Y0259750D01*
X0324750Y0264750D01*
X0324750Y0279760D01*
X0324750Y0287240D02*
X0324750Y0293500D01*
X0328500Y0298500D01*
X0293500Y0252250D02*
X0290250Y0253500D01*
X0286000Y0254250D01*
X0293500Y0252250D02*
X0293500Y0232250D01*
X0291000Y0229750D01*
X0291000Y0204750D01*
X0286000Y0199750D01*
X0201000Y0199750D01*
X0196000Y0204750D01*
X0196000Y0218687D01*
X0194937Y0219750D01*
X0202811Y0219750D02*
X0203500Y0219061D01*
X0203500Y0204750D01*
X0206000Y0202250D01*
X0283500Y0202250D01*
X0288500Y0207250D01*
X0288500Y0241000D01*
X0287750Y0243000D01*
X0286000Y0244250D01*
X0337250Y0219061D02*
X0337250Y0206000D01*
X0342250Y0201000D01*
X0442250Y0201000D01*
X0454750Y0213500D01*
X0454750Y0249750D01*
X0451000Y0254750D01*
X0451000Y0353500D01*
X0449000Y0355500D01*
X0443500Y0355500D01*
X0443500Y0255500D02*
X0445250Y0255500D01*
X0452250Y0248500D01*
X0452250Y0214750D01*
X0442250Y0204750D01*
X0358500Y0204750D01*
X0353500Y0209750D01*
X0353500Y0219563D01*
X0353687Y0219750D01*
X0361561Y0219750D02*
X0362250Y0219061D01*
X0362250Y0212250D01*
X0366000Y0208500D01*
X0442250Y0208500D01*
X0449750Y0216000D01*
X0449750Y0241000D01*
X0445250Y0245500D01*
X0443500Y0245500D01*
X0443500Y0165500D02*
X0446500Y0165500D01*
X0451000Y0161000D01*
X0451000Y0067250D01*
X0454750Y0063500D01*
X0454750Y0024750D01*
X0444750Y0014750D01*
X0341000Y0014750D01*
X0337250Y0018500D01*
X0337250Y0031689D01*
X0336689Y0033500D01*
X0352250Y0032063D02*
X0352250Y0019750D01*
X0354750Y0017250D01*
X0443500Y0017250D01*
X0452250Y0026000D01*
X0452250Y0062250D01*
X0449000Y0065500D01*
X0443500Y0065500D01*
X0443500Y0055500D02*
X0446500Y0055500D01*
X0449750Y0052250D01*
X0449750Y0027250D01*
X0442250Y0019750D01*
X0364750Y0019750D01*
X0361000Y0023500D01*
X0361000Y0031561D01*
X0360311Y0033500D01*
X0352437Y0033500D02*
X0352250Y0032063D01*
X0353500Y0051000D02*
X0347811Y0051000D01*
X0347250Y0050439D01*
X0353500Y0051000D02*
X0359750Y0057250D01*
X0359750Y0083500D01*
X0354750Y0088500D01*
X0354750Y0094760D01*
X0354750Y0102240D02*
X0361010Y0102240D01*
X0368500Y0094750D01*
X0372750Y0094750D01*
X0373500Y0095500D01*
X0373500Y0105500D02*
X0373000Y0106000D01*
X0366000Y0106000D01*
X0362250Y0109750D01*
X0343500Y0109750D01*
X0338500Y0104750D01*
X0338500Y0102240D01*
X0338500Y0094760D02*
X0338500Y0088500D01*
X0342250Y0084750D01*
X0352250Y0084750D01*
X0354750Y0082250D01*
X0354750Y0061000D01*
X0352250Y0058500D01*
X0347437Y0058500D01*
X0347250Y0058313D01*
X0346689Y0073500D02*
X0331000Y0073500D01*
X0324750Y0079750D01*
X0324750Y0094760D01*
X0324750Y0102240D02*
X0324750Y0107250D01*
X0329750Y0112250D01*
X0359750Y0112250D01*
X0364750Y0117250D01*
X0364750Y0122250D01*
X0368500Y0126000D01*
X0373000Y0126000D01*
X0373500Y0125500D01*
X0347250Y0074061D02*
X0346689Y0073500D01*
X0302250Y0062250D02*
X0302250Y0024750D01*
X0292250Y0014750D01*
X0188500Y0014750D01*
X0184750Y0018500D01*
X0184750Y0031561D01*
X0185439Y0034750D01*
X0201187Y0034750D02*
X0201000Y0032063D01*
X0201000Y0021000D01*
X0204750Y0017250D01*
X0291000Y0017250D01*
X0299750Y0026000D01*
X0299750Y0061000D01*
X0295250Y0065500D01*
X0291000Y0065500D01*
X0297250Y0067250D02*
X0302250Y0062250D01*
X0297250Y0067250D02*
X0297250Y0161000D01*
X0292750Y0165500D01*
X0291000Y0165500D01*
X0337250Y0219061D02*
X0337939Y0219750D01*
X0221000Y0125500D02*
X0220250Y0124750D01*
X0213500Y0124750D01*
X0211000Y0122250D01*
X0211000Y0116000D01*
X0207250Y0112250D01*
X0174750Y0112250D01*
X0171000Y0108500D01*
X0171000Y0102240D01*
X0171000Y0094760D02*
X0171000Y0081000D01*
X0177250Y0074750D01*
X0189189Y0074750D01*
X0189750Y0075311D01*
X0199750Y0083500D02*
X0199750Y0063500D01*
X0196000Y0059750D01*
X0189937Y0059750D01*
X0189750Y0059563D01*
X0189750Y0051689D02*
X0190439Y0051000D01*
X0197250Y0051000D01*
X0204750Y0058500D01*
X0204750Y0086000D01*
X0199750Y0091000D01*
X0199750Y0094760D01*
X0199750Y0102240D02*
X0206010Y0102240D01*
X0212250Y0096000D01*
X0220500Y0096000D01*
X0221000Y0095500D01*
X0221000Y0105500D02*
X0220500Y0106000D01*
X0213500Y0106000D01*
X0209750Y0109750D01*
X0188500Y0109750D01*
X0186000Y0107250D01*
X0186000Y0102240D01*
X0186000Y0094760D02*
X0186000Y0089750D01*
X0189750Y0086000D01*
X0197250Y0086000D01*
X0199750Y0083500D01*
X0209061Y0034750D02*
X0208500Y0031689D01*
X0208500Y0023500D01*
X0211000Y0021000D01*
X0291000Y0021000D01*
X0297250Y0027250D01*
X0297250Y0053500D01*
X0295250Y0055500D01*
X0291000Y0055500D01*
X0143500Y0062250D02*
X0143500Y0027250D01*
X0133500Y0017250D01*
X0049750Y0017250D01*
X0044750Y0022250D01*
X0044750Y0033313D01*
X0044937Y0033500D01*
X0052250Y0032939D02*
X0052250Y0024750D01*
X0057250Y0019750D01*
X0132250Y0019750D01*
X0141000Y0028500D01*
X0141000Y0052250D01*
X0137750Y0055500D01*
X0133500Y0055500D01*
X0140250Y0065500D02*
X0143500Y0062250D01*
X0140250Y0065500D02*
X0133500Y0065500D01*
X0063500Y0095500D02*
X0063000Y0096000D01*
X0053500Y0096000D01*
X0048510Y0100990D01*
X0039750Y0100990D01*
X0039750Y0093510D02*
X0044740Y0093510D01*
X0048500Y0089750D01*
X0048500Y0059750D01*
X0042250Y0053500D01*
X0035439Y0053500D01*
X0034750Y0054189D01*
X0035813Y0061000D02*
X0034750Y0062063D01*
X0035813Y0061000D02*
X0041000Y0061000D01*
X0044750Y0064750D01*
X0044750Y0082250D01*
X0041000Y0086000D01*
X0029750Y0086000D01*
X0027250Y0088500D01*
X0027250Y0093510D01*
X0027250Y0100990D02*
X0027250Y0103500D01*
X0031000Y0107250D01*
X0052250Y0107250D01*
X0053500Y0106000D01*
X0063000Y0106000D01*
X0063500Y0105500D01*
X0054750Y0114750D02*
X0054750Y0123500D01*
X0056000Y0124750D01*
X0062750Y0124750D01*
X0063500Y0125500D01*
X0054750Y0114750D02*
X0049750Y0109750D01*
X0019750Y0109750D01*
X0013500Y0103500D01*
X0013500Y0100990D01*
X0013500Y0093510D02*
X0013500Y0083500D01*
X0019750Y0077250D01*
X0034189Y0077250D01*
X0034750Y0077811D01*
X0029189Y0033500D02*
X0029750Y0032939D01*
X0052250Y0032939D02*
X0052811Y0033500D01*
X0178500Y0219061D02*
X0179189Y0219750D01*
X0192250Y0236689D02*
X0192939Y0237250D01*
X0198500Y0237250D01*
X0202250Y0239750D01*
X0202250Y0273500D01*
X0197250Y0278500D01*
X0196000Y0279760D01*
X0196000Y0287240D02*
X0201010Y0287240D01*
X0206000Y0286000D01*
X0208000Y0284750D01*
X0216000Y0284250D01*
X0216000Y0294250D02*
X0207750Y0294250D01*
X0206000Y0296000D01*
X0202250Y0298500D01*
X0186000Y0298500D01*
X0182250Y0294750D01*
X0182250Y0287240D01*
X0182250Y0279760D02*
X0182250Y0278500D01*
X0184750Y0272250D01*
X0194750Y0272250D01*
X0199750Y0267250D01*
X0199750Y0247250D01*
X0197250Y0244750D01*
X0194937Y0244750D01*
X0192250Y0244563D01*
X0192250Y0260311D02*
X0186689Y0261000D01*
X0171000Y0261000D01*
X0167250Y0264750D01*
X0167250Y0279760D01*
X0167250Y0287240D02*
X0167250Y0297250D01*
X0171000Y0301000D01*
X0203500Y0301000D01*
X0208500Y0308500D01*
X0214000Y0312250D01*
X0216000Y0314250D01*
X0141000Y0352250D02*
X0141000Y0257250D01*
X0141000Y0352250D02*
X0137750Y0355500D01*
X0132250Y0355500D01*
D14*
X0187063Y0347250D02*
X0187250Y0347250D01*
X0187250Y0312250D01*
X0189750Y0309750D01*
X0195500Y0309750D01*
X0196000Y0309250D01*
X0196000Y0329250D02*
X0203000Y0329250D01*
X0206000Y0332250D01*
X0206000Y0349750D01*
X0209750Y0353500D01*
X0212750Y0354750D01*
X0216000Y0354250D01*
X0340813Y0348500D02*
X0340813Y0317437D01*
X0343500Y0313500D01*
X0346750Y0309750D01*
X0351000Y0310500D01*
X0351000Y0330500D02*
X0358000Y0330500D01*
X0362250Y0334750D01*
X0362250Y0352250D01*
X0366000Y0356000D01*
X0373000Y0356000D01*
X0373500Y0355500D01*
X0373500Y0165500D02*
X0372750Y0164750D01*
X0366000Y0164750D01*
X0362250Y0161000D01*
X0362250Y0144750D01*
X0359250Y0141750D01*
X0353500Y0141750D01*
X0339563Y0126187D02*
X0344750Y0121000D01*
X0352750Y0121000D01*
X0353500Y0121750D01*
X0339563Y0126187D02*
X0339563Y0158500D01*
X0221000Y0165500D02*
X0220250Y0164750D01*
X0212250Y0164750D01*
X0208500Y0161000D01*
X0208500Y0144750D01*
X0204250Y0140500D01*
X0197250Y0140500D01*
X0183313Y0124937D02*
X0188500Y0119750D01*
X0196500Y0119750D01*
X0197250Y0120500D01*
X0183313Y0124937D02*
X0183313Y0158500D01*
X0063500Y0165500D02*
X0063000Y0166000D01*
X0056000Y0166000D01*
X0052250Y0162250D01*
X0052250Y0141000D01*
X0049250Y0138000D01*
X0041000Y0138000D01*
X0030813Y0122437D02*
X0034750Y0118500D01*
X0040500Y0118500D01*
X0041000Y0118000D01*
X0030813Y0122437D02*
X0030813Y0158500D01*
X0033500Y0308500D02*
X0040250Y0308500D01*
X0041000Y0309250D01*
X0033500Y0308500D02*
X0029563Y0312437D01*
X0029563Y0348500D01*
X0051000Y0352250D02*
X0051000Y0332250D01*
X0048000Y0329250D01*
X0041000Y0329250D01*
X0051000Y0352250D02*
X0054750Y0356000D01*
X0061750Y0356000D01*
X0062250Y0355500D01*
M02*
