G75*
%MOIN*%
%OFA0B0*%
%FSLAX25Y25*%
%IPPOS*%
%LPD*%
%AMOC8*
5,1,8,0,0,1.08239X$1,22.5*
%
%ADD10C,0.04756*%
%ADD11C,0.07400*%
%ADD12C,0.01600*%
D10*
X0029189Y0033500D03*
X0037063Y0033500D03*
X0044937Y0033500D03*
X0052811Y0033500D03*
X0034750Y0054189D03*
X0034750Y0062063D03*
X0034750Y0069937D03*
X0034750Y0077811D03*
X0030813Y0158500D03*
X0038687Y0158500D03*
X0041187Y0219750D03*
X0033313Y0219750D03*
X0025439Y0219750D03*
X0036000Y0235439D03*
X0036000Y0243313D03*
X0036000Y0251187D03*
X0036000Y0259061D03*
X0049061Y0219750D03*
X0179189Y0219750D03*
X0187063Y0219750D03*
X0194937Y0219750D03*
X0202811Y0219750D03*
X0192250Y0236689D03*
X0192250Y0244563D03*
X0192250Y0252437D03*
X0192250Y0260311D03*
X0194937Y0347250D03*
X0187063Y0347250D03*
X0037437Y0348500D03*
X0029563Y0348500D03*
X0183313Y0158500D03*
X0191187Y0158500D03*
X0189750Y0075311D03*
X0189750Y0067437D03*
X0189750Y0059563D03*
X0189750Y0051689D03*
X0193313Y0034750D03*
X0201187Y0034750D03*
X0209061Y0034750D03*
X0185439Y0034750D03*
X0336689Y0033500D03*
X0344563Y0033500D03*
X0352437Y0033500D03*
X0360311Y0033500D03*
X0347250Y0050439D03*
X0347250Y0058313D03*
X0347250Y0066187D03*
X0347250Y0074061D03*
X0347437Y0158500D03*
X0339563Y0158500D03*
X0337939Y0219750D03*
X0345813Y0219750D03*
X0353687Y0219750D03*
X0361561Y0219750D03*
X0346000Y0236689D03*
X0346000Y0244563D03*
X0346000Y0252437D03*
X0346000Y0260311D03*
X0348687Y0348500D03*
X0340813Y0348500D03*
D11*
X0351000Y0330500D03*
X0351000Y0320500D03*
X0351000Y0310500D03*
X0373500Y0305500D03*
X0373500Y0315500D03*
X0373500Y0325500D03*
X0373500Y0335500D03*
X0373500Y0345500D03*
X0373500Y0355500D03*
X0443500Y0355500D03*
X0443500Y0345500D03*
X0443500Y0335500D03*
X0443500Y0325500D03*
X0443500Y0315500D03*
X0443500Y0305500D03*
X0443500Y0295500D03*
X0443500Y0285500D03*
X0443500Y0275500D03*
X0443500Y0265500D03*
X0443500Y0255500D03*
X0443500Y0245500D03*
X0373500Y0245500D03*
X0373500Y0255500D03*
X0373500Y0265500D03*
X0373500Y0275500D03*
X0373500Y0285500D03*
X0373500Y0295500D03*
X0286000Y0294250D03*
X0286000Y0304250D03*
X0286000Y0314250D03*
X0286000Y0324250D03*
X0286000Y0334250D03*
X0286000Y0344250D03*
X0286000Y0354250D03*
X0216000Y0354250D03*
X0216000Y0344250D03*
X0216000Y0334250D03*
X0216000Y0324250D03*
X0216000Y0314250D03*
X0216000Y0304250D03*
X0216000Y0294250D03*
X0216000Y0284250D03*
X0216000Y0274250D03*
X0216000Y0264250D03*
X0216000Y0254250D03*
X0216000Y0244250D03*
X0286000Y0244250D03*
X0286000Y0254250D03*
X0286000Y0264250D03*
X0286000Y0274250D03*
X0286000Y0284250D03*
X0196000Y0309250D03*
X0196000Y0319250D03*
X0196000Y0329250D03*
X0132250Y0325500D03*
X0132250Y0335500D03*
X0132250Y0345500D03*
X0132250Y0355500D03*
X0132250Y0315500D03*
X0132250Y0305500D03*
X0132250Y0295500D03*
X0132250Y0285500D03*
X0132250Y0275500D03*
X0132250Y0265500D03*
X0132250Y0255500D03*
X0132250Y0245500D03*
X0062250Y0245500D03*
X0062250Y0255500D03*
X0062250Y0265500D03*
X0062250Y0275500D03*
X0062250Y0285500D03*
X0062250Y0295500D03*
X0062250Y0305500D03*
X0062250Y0315500D03*
X0062250Y0325500D03*
X0062250Y0335500D03*
X0062250Y0345500D03*
X0062250Y0355500D03*
X0041000Y0329250D03*
X0041000Y0319250D03*
X0041000Y0309250D03*
X0063500Y0165500D03*
X0063500Y0155500D03*
X0063500Y0145500D03*
X0063500Y0135500D03*
X0063500Y0125500D03*
X0063500Y0115500D03*
X0063500Y0105500D03*
X0063500Y0095500D03*
X0063500Y0085500D03*
X0063500Y0075500D03*
X0063500Y0065500D03*
X0063500Y0055500D03*
X0133500Y0055500D03*
X0133500Y0065500D03*
X0133500Y0075500D03*
X0133500Y0085500D03*
X0133500Y0095500D03*
X0133500Y0105500D03*
X0133500Y0115500D03*
X0133500Y0125500D03*
X0133500Y0135500D03*
X0133500Y0145500D03*
X0133500Y0155500D03*
X0133500Y0165500D03*
X0197250Y0140500D03*
X0197250Y0130500D03*
X0197250Y0120500D03*
X0221000Y0115500D03*
X0221000Y0125500D03*
X0221000Y0135500D03*
X0221000Y0145500D03*
X0221000Y0155500D03*
X0221000Y0165500D03*
X0291000Y0165500D03*
X0291000Y0155500D03*
X0291000Y0145500D03*
X0291000Y0135500D03*
X0291000Y0125500D03*
X0291000Y0115500D03*
X0291000Y0105500D03*
X0291000Y0095500D03*
X0291000Y0085500D03*
X0291000Y0075500D03*
X0291000Y0065500D03*
X0291000Y0055500D03*
X0221000Y0055500D03*
X0221000Y0065500D03*
X0221000Y0075500D03*
X0221000Y0085500D03*
X0221000Y0095500D03*
X0221000Y0105500D03*
X0353500Y0121750D03*
X0353500Y0131750D03*
X0353500Y0141750D03*
X0373500Y0145500D03*
X0373500Y0155500D03*
X0373500Y0165500D03*
X0373500Y0135500D03*
X0373500Y0125500D03*
X0373500Y0115500D03*
X0373500Y0105500D03*
X0373500Y0095500D03*
X0373500Y0085500D03*
X0373500Y0075500D03*
X0373500Y0065500D03*
X0373500Y0055500D03*
X0443500Y0055500D03*
X0443500Y0065500D03*
X0443500Y0075500D03*
X0443500Y0085500D03*
X0443500Y0095500D03*
X0443500Y0105500D03*
X0443500Y0115500D03*
X0443500Y0125500D03*
X0443500Y0135500D03*
X0443500Y0145500D03*
X0443500Y0155500D03*
X0443500Y0165500D03*
X0041000Y0138000D03*
X0041000Y0128000D03*
X0041000Y0118000D03*
D12*
X0020062Y0008392D02*
X0019367Y0005800D01*
X0058521Y0005800D01*
X0059428Y0052077D01*
X0059007Y0052498D01*
X0058200Y0054446D01*
X0058200Y0056554D01*
X0059007Y0058502D01*
X0059565Y0059060D01*
X0059620Y0061884D01*
X0059007Y0062498D01*
X0058200Y0064446D01*
X0058200Y0066554D01*
X0058999Y0068483D01*
X0038460Y0068016D01*
X0038323Y0067747D01*
X0037937Y0067215D01*
X0037472Y0066750D01*
X0036940Y0066364D01*
X0036354Y0066065D01*
X0035866Y0065907D01*
X0037003Y0065435D01*
X0038122Y0064316D01*
X0038728Y0062854D01*
X0038728Y0061272D01*
X0038122Y0059810D01*
X0037003Y0058691D01*
X0035640Y0058126D01*
X0037003Y0057561D01*
X0038122Y0056442D01*
X0038728Y0054980D01*
X0038728Y0053398D01*
X0038122Y0051936D01*
X0037003Y0050817D01*
X0035541Y0050211D01*
X0033959Y0050211D01*
X0032497Y0050817D01*
X0031378Y0051936D01*
X0030772Y0053398D01*
X0030772Y0054980D01*
X0031378Y0056442D01*
X0032497Y0057561D01*
X0033860Y0058126D01*
X0032497Y0058691D01*
X0031378Y0059810D01*
X0030772Y0061272D01*
X0030772Y0062854D01*
X0031378Y0064316D01*
X0032497Y0065435D01*
X0033634Y0065907D01*
X0033146Y0066065D01*
X0032560Y0066364D01*
X0032028Y0066750D01*
X0031563Y0067215D01*
X0031177Y0067747D01*
X0031125Y0067849D01*
X0005800Y0067274D01*
X0005800Y0019367D01*
X0008392Y0020062D01*
X0011108Y0020062D01*
X0013730Y0019359D01*
X0016082Y0018001D01*
X0018001Y0016082D01*
X0019359Y0013730D01*
X0020062Y0011108D01*
X0020062Y0008392D01*
X0020062Y0009118D02*
X0058586Y0009118D01*
X0058554Y0007520D02*
X0019828Y0007520D01*
X0019400Y0005921D02*
X0058523Y0005921D01*
X0058617Y0010717D02*
X0020062Y0010717D01*
X0019738Y0012315D02*
X0058648Y0012315D01*
X0058680Y0013914D02*
X0019253Y0013914D01*
X0018330Y0015512D02*
X0058711Y0015512D01*
X0058742Y0017111D02*
X0016972Y0017111D01*
X0014856Y0018709D02*
X0058774Y0018709D01*
X0058805Y0020308D02*
X0005800Y0020308D01*
X0005800Y0021906D02*
X0058836Y0021906D01*
X0058868Y0023505D02*
X0005800Y0023505D01*
X0005800Y0025103D02*
X0058899Y0025103D01*
X0058930Y0026702D02*
X0005800Y0026702D01*
X0005800Y0028300D02*
X0058962Y0028300D01*
X0058993Y0029899D02*
X0054512Y0029899D01*
X0055064Y0030128D02*
X0056183Y0031247D01*
X0056789Y0032709D01*
X0056789Y0034291D01*
X0056183Y0035753D01*
X0055064Y0036872D01*
X0053602Y0037478D01*
X0052020Y0037478D01*
X0050558Y0036872D01*
X0049439Y0035753D01*
X0048874Y0034390D01*
X0048309Y0035753D01*
X0047190Y0036872D01*
X0045728Y0037478D01*
X0044146Y0037478D01*
X0042684Y0036872D01*
X0041565Y0035753D01*
X0041093Y0034616D01*
X0040935Y0035104D01*
X0040636Y0035690D01*
X0040250Y0036222D01*
X0039785Y0036687D01*
X0039253Y0037073D01*
X0038667Y0037372D01*
X0038041Y0037575D01*
X0037392Y0037678D01*
X0037063Y0037678D01*
X0037063Y0033500D01*
X0037063Y0033500D01*
X0037063Y0029322D01*
X0037392Y0029322D01*
X0038041Y0029425D01*
X0038667Y0029628D01*
X0039253Y0029927D01*
X0039785Y0030313D01*
X0040250Y0030778D01*
X0040636Y0031310D01*
X0040935Y0031896D01*
X0041093Y0032384D01*
X0041565Y0031247D01*
X0042684Y0030128D01*
X0044146Y0029522D01*
X0045728Y0029522D01*
X0047190Y0030128D01*
X0048309Y0031247D01*
X0048874Y0032610D01*
X0049439Y0031247D01*
X0050558Y0030128D01*
X0052020Y0029522D01*
X0053602Y0029522D01*
X0055064Y0030128D01*
X0056287Y0031497D02*
X0059024Y0031497D01*
X0059056Y0033096D02*
X0056789Y0033096D01*
X0056622Y0034694D02*
X0059087Y0034694D01*
X0059118Y0036293D02*
X0055644Y0036293D01*
X0059150Y0037891D02*
X0005800Y0037891D01*
X0005800Y0036293D02*
X0026356Y0036293D01*
X0025817Y0035753D02*
X0025211Y0034291D01*
X0025211Y0032709D01*
X0025817Y0031247D01*
X0026936Y0030128D01*
X0028398Y0029522D01*
X0029980Y0029522D01*
X0031442Y0030128D01*
X0032561Y0031247D01*
X0033033Y0032384D01*
X0033191Y0031896D01*
X0033490Y0031310D01*
X0033876Y0030778D01*
X0034341Y0030313D01*
X0034873Y0029927D01*
X0035459Y0029628D01*
X0036085Y0029425D01*
X0036734Y0029322D01*
X0037063Y0029322D01*
X0037063Y0033500D01*
X0037063Y0033500D01*
X0037063Y0037678D01*
X0036734Y0037678D01*
X0036085Y0037575D01*
X0035459Y0037372D01*
X0034873Y0037073D01*
X0034341Y0036687D01*
X0033876Y0036222D01*
X0033490Y0035690D01*
X0033191Y0035104D01*
X0033033Y0034616D01*
X0032561Y0035753D01*
X0031442Y0036872D01*
X0029980Y0037478D01*
X0028398Y0037478D01*
X0026936Y0036872D01*
X0025817Y0035753D01*
X0025378Y0034694D02*
X0005800Y0034694D01*
X0005800Y0033096D02*
X0025211Y0033096D01*
X0025713Y0031497D02*
X0005800Y0031497D01*
X0005800Y0029899D02*
X0027488Y0029899D01*
X0030890Y0029899D02*
X0034928Y0029899D01*
X0037063Y0029899D02*
X0037063Y0029899D01*
X0037063Y0031497D02*
X0037063Y0031497D01*
X0037063Y0033096D02*
X0037063Y0033096D01*
X0037063Y0034694D02*
X0037063Y0034694D01*
X0037063Y0036293D02*
X0037063Y0036293D01*
X0040179Y0036293D02*
X0042104Y0036293D01*
X0041126Y0034694D02*
X0041068Y0034694D01*
X0040732Y0031497D02*
X0041461Y0031497D01*
X0043236Y0029899D02*
X0039198Y0029899D01*
X0033394Y0031497D02*
X0032665Y0031497D01*
X0033000Y0034694D02*
X0033058Y0034694D01*
X0033947Y0036293D02*
X0032022Y0036293D01*
X0046638Y0029899D02*
X0051110Y0029899D01*
X0049335Y0031497D02*
X0048413Y0031497D01*
X0048748Y0034694D02*
X0049000Y0034694D01*
X0049978Y0036293D02*
X0047770Y0036293D01*
X0059181Y0039490D02*
X0005800Y0039490D01*
X0005800Y0041088D02*
X0059213Y0041088D01*
X0059244Y0042687D02*
X0005800Y0042687D01*
X0005800Y0044285D02*
X0059275Y0044285D01*
X0059307Y0045884D02*
X0005800Y0045884D01*
X0005800Y0047482D02*
X0059338Y0047482D01*
X0059369Y0049081D02*
X0005800Y0049081D01*
X0005800Y0050680D02*
X0032828Y0050680D01*
X0031236Y0052278D02*
X0005800Y0052278D01*
X0005800Y0053877D02*
X0030772Y0053877D01*
X0030977Y0055475D02*
X0005800Y0055475D01*
X0005800Y0057074D02*
X0032009Y0057074D01*
X0032542Y0058672D02*
X0005800Y0058672D01*
X0005800Y0060271D02*
X0031187Y0060271D01*
X0030772Y0061869D02*
X0005800Y0061869D01*
X0005800Y0063468D02*
X0031026Y0063468D01*
X0031811Y0064750D02*
X0005800Y0064750D01*
X0005800Y0171383D01*
X0008392Y0170688D01*
X0011108Y0170688D01*
X0013730Y0171391D01*
X0016082Y0172748D01*
X0018001Y0174668D01*
X0019359Y0177020D01*
X0020062Y0179642D01*
X0020062Y0182358D01*
X0019367Y0184950D01*
X0137633Y0184950D01*
X0136938Y0182358D01*
X0136938Y0179642D01*
X0137641Y0177020D01*
X0138998Y0174668D01*
X0140918Y0172748D01*
X0143270Y0171391D01*
X0145892Y0170688D01*
X0148608Y0170688D01*
X0151200Y0171383D01*
X0151200Y0064750D01*
X0138800Y0064750D01*
X0138800Y0066554D01*
X0137993Y0068502D01*
X0136502Y0069993D01*
X0135278Y0070500D01*
X0136502Y0071007D01*
X0137993Y0072498D01*
X0138800Y0074446D01*
X0138800Y0076554D01*
X0137993Y0078502D01*
X0136502Y0079993D01*
X0135278Y0080500D01*
X0136502Y0081007D01*
X0137993Y0082498D01*
X0138800Y0084446D01*
X0138800Y0086554D01*
X0137993Y0088502D01*
X0136502Y0089993D01*
X0135278Y0090500D01*
X0136502Y0091007D01*
X0137993Y0092498D01*
X0138800Y0094446D01*
X0138800Y0096554D01*
X0137993Y0098502D01*
X0136502Y0099993D01*
X0135278Y0100500D01*
X0136502Y0101007D01*
X0137993Y0102498D01*
X0138800Y0104446D01*
X0138800Y0106554D01*
X0137993Y0108502D01*
X0136502Y0109993D01*
X0135278Y0110500D01*
X0136502Y0111007D01*
X0137993Y0112498D01*
X0138800Y0114446D01*
X0138800Y0116554D01*
X0137993Y0118502D01*
X0136502Y0119993D01*
X0135278Y0120500D01*
X0136502Y0121007D01*
X0137993Y0122498D01*
X0138800Y0124446D01*
X0138800Y0126554D01*
X0137993Y0128502D01*
X0136502Y0129993D01*
X0135556Y0130385D01*
X0135611Y0130403D01*
X0136383Y0130796D01*
X0137083Y0131305D01*
X0137695Y0131917D01*
X0138204Y0132617D01*
X0138597Y0133389D01*
X0138865Y0134212D01*
X0139000Y0135067D01*
X0139000Y0135300D01*
X0133700Y0135300D01*
X0133700Y0135700D01*
X0139000Y0135700D01*
X0139000Y0135933D01*
X0138865Y0136788D01*
X0138597Y0137611D01*
X0138204Y0138383D01*
X0137695Y0139083D01*
X0137083Y0139695D01*
X0136383Y0140204D01*
X0135611Y0140597D01*
X0135556Y0140615D01*
X0136502Y0141007D01*
X0137993Y0142498D01*
X0138800Y0144446D01*
X0138800Y0146554D01*
X0137993Y0148502D01*
X0136502Y0149993D01*
X0135278Y0150500D01*
X0136502Y0151007D01*
X0137993Y0152498D01*
X0138800Y0154446D01*
X0138800Y0156554D01*
X0137993Y0158502D01*
X0136502Y0159993D01*
X0135278Y0160500D01*
X0136502Y0161007D01*
X0137993Y0162498D01*
X0138800Y0164446D01*
X0138800Y0166554D01*
X0137993Y0168502D01*
X0136502Y0169993D01*
X0134554Y0170800D01*
X0132446Y0170800D01*
X0130498Y0169993D01*
X0129007Y0168502D01*
X0128200Y0166554D01*
X0128200Y0164446D01*
X0129007Y0162498D01*
X0130498Y0161007D01*
X0131722Y0160500D01*
X0130498Y0159993D01*
X0129007Y0158502D01*
X0128200Y0156554D01*
X0128200Y0154446D01*
X0129007Y0152498D01*
X0130498Y0151007D01*
X0131722Y0150500D01*
X0130498Y0149993D01*
X0129007Y0148502D01*
X0128200Y0146554D01*
X0128200Y0144446D01*
X0129007Y0142498D01*
X0130498Y0141007D01*
X0131444Y0140615D01*
X0131389Y0140597D01*
X0130617Y0140204D01*
X0129917Y0139695D01*
X0129305Y0139083D01*
X0128796Y0138383D01*
X0128403Y0137611D01*
X0128135Y0136788D01*
X0128000Y0135933D01*
X0128000Y0135700D01*
X0133300Y0135700D01*
X0133300Y0135300D01*
X0128000Y0135300D01*
X0128000Y0135067D01*
X0128135Y0134212D01*
X0128403Y0133389D01*
X0128796Y0132617D01*
X0129305Y0131917D01*
X0129917Y0131305D01*
X0130617Y0130796D01*
X0131389Y0130403D01*
X0131444Y0130385D01*
X0130498Y0129993D01*
X0129007Y0128502D01*
X0128200Y0126554D01*
X0128200Y0124446D01*
X0129007Y0122498D01*
X0130498Y0121007D01*
X0131722Y0120500D01*
X0130498Y0119993D01*
X0129007Y0118502D01*
X0128200Y0116554D01*
X0128200Y0114446D01*
X0129007Y0112498D01*
X0130498Y0111007D01*
X0131722Y0110500D01*
X0130498Y0109993D01*
X0129007Y0108502D01*
X0128200Y0106554D01*
X0128200Y0104446D01*
X0129007Y0102498D01*
X0130498Y0101007D01*
X0131722Y0100500D01*
X0130498Y0099993D01*
X0129007Y0098502D01*
X0128200Y0096554D01*
X0128200Y0094446D01*
X0129007Y0092498D01*
X0130498Y0091007D01*
X0131722Y0090500D01*
X0130498Y0089993D01*
X0129007Y0088502D01*
X0128200Y0086554D01*
X0128200Y0084446D01*
X0129007Y0082498D01*
X0130498Y0081007D01*
X0131722Y0080500D01*
X0130498Y0079993D01*
X0129007Y0078502D01*
X0128200Y0076554D01*
X0128200Y0074446D01*
X0129007Y0072498D01*
X0130498Y0071007D01*
X0131722Y0070500D01*
X0130498Y0069993D01*
X0129007Y0068502D01*
X0128200Y0066554D01*
X0128200Y0064750D01*
X0068800Y0064750D01*
X0068800Y0066554D01*
X0067993Y0068502D01*
X0066502Y0069993D01*
X0065278Y0070500D01*
X0066502Y0071007D01*
X0067993Y0072498D01*
X0068800Y0074446D01*
X0068800Y0076554D01*
X0067993Y0078502D01*
X0066502Y0079993D01*
X0065278Y0080500D01*
X0066502Y0081007D01*
X0067993Y0082498D01*
X0068800Y0084446D01*
X0068800Y0086554D01*
X0067993Y0088502D01*
X0066502Y0089993D01*
X0065278Y0090500D01*
X0066502Y0091007D01*
X0067993Y0092498D01*
X0068800Y0094446D01*
X0068800Y0096554D01*
X0067993Y0098502D01*
X0066502Y0099993D01*
X0065278Y0100500D01*
X0066502Y0101007D01*
X0067993Y0102498D01*
X0068800Y0104446D01*
X0068800Y0106554D01*
X0067993Y0108502D01*
X0066502Y0109993D01*
X0065278Y0110500D01*
X0066502Y0111007D01*
X0067993Y0112498D01*
X0068800Y0114446D01*
X0068800Y0116554D01*
X0067993Y0118502D01*
X0066502Y0119993D01*
X0065278Y0120500D01*
X0066502Y0121007D01*
X0067993Y0122498D01*
X0068800Y0124446D01*
X0068800Y0126554D01*
X0067993Y0128502D01*
X0066502Y0129993D01*
X0065278Y0130500D01*
X0066502Y0131007D01*
X0067993Y0132498D01*
X0068800Y0134446D01*
X0068800Y0136554D01*
X0067993Y0138502D01*
X0066502Y0139993D01*
X0065278Y0140500D01*
X0066502Y0141007D01*
X0067993Y0142498D01*
X0068800Y0144446D01*
X0068800Y0146554D01*
X0067993Y0148502D01*
X0066502Y0149993D01*
X0065556Y0150385D01*
X0065611Y0150403D01*
X0066383Y0150796D01*
X0067083Y0151305D01*
X0067695Y0151917D01*
X0068204Y0152617D01*
X0068597Y0153389D01*
X0068865Y0154212D01*
X0069000Y0155067D01*
X0069000Y0155300D01*
X0063700Y0155300D01*
X0063700Y0155700D01*
X0069000Y0155700D01*
X0069000Y0155933D01*
X0068865Y0156788D01*
X0068597Y0157611D01*
X0068204Y0158383D01*
X0067695Y0159083D01*
X0067083Y0159695D01*
X0066383Y0160204D01*
X0065611Y0160597D01*
X0065556Y0160615D01*
X0066502Y0161007D01*
X0067993Y0162498D01*
X0068800Y0164446D01*
X0068800Y0166554D01*
X0067993Y0168502D01*
X0066502Y0169993D01*
X0064554Y0170800D01*
X0062446Y0170800D01*
X0060498Y0169993D01*
X0059007Y0168502D01*
X0058200Y0166554D01*
X0058200Y0164446D01*
X0059007Y0162498D01*
X0060498Y0161007D01*
X0061444Y0160615D01*
X0061389Y0160597D01*
X0060617Y0160204D01*
X0059917Y0159695D01*
X0059305Y0159083D01*
X0058796Y0158383D01*
X0058403Y0157611D01*
X0058135Y0156788D01*
X0058000Y0155933D01*
X0058000Y0155700D01*
X0063300Y0155700D01*
X0063300Y0155300D01*
X0058000Y0155300D01*
X0058000Y0155067D01*
X0058135Y0154212D01*
X0058403Y0153389D01*
X0058796Y0152617D01*
X0059305Y0151917D01*
X0059917Y0151305D01*
X0060617Y0150796D01*
X0061389Y0150403D01*
X0061444Y0150385D01*
X0060498Y0149993D01*
X0059007Y0148502D01*
X0058200Y0146554D01*
X0058200Y0144446D01*
X0059007Y0142498D01*
X0060498Y0141007D01*
X0061722Y0140500D01*
X0060498Y0139993D01*
X0059007Y0138502D01*
X0058200Y0136554D01*
X0058200Y0134446D01*
X0059007Y0132498D01*
X0060498Y0131007D01*
X0061722Y0130500D01*
X0060498Y0129993D01*
X0059007Y0128502D01*
X0058200Y0126554D01*
X0058200Y0124446D01*
X0059007Y0122498D01*
X0060498Y0121007D01*
X0061722Y0120500D01*
X0060498Y0119993D01*
X0059007Y0118502D01*
X0058200Y0116554D01*
X0058200Y0114446D01*
X0059007Y0112498D01*
X0060498Y0111007D01*
X0061722Y0110500D01*
X0060498Y0109993D01*
X0059007Y0108502D01*
X0058200Y0106554D01*
X0058200Y0104446D01*
X0059007Y0102498D01*
X0060498Y0101007D01*
X0061722Y0100500D01*
X0060498Y0099993D01*
X0059007Y0098502D01*
X0058200Y0096554D01*
X0058200Y0094446D01*
X0059007Y0092498D01*
X0060498Y0091007D01*
X0061722Y0090500D01*
X0060498Y0089993D01*
X0059007Y0088502D01*
X0058200Y0086554D01*
X0058200Y0084446D01*
X0059007Y0082498D01*
X0060498Y0081007D01*
X0061722Y0080500D01*
X0060498Y0079993D01*
X0059007Y0078502D01*
X0058200Y0076554D01*
X0058200Y0074446D01*
X0059007Y0072498D01*
X0060498Y0071007D01*
X0061722Y0070500D01*
X0060498Y0069993D01*
X0059007Y0068502D01*
X0058200Y0066554D01*
X0058200Y0064750D01*
X0037689Y0064750D01*
X0037003Y0065435D01*
X0035866Y0065907D01*
X0036354Y0066065D01*
X0036940Y0066364D01*
X0037472Y0066750D01*
X0037937Y0067215D01*
X0038323Y0067747D01*
X0038622Y0068333D01*
X0038825Y0068959D01*
X0038928Y0069608D01*
X0038928Y0069937D01*
X0038928Y0070266D01*
X0038825Y0070915D01*
X0038622Y0071541D01*
X0038323Y0072127D01*
X0037937Y0072659D01*
X0037472Y0073124D01*
X0036940Y0073510D01*
X0036354Y0073809D01*
X0035866Y0073967D01*
X0037003Y0074439D01*
X0038122Y0075558D01*
X0038728Y0077020D01*
X0038728Y0078602D01*
X0038122Y0080064D01*
X0037003Y0081183D01*
X0035541Y0081789D01*
X0033959Y0081789D01*
X0032497Y0081183D01*
X0031378Y0080064D01*
X0030772Y0078602D01*
X0030772Y0077020D01*
X0031378Y0075558D01*
X0032497Y0074439D01*
X0033634Y0073967D01*
X0033146Y0073809D01*
X0032560Y0073510D01*
X0032028Y0073124D01*
X0031563Y0072659D01*
X0031177Y0072127D01*
X0030878Y0071541D01*
X0030675Y0070915D01*
X0030572Y0070266D01*
X0030572Y0069937D01*
X0030572Y0069608D01*
X0030675Y0068959D01*
X0030878Y0068333D01*
X0031177Y0067747D01*
X0031563Y0067215D01*
X0032028Y0066750D01*
X0032560Y0066364D01*
X0033146Y0066065D01*
X0033634Y0065907D01*
X0032497Y0065435D01*
X0031811Y0064750D01*
X0032127Y0065066D02*
X0005800Y0065066D01*
X0032127Y0065066D01*
X0032146Y0066665D02*
X0005800Y0066665D01*
X0032146Y0066665D01*
X0030914Y0068263D02*
X0005800Y0068263D01*
X0005800Y0069862D02*
X0030572Y0069862D01*
X0030572Y0069937D02*
X0034750Y0069937D01*
X0038928Y0069937D01*
X0034750Y0069937D01*
X0034750Y0069937D01*
X0034750Y0069937D01*
X0030572Y0069937D01*
X0030852Y0071460D02*
X0005800Y0071460D01*
X0005800Y0073059D02*
X0031963Y0073059D01*
X0032278Y0074657D02*
X0005800Y0074657D01*
X0005800Y0076256D02*
X0031089Y0076256D01*
X0030772Y0077854D02*
X0005800Y0077854D01*
X0005800Y0079453D02*
X0031124Y0079453D01*
X0032365Y0081051D02*
X0005800Y0081051D01*
X0005800Y0082650D02*
X0058944Y0082650D01*
X0058282Y0084248D02*
X0005800Y0084248D01*
X0005800Y0085847D02*
X0058200Y0085847D01*
X0058569Y0087445D02*
X0005800Y0087445D01*
X0005800Y0089044D02*
X0059548Y0089044D01*
X0061378Y0090642D02*
X0005800Y0090642D01*
X0005800Y0092241D02*
X0059264Y0092241D01*
X0058451Y0093839D02*
X0005800Y0093839D01*
X0005800Y0095438D02*
X0058200Y0095438D01*
X0058400Y0097036D02*
X0005800Y0097036D01*
X0005800Y0098635D02*
X0059140Y0098635D01*
X0061078Y0100233D02*
X0005800Y0100233D01*
X0005800Y0101832D02*
X0059673Y0101832D01*
X0058621Y0103430D02*
X0005800Y0103430D01*
X0005800Y0105029D02*
X0058200Y0105029D01*
X0058230Y0106627D02*
X0005800Y0106627D01*
X0005800Y0108226D02*
X0058892Y0108226D01*
X0060329Y0109824D02*
X0005800Y0109824D01*
X0005800Y0111423D02*
X0060082Y0111423D01*
X0058790Y0113021D02*
X0042830Y0113021D01*
X0042054Y0112700D02*
X0044002Y0113507D01*
X0045493Y0114998D01*
X0046300Y0116946D01*
X0046300Y0119054D01*
X0045493Y0121002D01*
X0044002Y0122493D01*
X0043056Y0122885D01*
X0043111Y0122903D01*
X0043883Y0123296D01*
X0044583Y0123805D01*
X0045195Y0124417D01*
X0045704Y0125117D01*
X0046097Y0125889D01*
X0046365Y0126712D01*
X0046500Y0127567D01*
X0046500Y0127800D01*
X0041200Y0127800D01*
X0041200Y0128200D01*
X0046500Y0128200D01*
X0046500Y0128433D01*
X0046365Y0129288D01*
X0046097Y0130111D01*
X0045704Y0130883D01*
X0045195Y0131583D01*
X0044583Y0132195D01*
X0043883Y0132704D01*
X0043111Y0133097D01*
X0043056Y0133115D01*
X0044002Y0133507D01*
X0045493Y0134998D01*
X0046300Y0136946D01*
X0046300Y0139054D01*
X0045493Y0141002D01*
X0044002Y0142493D01*
X0042054Y0143300D01*
X0039946Y0143300D01*
X0037998Y0142493D01*
X0036507Y0141002D01*
X0035700Y0139054D01*
X0035700Y0136946D01*
X0036507Y0134998D01*
X0037998Y0133507D01*
X0038944Y0133115D01*
X0038889Y0133097D01*
X0038117Y0132704D01*
X0037417Y0132195D01*
X0036805Y0131583D01*
X0036296Y0130883D01*
X0035903Y0130111D01*
X0035635Y0129288D01*
X0035500Y0128433D01*
X0035500Y0128200D01*
X0040800Y0128200D01*
X0040800Y0127800D01*
X0035500Y0127800D01*
X0035500Y0127567D01*
X0035635Y0126712D01*
X0035903Y0125889D01*
X0036296Y0125117D01*
X0036805Y0124417D01*
X0037417Y0123805D01*
X0038117Y0123296D01*
X0038889Y0122903D01*
X0038944Y0122885D01*
X0037998Y0122493D01*
X0036507Y0121002D01*
X0035700Y0119054D01*
X0035700Y0116946D01*
X0036507Y0114998D01*
X0037998Y0113507D01*
X0039946Y0112700D01*
X0042054Y0112700D01*
X0039170Y0113021D02*
X0005800Y0113021D01*
X0005800Y0114620D02*
X0036885Y0114620D01*
X0036001Y0116218D02*
X0005800Y0116218D01*
X0005800Y0117817D02*
X0035700Y0117817D01*
X0035850Y0119416D02*
X0005800Y0119416D01*
X0005800Y0121014D02*
X0036519Y0121014D01*
X0038286Y0122613D02*
X0005800Y0122613D01*
X0005800Y0124211D02*
X0037011Y0124211D01*
X0035943Y0125810D02*
X0005800Y0125810D01*
X0005800Y0127408D02*
X0035525Y0127408D01*
X0035591Y0129007D02*
X0005800Y0129007D01*
X0005800Y0130605D02*
X0036155Y0130605D01*
X0037429Y0132204D02*
X0005800Y0132204D01*
X0005800Y0133802D02*
X0037703Y0133802D01*
X0036340Y0135401D02*
X0005800Y0135401D01*
X0005800Y0136999D02*
X0035700Y0136999D01*
X0035700Y0138598D02*
X0005800Y0138598D01*
X0005800Y0140196D02*
X0036173Y0140196D01*
X0037299Y0141795D02*
X0005800Y0141795D01*
X0005800Y0143393D02*
X0058636Y0143393D01*
X0058200Y0144992D02*
X0005800Y0144992D01*
X0005800Y0146590D02*
X0058215Y0146590D01*
X0058877Y0148189D02*
X0005800Y0148189D01*
X0005800Y0149787D02*
X0060292Y0149787D01*
X0059836Y0151386D02*
X0005800Y0151386D01*
X0005800Y0152984D02*
X0058609Y0152984D01*
X0058077Y0154583D02*
X0040151Y0154583D01*
X0040291Y0154628D02*
X0040877Y0154927D01*
X0041409Y0155313D01*
X0041874Y0155778D01*
X0042260Y0156310D01*
X0042559Y0156896D01*
X0042762Y0157522D01*
X0042865Y0158171D01*
X0042865Y0158500D01*
X0042865Y0158829D01*
X0042762Y0159478D01*
X0042559Y0160104D01*
X0042260Y0160690D01*
X0041874Y0161222D01*
X0041409Y0161687D01*
X0040877Y0162073D01*
X0040291Y0162372D01*
X0039665Y0162575D01*
X0039016Y0162678D01*
X0038687Y0162678D01*
X0038358Y0162678D01*
X0037709Y0162575D01*
X0037083Y0162372D01*
X0036497Y0162073D01*
X0035965Y0161687D01*
X0035500Y0161222D01*
X0035114Y0160690D01*
X0034815Y0160104D01*
X0034657Y0159616D01*
X0034185Y0160753D01*
X0033066Y0161872D01*
X0031604Y0162478D01*
X0030022Y0162478D01*
X0028560Y0161872D01*
X0027441Y0160753D01*
X0026835Y0159291D01*
X0026835Y0157709D01*
X0027441Y0156247D01*
X0028560Y0155128D01*
X0030022Y0154522D01*
X0031604Y0154522D01*
X0033066Y0155128D01*
X0034185Y0156247D01*
X0034657Y0157384D01*
X0034815Y0156896D01*
X0035114Y0156310D01*
X0035500Y0155778D01*
X0035965Y0155313D01*
X0036497Y0154927D01*
X0037083Y0154628D01*
X0037709Y0154425D01*
X0038358Y0154322D01*
X0038687Y0154322D01*
X0039016Y0154322D01*
X0039665Y0154425D01*
X0040291Y0154628D01*
X0038687Y0154583D02*
X0038687Y0154583D01*
X0038687Y0154322D02*
X0038687Y0158500D01*
X0042865Y0158500D01*
X0038687Y0158500D01*
X0038687Y0158500D01*
X0038687Y0162678D01*
X0038687Y0158500D01*
X0038687Y0158500D01*
X0038687Y0158500D01*
X0038687Y0154322D01*
X0037223Y0154583D02*
X0031751Y0154583D01*
X0029875Y0154583D02*
X0005800Y0154583D01*
X0005800Y0156181D02*
X0027506Y0156181D01*
X0026835Y0157780D02*
X0005800Y0157780D01*
X0005800Y0159378D02*
X0026871Y0159378D01*
X0027664Y0160977D02*
X0005800Y0160977D01*
X0005800Y0162575D02*
X0037710Y0162575D01*
X0038687Y0162575D02*
X0038687Y0162575D01*
X0039664Y0162575D02*
X0058975Y0162575D01*
X0058313Y0164174D02*
X0005800Y0164174D01*
X0005800Y0165772D02*
X0058200Y0165772D01*
X0058538Y0167371D02*
X0005800Y0167371D01*
X0005800Y0168969D02*
X0059474Y0168969D01*
X0061885Y0170568D02*
X0005800Y0170568D01*
X0015073Y0172166D02*
X0141927Y0172166D01*
X0139902Y0173765D02*
X0017098Y0173765D01*
X0018403Y0175363D02*
X0138597Y0175363D01*
X0137674Y0176962D02*
X0019326Y0176962D01*
X0019772Y0178560D02*
X0137228Y0178560D01*
X0136938Y0180159D02*
X0020062Y0180159D01*
X0020062Y0181757D02*
X0136938Y0181757D01*
X0137206Y0183356D02*
X0019794Y0183356D01*
X0019702Y0194550D02*
X0020062Y0195892D01*
X0020062Y0198608D01*
X0019359Y0201230D01*
X0018001Y0203582D01*
X0016082Y0205501D01*
X0013730Y0206859D01*
X0011108Y0207562D01*
X0008392Y0207562D01*
X0005800Y0206867D01*
X0005800Y0254802D01*
X0034322Y0255450D01*
X0034884Y0255217D01*
X0034396Y0255059D01*
X0033810Y0254760D01*
X0033278Y0254374D01*
X0032813Y0253909D01*
X0032427Y0253377D01*
X0032128Y0252791D01*
X0031925Y0252165D01*
X0031822Y0251516D01*
X0031822Y0251187D01*
X0031822Y0250858D01*
X0031925Y0250209D01*
X0032128Y0249583D01*
X0032427Y0248997D01*
X0032813Y0248465D01*
X0033278Y0248000D01*
X0033810Y0247614D01*
X0034396Y0247315D01*
X0034884Y0247157D01*
X0033747Y0246685D01*
X0032628Y0245566D01*
X0032022Y0244104D01*
X0032022Y0242522D01*
X0032628Y0241060D01*
X0033747Y0239941D01*
X0035110Y0239376D01*
X0033747Y0238811D01*
X0032628Y0237692D01*
X0032022Y0236230D01*
X0032022Y0234648D01*
X0032628Y0233186D01*
X0033747Y0232067D01*
X0035209Y0231461D01*
X0036791Y0231461D01*
X0038253Y0232067D01*
X0039372Y0233186D01*
X0039978Y0234648D01*
X0039978Y0236230D01*
X0039372Y0237692D01*
X0038253Y0238811D01*
X0036890Y0239376D01*
X0038253Y0239941D01*
X0039372Y0241060D01*
X0039978Y0242522D01*
X0039978Y0244104D01*
X0039372Y0245566D01*
X0038253Y0246685D01*
X0037116Y0247157D01*
X0037604Y0247315D01*
X0038190Y0247614D01*
X0038722Y0248000D01*
X0039187Y0248465D01*
X0039573Y0248997D01*
X0039872Y0249583D01*
X0040075Y0250209D01*
X0040178Y0250858D01*
X0040178Y0251187D01*
X0040178Y0251516D01*
X0040075Y0252165D01*
X0039872Y0252791D01*
X0039573Y0253377D01*
X0039187Y0253909D01*
X0038722Y0254374D01*
X0038190Y0254760D01*
X0037604Y0255059D01*
X0037116Y0255217D01*
X0037873Y0255531D01*
X0056950Y0255965D01*
X0056950Y0254446D01*
X0057757Y0252498D01*
X0058418Y0251836D01*
X0058365Y0249110D01*
X0057757Y0248502D01*
X0056950Y0246554D01*
X0056950Y0244446D01*
X0057757Y0242498D01*
X0058226Y0242029D01*
X0057295Y0194550D01*
X0019702Y0194550D01*
X0020062Y0196144D02*
X0057326Y0196144D01*
X0057358Y0197743D02*
X0020062Y0197743D01*
X0019865Y0199341D02*
X0057389Y0199341D01*
X0057420Y0200940D02*
X0019437Y0200940D01*
X0018604Y0202538D02*
X0057452Y0202538D01*
X0057483Y0204137D02*
X0017446Y0204137D01*
X0015677Y0205735D02*
X0057514Y0205735D01*
X0057546Y0207334D02*
X0011959Y0207334D01*
X0007541Y0207334D02*
X0005800Y0207334D01*
X0005800Y0208932D02*
X0057577Y0208932D01*
X0057608Y0210531D02*
X0005800Y0210531D01*
X0005800Y0212129D02*
X0057640Y0212129D01*
X0057671Y0213728D02*
X0005800Y0213728D01*
X0005800Y0215326D02*
X0057702Y0215326D01*
X0057734Y0216925D02*
X0051861Y0216925D01*
X0051314Y0216378D02*
X0052433Y0217497D01*
X0053039Y0218959D01*
X0053039Y0220541D01*
X0052433Y0222003D01*
X0051314Y0223122D01*
X0049852Y0223728D01*
X0048270Y0223728D01*
X0046808Y0223122D01*
X0045689Y0222003D01*
X0045124Y0220640D01*
X0044559Y0222003D01*
X0043440Y0223122D01*
X0041978Y0223728D01*
X0040396Y0223728D01*
X0038934Y0223122D01*
X0037815Y0222003D01*
X0037343Y0220866D01*
X0037185Y0221354D01*
X0036886Y0221940D01*
X0036500Y0222472D01*
X0036035Y0222937D01*
X0035503Y0223323D01*
X0034917Y0223622D01*
X0034291Y0223825D01*
X0033642Y0223928D01*
X0033313Y0223928D01*
X0033313Y0219750D01*
X0033313Y0219750D01*
X0033313Y0215572D01*
X0033642Y0215572D01*
X0034291Y0215675D01*
X0034917Y0215878D01*
X0035503Y0216177D01*
X0036035Y0216563D01*
X0036500Y0217028D01*
X0036886Y0217560D01*
X0037185Y0218146D01*
X0037343Y0218634D01*
X0037815Y0217497D01*
X0038934Y0216378D01*
X0040396Y0215772D01*
X0041978Y0215772D01*
X0043440Y0216378D01*
X0044559Y0217497D01*
X0045124Y0218860D01*
X0045689Y0217497D01*
X0046808Y0216378D01*
X0048270Y0215772D01*
X0049852Y0215772D01*
X0051314Y0216378D01*
X0052859Y0218523D02*
X0057765Y0218523D01*
X0057797Y0220122D02*
X0053039Y0220122D01*
X0052551Y0221720D02*
X0057828Y0221720D01*
X0057859Y0223319D02*
X0050840Y0223319D01*
X0047282Y0223319D02*
X0042966Y0223319D01*
X0044677Y0221720D02*
X0045571Y0221720D01*
X0045263Y0218523D02*
X0044985Y0218523D01*
X0043987Y0216925D02*
X0046261Y0216925D01*
X0038387Y0216925D02*
X0036396Y0216925D01*
X0037307Y0218523D02*
X0037389Y0218523D01*
X0037697Y0221720D02*
X0036998Y0221720D01*
X0035509Y0223319D02*
X0039408Y0223319D01*
X0033313Y0223319D02*
X0033313Y0223319D01*
X0033313Y0223928D02*
X0032984Y0223928D01*
X0032335Y0223825D01*
X0031709Y0223622D01*
X0031123Y0223323D01*
X0030591Y0222937D01*
X0030126Y0222472D01*
X0029740Y0221940D01*
X0029441Y0221354D01*
X0029283Y0220866D01*
X0028811Y0222003D01*
X0027692Y0223122D01*
X0026230Y0223728D01*
X0024648Y0223728D01*
X0023186Y0223122D01*
X0022067Y0222003D01*
X0021461Y0220541D01*
X0021461Y0218959D01*
X0022067Y0217497D01*
X0023186Y0216378D01*
X0024648Y0215772D01*
X0026230Y0215772D01*
X0027692Y0216378D01*
X0028811Y0217497D01*
X0029283Y0218634D01*
X0029441Y0218146D01*
X0029740Y0217560D01*
X0030126Y0217028D01*
X0030591Y0216563D01*
X0031123Y0216177D01*
X0031709Y0215878D01*
X0032335Y0215675D01*
X0032984Y0215572D01*
X0033313Y0215572D01*
X0033313Y0219750D01*
X0033313Y0219750D01*
X0033313Y0223928D01*
X0033313Y0221720D02*
X0033313Y0221720D01*
X0033313Y0220122D02*
X0033313Y0220122D01*
X0033313Y0218523D02*
X0033313Y0218523D01*
X0033313Y0216925D02*
X0033313Y0216925D01*
X0030230Y0216925D02*
X0028239Y0216925D01*
X0029237Y0218523D02*
X0029319Y0218523D01*
X0029628Y0221720D02*
X0028929Y0221720D01*
X0027218Y0223319D02*
X0031117Y0223319D01*
X0023660Y0223319D02*
X0005800Y0223319D01*
X0005800Y0224917D02*
X0057891Y0224917D01*
X0057922Y0226516D02*
X0005800Y0226516D01*
X0005800Y0228114D02*
X0057953Y0228114D01*
X0057985Y0229713D02*
X0005800Y0229713D01*
X0005800Y0231311D02*
X0058016Y0231311D01*
X0058047Y0232910D02*
X0039096Y0232910D01*
X0039920Y0234508D02*
X0058079Y0234508D01*
X0058110Y0236107D02*
X0039978Y0236107D01*
X0039359Y0237705D02*
X0058141Y0237705D01*
X0058173Y0239304D02*
X0037064Y0239304D01*
X0034936Y0239304D02*
X0005800Y0239304D01*
X0005800Y0240902D02*
X0032785Y0240902D01*
X0032031Y0242501D02*
X0005800Y0242501D01*
X0005800Y0244099D02*
X0032022Y0244099D01*
X0032759Y0245698D02*
X0005800Y0245698D01*
X0005800Y0247296D02*
X0034454Y0247296D01*
X0032501Y0248895D02*
X0005800Y0248895D01*
X0005800Y0250493D02*
X0031880Y0250493D01*
X0031822Y0251187D02*
X0036000Y0251187D01*
X0040178Y0251187D01*
X0036000Y0251187D01*
X0036000Y0251187D01*
X0036000Y0251187D01*
X0031822Y0251187D01*
X0031913Y0252092D02*
X0005800Y0252092D01*
X0005800Y0253690D02*
X0032655Y0253690D01*
X0033796Y0254750D02*
X0005800Y0254750D01*
X0005800Y0360845D01*
X0007020Y0360141D01*
X0009642Y0359438D01*
X0012358Y0359438D01*
X0014980Y0360141D01*
X0017332Y0361498D01*
X0019251Y0363418D01*
X0020609Y0365770D01*
X0021312Y0368392D01*
X0021312Y0371108D01*
X0020630Y0373651D01*
X0137620Y0373651D01*
X0136938Y0371108D01*
X0136938Y0368392D01*
X0137641Y0365770D01*
X0138998Y0363418D01*
X0140918Y0361498D01*
X0143270Y0360141D01*
X0145892Y0359438D01*
X0148608Y0359438D01*
X0151200Y0360133D01*
X0151200Y0254750D01*
X0137550Y0254750D01*
X0137550Y0256554D01*
X0136743Y0258502D01*
X0135252Y0259993D01*
X0134028Y0260500D01*
X0135252Y0261007D01*
X0136743Y0262498D01*
X0137550Y0264446D01*
X0137550Y0266554D01*
X0136743Y0268502D01*
X0135252Y0269993D01*
X0134028Y0270500D01*
X0135252Y0271007D01*
X0136743Y0272498D01*
X0137550Y0274446D01*
X0137550Y0276554D01*
X0136743Y0278502D01*
X0135252Y0279993D01*
X0134028Y0280500D01*
X0135252Y0281007D01*
X0136743Y0282498D01*
X0137550Y0284446D01*
X0137550Y0286554D01*
X0136743Y0288502D01*
X0135252Y0289993D01*
X0134028Y0290500D01*
X0135252Y0291007D01*
X0136743Y0292498D01*
X0137550Y0294446D01*
X0137550Y0296554D01*
X0136743Y0298502D01*
X0135252Y0299993D01*
X0134028Y0300500D01*
X0135252Y0301007D01*
X0136743Y0302498D01*
X0137550Y0304446D01*
X0137550Y0306554D01*
X0136743Y0308502D01*
X0135252Y0309993D01*
X0134028Y0310500D01*
X0135252Y0311007D01*
X0136743Y0312498D01*
X0137550Y0314446D01*
X0137550Y0316554D01*
X0136743Y0318502D01*
X0135252Y0319993D01*
X0134306Y0320385D01*
X0134361Y0320403D01*
X0135133Y0320796D01*
X0135833Y0321305D01*
X0136445Y0321917D01*
X0136954Y0322617D01*
X0137347Y0323389D01*
X0137615Y0324212D01*
X0137750Y0325067D01*
X0137750Y0325300D01*
X0132450Y0325300D01*
X0132450Y0325700D01*
X0137750Y0325700D01*
X0137750Y0325933D01*
X0137615Y0326788D01*
X0137347Y0327611D01*
X0136954Y0328383D01*
X0136445Y0329083D01*
X0135833Y0329695D01*
X0135133Y0330204D01*
X0134361Y0330597D01*
X0134306Y0330615D01*
X0135252Y0331007D01*
X0136743Y0332498D01*
X0137550Y0334446D01*
X0137550Y0336554D01*
X0136743Y0338502D01*
X0135252Y0339993D01*
X0134028Y0340500D01*
X0135252Y0341007D01*
X0136743Y0342498D01*
X0137550Y0344446D01*
X0137550Y0346554D01*
X0136743Y0348502D01*
X0135252Y0349993D01*
X0134028Y0350500D01*
X0135252Y0351007D01*
X0136743Y0352498D01*
X0137550Y0354446D01*
X0137550Y0356554D01*
X0136743Y0358502D01*
X0135252Y0359993D01*
X0133304Y0360800D01*
X0131196Y0360800D01*
X0129248Y0359993D01*
X0127757Y0358502D01*
X0126950Y0356554D01*
X0126950Y0354446D01*
X0127757Y0352498D01*
X0129248Y0351007D01*
X0130472Y0350500D01*
X0129248Y0349993D01*
X0127757Y0348502D01*
X0126950Y0346554D01*
X0126950Y0344446D01*
X0127757Y0342498D01*
X0129248Y0341007D01*
X0130472Y0340500D01*
X0129248Y0339993D01*
X0127757Y0338502D01*
X0126950Y0336554D01*
X0126950Y0334446D01*
X0127757Y0332498D01*
X0129248Y0331007D01*
X0130194Y0330615D01*
X0130139Y0330597D01*
X0129367Y0330204D01*
X0128667Y0329695D01*
X0128055Y0329083D01*
X0127546Y0328383D01*
X0127153Y0327611D01*
X0126885Y0326788D01*
X0126750Y0325933D01*
X0126750Y0325700D01*
X0132050Y0325700D01*
X0132050Y0325300D01*
X0126750Y0325300D01*
X0126750Y0325067D01*
X0126885Y0324212D01*
X0127153Y0323389D01*
X0127546Y0322617D01*
X0128055Y0321917D01*
X0128667Y0321305D01*
X0129367Y0320796D01*
X0130139Y0320403D01*
X0130194Y0320385D01*
X0129248Y0319993D01*
X0127757Y0318502D01*
X0126950Y0316554D01*
X0126950Y0314446D01*
X0127757Y0312498D01*
X0129248Y0311007D01*
X0130472Y0310500D01*
X0129248Y0309993D01*
X0127757Y0308502D01*
X0126950Y0306554D01*
X0126950Y0304446D01*
X0127757Y0302498D01*
X0129248Y0301007D01*
X0130472Y0300500D01*
X0129248Y0299993D01*
X0127757Y0298502D01*
X0126950Y0296554D01*
X0126950Y0294446D01*
X0127757Y0292498D01*
X0129248Y0291007D01*
X0130472Y0290500D01*
X0129248Y0289993D01*
X0127757Y0288502D01*
X0126950Y0286554D01*
X0126950Y0284446D01*
X0127757Y0282498D01*
X0129248Y0281007D01*
X0130472Y0280500D01*
X0129248Y0279993D01*
X0127757Y0278502D01*
X0126950Y0276554D01*
X0126950Y0274446D01*
X0127757Y0272498D01*
X0129248Y0271007D01*
X0130472Y0270500D01*
X0129248Y0269993D01*
X0127757Y0268502D01*
X0126950Y0266554D01*
X0126950Y0264446D01*
X0127757Y0262498D01*
X0129248Y0261007D01*
X0130472Y0260500D01*
X0129248Y0259993D01*
X0127757Y0258502D01*
X0126950Y0256554D01*
X0126950Y0254750D01*
X0067550Y0254750D01*
X0067550Y0256554D01*
X0066743Y0258502D01*
X0065252Y0259993D01*
X0064028Y0260500D01*
X0065252Y0261007D01*
X0066743Y0262498D01*
X0067550Y0264446D01*
X0067550Y0266554D01*
X0066743Y0268502D01*
X0065252Y0269993D01*
X0064028Y0270500D01*
X0065252Y0271007D01*
X0066743Y0272498D01*
X0067550Y0274446D01*
X0067550Y0276554D01*
X0066743Y0278502D01*
X0065252Y0279993D01*
X0064028Y0280500D01*
X0065252Y0281007D01*
X0066743Y0282498D01*
X0067550Y0284446D01*
X0067550Y0286554D01*
X0066743Y0288502D01*
X0065252Y0289993D01*
X0064028Y0290500D01*
X0065252Y0291007D01*
X0066743Y0292498D01*
X0067550Y0294446D01*
X0067550Y0296554D01*
X0066743Y0298502D01*
X0065252Y0299993D01*
X0064028Y0300500D01*
X0065252Y0301007D01*
X0066743Y0302498D01*
X0067550Y0304446D01*
X0067550Y0306554D01*
X0066743Y0308502D01*
X0065252Y0309993D01*
X0064028Y0310500D01*
X0065252Y0311007D01*
X0066743Y0312498D01*
X0067550Y0314446D01*
X0067550Y0316554D01*
X0066743Y0318502D01*
X0065252Y0319993D01*
X0064028Y0320500D01*
X0065252Y0321007D01*
X0066743Y0322498D01*
X0067550Y0324446D01*
X0067550Y0326554D01*
X0066743Y0328502D01*
X0065252Y0329993D01*
X0064028Y0330500D01*
X0065252Y0331007D01*
X0066743Y0332498D01*
X0067550Y0334446D01*
X0067550Y0336554D01*
X0066743Y0338502D01*
X0065252Y0339993D01*
X0064306Y0340385D01*
X0064361Y0340403D01*
X0065133Y0340796D01*
X0065833Y0341305D01*
X0066445Y0341917D01*
X0066954Y0342617D01*
X0067347Y0343389D01*
X0067615Y0344212D01*
X0067750Y0345067D01*
X0067750Y0345300D01*
X0062450Y0345300D01*
X0062450Y0345700D01*
X0067750Y0345700D01*
X0067750Y0345933D01*
X0067615Y0346788D01*
X0067347Y0347611D01*
X0066954Y0348383D01*
X0066445Y0349083D01*
X0065833Y0349695D01*
X0065133Y0350204D01*
X0064361Y0350597D01*
X0064306Y0350615D01*
X0065252Y0351007D01*
X0066743Y0352498D01*
X0067550Y0354446D01*
X0067550Y0356554D01*
X0066743Y0358502D01*
X0065252Y0359993D01*
X0063304Y0360800D01*
X0061196Y0360800D01*
X0059248Y0359993D01*
X0057757Y0358502D01*
X0056950Y0356554D01*
X0056950Y0354446D01*
X0057757Y0352498D01*
X0059248Y0351007D01*
X0060194Y0350615D01*
X0060139Y0350597D01*
X0059367Y0350204D01*
X0058667Y0349695D01*
X0058055Y0349083D01*
X0057546Y0348383D01*
X0057153Y0347611D01*
X0056885Y0346788D01*
X0056750Y0345933D01*
X0056750Y0345700D01*
X0062050Y0345700D01*
X0062050Y0345300D01*
X0056750Y0345300D01*
X0056750Y0345067D01*
X0056885Y0344212D01*
X0057153Y0343389D01*
X0057546Y0342617D01*
X0058055Y0341917D01*
X0058667Y0341305D01*
X0059367Y0340796D01*
X0060139Y0340403D01*
X0060194Y0340385D01*
X0059248Y0339993D01*
X0057757Y0338502D01*
X0056950Y0336554D01*
X0056950Y0334446D01*
X0057757Y0332498D01*
X0059248Y0331007D01*
X0060472Y0330500D01*
X0059248Y0329993D01*
X0057757Y0328502D01*
X0056950Y0326554D01*
X0056950Y0324446D01*
X0057757Y0322498D01*
X0059248Y0321007D01*
X0060472Y0320500D01*
X0059248Y0319993D01*
X0057757Y0318502D01*
X0056950Y0316554D01*
X0056950Y0314446D01*
X0057757Y0312498D01*
X0059248Y0311007D01*
X0060472Y0310500D01*
X0059248Y0309993D01*
X0057757Y0308502D01*
X0056950Y0306554D01*
X0056950Y0304446D01*
X0057757Y0302498D01*
X0059248Y0301007D01*
X0060472Y0300500D01*
X0059248Y0299993D01*
X0057757Y0298502D01*
X0056950Y0296554D01*
X0056950Y0294446D01*
X0057757Y0292498D01*
X0059248Y0291007D01*
X0060472Y0290500D01*
X0059248Y0289993D01*
X0057757Y0288502D01*
X0056950Y0286554D01*
X0056950Y0284446D01*
X0057757Y0282498D01*
X0059248Y0281007D01*
X0060472Y0280500D01*
X0059248Y0279993D01*
X0057757Y0278502D01*
X0056950Y0276554D01*
X0056950Y0274446D01*
X0057757Y0272498D01*
X0059248Y0271007D01*
X0060472Y0270500D01*
X0059248Y0269993D01*
X0057757Y0268502D01*
X0056950Y0266554D01*
X0056950Y0264446D01*
X0057757Y0262498D01*
X0059248Y0261007D01*
X0060472Y0260500D01*
X0059248Y0259993D01*
X0057757Y0258502D01*
X0056950Y0256554D01*
X0056950Y0254750D01*
X0038204Y0254750D01*
X0038190Y0254760D01*
X0037604Y0255059D01*
X0037116Y0255217D01*
X0038253Y0255689D01*
X0039372Y0256808D01*
X0039978Y0258270D01*
X0039978Y0259852D01*
X0039372Y0261314D01*
X0038253Y0262433D01*
X0036791Y0263039D01*
X0035209Y0263039D01*
X0033747Y0262433D01*
X0032628Y0261314D01*
X0032022Y0259852D01*
X0032022Y0258270D01*
X0032628Y0256808D01*
X0033747Y0255689D01*
X0034884Y0255217D01*
X0034396Y0255059D01*
X0033810Y0254760D01*
X0033796Y0254750D01*
X0034712Y0255289D02*
X0027215Y0255289D01*
X0032595Y0256887D02*
X0005800Y0256887D01*
X0005800Y0255289D02*
X0034712Y0255289D01*
X0037288Y0255289D02*
X0056950Y0255289D01*
X0037288Y0255289D01*
X0039345Y0253690D02*
X0057263Y0253690D01*
X0058163Y0252092D02*
X0040087Y0252092D01*
X0040120Y0250493D02*
X0058392Y0250493D01*
X0058150Y0248895D02*
X0039499Y0248895D01*
X0037546Y0247296D02*
X0057257Y0247296D01*
X0056950Y0245698D02*
X0039241Y0245698D01*
X0039978Y0244099D02*
X0057093Y0244099D01*
X0057756Y0242501D02*
X0039969Y0242501D01*
X0039215Y0240902D02*
X0058204Y0240902D01*
X0067550Y0255289D02*
X0126950Y0255289D01*
X0127088Y0256887D02*
X0067412Y0256887D01*
X0066750Y0258486D02*
X0127750Y0258486D01*
X0129468Y0260084D02*
X0065032Y0260084D01*
X0065928Y0261683D02*
X0128572Y0261683D01*
X0127432Y0263282D02*
X0067068Y0263282D01*
X0067550Y0264880D02*
X0126950Y0264880D01*
X0126950Y0266479D02*
X0067550Y0266479D01*
X0066919Y0268077D02*
X0127581Y0268077D01*
X0128930Y0269676D02*
X0065570Y0269676D01*
X0065519Y0271274D02*
X0128981Y0271274D01*
X0127602Y0272873D02*
X0066898Y0272873D01*
X0067550Y0274471D02*
X0126950Y0274471D01*
X0126950Y0276070D02*
X0067550Y0276070D01*
X0067089Y0277668D02*
X0127411Y0277668D01*
X0128521Y0279267D02*
X0065979Y0279267D01*
X0064910Y0280865D02*
X0129590Y0280865D01*
X0127791Y0282464D02*
X0066709Y0282464D01*
X0067391Y0284062D02*
X0127109Y0284062D01*
X0126950Y0285661D02*
X0067550Y0285661D01*
X0067258Y0287259D02*
X0127242Y0287259D01*
X0128112Y0288858D02*
X0066388Y0288858D01*
X0064134Y0290456D02*
X0130366Y0290456D01*
X0128200Y0292055D02*
X0066300Y0292055D01*
X0067222Y0293653D02*
X0127278Y0293653D01*
X0126950Y0295252D02*
X0067550Y0295252D01*
X0067427Y0296850D02*
X0127073Y0296850D01*
X0127735Y0298449D02*
X0066765Y0298449D01*
X0065121Y0300047D02*
X0129379Y0300047D01*
X0128609Y0301646D02*
X0065891Y0301646D01*
X0067052Y0303244D02*
X0127448Y0303244D01*
X0126950Y0304843D02*
X0067550Y0304843D01*
X0067550Y0306441D02*
X0126950Y0306441D01*
X0127565Y0308040D02*
X0066935Y0308040D01*
X0065607Y0309638D02*
X0128893Y0309638D01*
X0129018Y0311237D02*
X0065482Y0311237D01*
X0066883Y0312835D02*
X0127617Y0312835D01*
X0126955Y0314434D02*
X0067545Y0314434D01*
X0067550Y0316032D02*
X0126950Y0316032D01*
X0127396Y0317631D02*
X0067104Y0317631D01*
X0066016Y0319229D02*
X0128484Y0319229D01*
X0129323Y0320828D02*
X0064820Y0320828D01*
X0066672Y0322426D02*
X0127685Y0322426D01*
X0126946Y0324025D02*
X0067376Y0324025D01*
X0067550Y0325623D02*
X0132050Y0325623D01*
X0132450Y0325623D02*
X0151200Y0325623D01*
X0151200Y0324025D02*
X0137554Y0324025D01*
X0136815Y0322426D02*
X0151200Y0322426D01*
X0151200Y0320828D02*
X0135177Y0320828D01*
X0136016Y0319229D02*
X0151200Y0319229D01*
X0151200Y0317631D02*
X0137104Y0317631D01*
X0137550Y0316032D02*
X0151200Y0316032D01*
X0151200Y0314434D02*
X0137545Y0314434D01*
X0136883Y0312835D02*
X0151200Y0312835D01*
X0151200Y0311237D02*
X0135482Y0311237D01*
X0135607Y0309638D02*
X0151200Y0309638D01*
X0151200Y0308040D02*
X0136935Y0308040D01*
X0137550Y0306441D02*
X0151200Y0306441D01*
X0151200Y0304843D02*
X0137550Y0304843D01*
X0137052Y0303244D02*
X0151200Y0303244D01*
X0151200Y0301646D02*
X0135891Y0301646D01*
X0135121Y0300047D02*
X0151200Y0300047D01*
X0151200Y0298449D02*
X0136765Y0298449D01*
X0137427Y0296850D02*
X0151200Y0296850D01*
X0151200Y0295252D02*
X0137550Y0295252D01*
X0137222Y0293653D02*
X0151200Y0293653D01*
X0151200Y0292055D02*
X0136300Y0292055D01*
X0134134Y0290456D02*
X0151200Y0290456D01*
X0151200Y0288858D02*
X0136388Y0288858D01*
X0137258Y0287259D02*
X0151200Y0287259D01*
X0151200Y0285661D02*
X0137550Y0285661D01*
X0137391Y0284062D02*
X0151200Y0284062D01*
X0151200Y0282464D02*
X0136709Y0282464D01*
X0134910Y0280865D02*
X0151200Y0280865D01*
X0151200Y0279267D02*
X0135979Y0279267D01*
X0137089Y0277668D02*
X0151200Y0277668D01*
X0151200Y0276070D02*
X0137550Y0276070D01*
X0137550Y0274471D02*
X0151200Y0274471D01*
X0151200Y0272873D02*
X0136898Y0272873D01*
X0135519Y0271274D02*
X0151200Y0271274D01*
X0151200Y0269676D02*
X0135570Y0269676D01*
X0136919Y0268077D02*
X0151200Y0268077D01*
X0151200Y0266479D02*
X0137550Y0266479D01*
X0137550Y0264880D02*
X0151200Y0264880D01*
X0151200Y0263282D02*
X0137068Y0263282D01*
X0135928Y0261683D02*
X0151200Y0261683D01*
X0151200Y0260084D02*
X0135032Y0260084D01*
X0136750Y0258486D02*
X0151200Y0258486D01*
X0151200Y0256887D02*
X0137412Y0256887D01*
X0137550Y0255289D02*
X0151200Y0255289D01*
X0160800Y0255289D02*
X0189193Y0255289D01*
X0160800Y0255289D01*
X0160800Y0256000D02*
X0190046Y0256000D01*
X0189528Y0255624D01*
X0189063Y0255159D01*
X0188677Y0254627D01*
X0188378Y0254041D01*
X0188175Y0253415D01*
X0188072Y0252766D01*
X0188072Y0252437D01*
X0188072Y0252108D01*
X0188175Y0251459D01*
X0188378Y0250833D01*
X0188677Y0250247D01*
X0189063Y0249715D01*
X0189528Y0249250D01*
X0190060Y0248864D01*
X0190646Y0248565D01*
X0191134Y0248407D01*
X0189997Y0247935D01*
X0188878Y0246816D01*
X0188272Y0245354D01*
X0188272Y0243772D01*
X0188878Y0242310D01*
X0189997Y0241191D01*
X0191360Y0240626D01*
X0189997Y0240061D01*
X0188878Y0238942D01*
X0188272Y0237480D01*
X0188272Y0235898D01*
X0188878Y0234436D01*
X0189997Y0233317D01*
X0191459Y0232711D01*
X0193041Y0232711D01*
X0194503Y0233317D01*
X0195622Y0234436D01*
X0196228Y0235898D01*
X0196228Y0237480D01*
X0195622Y0238942D01*
X0194503Y0240061D01*
X0193140Y0240626D01*
X0194503Y0241191D01*
X0195622Y0242310D01*
X0196228Y0243772D01*
X0196228Y0245354D01*
X0195622Y0246816D01*
X0194503Y0247935D01*
X0193366Y0248407D01*
X0193854Y0248565D01*
X0194440Y0248864D01*
X0194972Y0249250D01*
X0195437Y0249715D01*
X0195823Y0250247D01*
X0196122Y0250833D01*
X0196325Y0251459D01*
X0196428Y0252108D01*
X0196428Y0252437D01*
X0196428Y0252766D01*
X0196325Y0253415D01*
X0196122Y0254041D01*
X0195823Y0254627D01*
X0195437Y0255159D01*
X0194972Y0255624D01*
X0194454Y0256000D01*
X0210988Y0256000D01*
X0210700Y0255304D01*
X0210700Y0253196D01*
X0211507Y0251248D01*
X0212144Y0250610D01*
X0212090Y0247835D01*
X0211507Y0247252D01*
X0210700Y0245304D01*
X0210700Y0243196D01*
X0211507Y0241248D01*
X0211952Y0240803D01*
X0211045Y0194550D01*
X0174702Y0194550D01*
X0175062Y0195892D01*
X0175062Y0198608D01*
X0174359Y0201230D01*
X0173001Y0203582D01*
X0171082Y0205501D01*
X0168730Y0206859D01*
X0166108Y0207562D01*
X0163392Y0207562D01*
X0160800Y0206867D01*
X0160800Y0256000D01*
X0160800Y0256887D02*
X0190120Y0256887D01*
X0189997Y0256939D02*
X0191134Y0256467D01*
X0190646Y0256309D01*
X0190060Y0256010D01*
X0189528Y0255624D01*
X0189063Y0255159D01*
X0188677Y0254627D01*
X0188378Y0254041D01*
X0188282Y0253746D01*
X0160800Y0253509D01*
X0160800Y0355349D01*
X0160849Y0360120D01*
X0163392Y0359438D01*
X0166108Y0359438D01*
X0168730Y0360141D01*
X0171082Y0361498D01*
X0173001Y0363418D01*
X0174359Y0365770D01*
X0175062Y0368392D01*
X0175062Y0371108D01*
X0174380Y0373651D01*
X0291370Y0373651D01*
X0290688Y0371108D01*
X0290688Y0368392D01*
X0291391Y0365770D01*
X0292748Y0363418D01*
X0294668Y0361498D01*
X0297020Y0360141D01*
X0299642Y0359438D01*
X0302358Y0359438D01*
X0304980Y0360141D01*
X0306121Y0360800D01*
X0306121Y0298631D01*
X0304750Y0254750D01*
X0291300Y0254634D01*
X0291300Y0255304D01*
X0290493Y0257252D01*
X0289002Y0258743D01*
X0287778Y0259250D01*
X0289002Y0259757D01*
X0290493Y0261248D01*
X0291300Y0263196D01*
X0291300Y0265304D01*
X0290493Y0267252D01*
X0289002Y0268743D01*
X0287778Y0269250D01*
X0289002Y0269757D01*
X0290493Y0271248D01*
X0291300Y0273196D01*
X0291300Y0275304D01*
X0290493Y0277252D01*
X0289002Y0278743D01*
X0287778Y0279250D01*
X0289002Y0279757D01*
X0290493Y0281248D01*
X0291300Y0283196D01*
X0291300Y0285304D01*
X0290493Y0287252D01*
X0289002Y0288743D01*
X0287778Y0289250D01*
X0289002Y0289757D01*
X0290493Y0291248D01*
X0291300Y0293196D01*
X0291300Y0295304D01*
X0290493Y0297252D01*
X0289002Y0298743D01*
X0287778Y0299250D01*
X0289002Y0299757D01*
X0290493Y0301248D01*
X0291300Y0303196D01*
X0291300Y0305304D01*
X0290493Y0307252D01*
X0289002Y0308743D01*
X0287778Y0309250D01*
X0289002Y0309757D01*
X0290493Y0311248D01*
X0291300Y0313196D01*
X0291300Y0315304D01*
X0290493Y0317252D01*
X0289002Y0318743D01*
X0288056Y0319135D01*
X0288111Y0319153D01*
X0288883Y0319546D01*
X0289583Y0320055D01*
X0290195Y0320667D01*
X0290704Y0321367D01*
X0291097Y0322139D01*
X0291365Y0322962D01*
X0291500Y0323817D01*
X0291500Y0324050D01*
X0286200Y0324050D01*
X0286200Y0324450D01*
X0291500Y0324450D01*
X0291500Y0324683D01*
X0291365Y0325538D01*
X0291097Y0326361D01*
X0290704Y0327133D01*
X0290195Y0327833D01*
X0289583Y0328445D01*
X0288883Y0328954D01*
X0288111Y0329347D01*
X0288056Y0329365D01*
X0289002Y0329757D01*
X0290493Y0331248D01*
X0291300Y0333196D01*
X0291300Y0335304D01*
X0290493Y0337252D01*
X0289002Y0338743D01*
X0287778Y0339250D01*
X0289002Y0339757D01*
X0290493Y0341248D01*
X0291300Y0343196D01*
X0291300Y0345304D01*
X0290493Y0347252D01*
X0289002Y0348743D01*
X0287778Y0349250D01*
X0289002Y0349757D01*
X0290493Y0351248D01*
X0291300Y0353196D01*
X0291300Y0355304D01*
X0290493Y0357252D01*
X0289002Y0358743D01*
X0287054Y0359550D01*
X0284946Y0359550D01*
X0282998Y0358743D01*
X0281507Y0357252D01*
X0280700Y0355304D01*
X0280700Y0353196D01*
X0281507Y0351248D01*
X0282998Y0349757D01*
X0284222Y0349250D01*
X0282998Y0348743D01*
X0281507Y0347252D01*
X0280700Y0345304D01*
X0280700Y0343196D01*
X0281507Y0341248D01*
X0282998Y0339757D01*
X0284222Y0339250D01*
X0282998Y0338743D01*
X0281507Y0337252D01*
X0280700Y0335304D01*
X0280700Y0333196D01*
X0281507Y0331248D01*
X0282998Y0329757D01*
X0283944Y0329365D01*
X0283889Y0329347D01*
X0283117Y0328954D01*
X0282417Y0328445D01*
X0281805Y0327833D01*
X0281296Y0327133D01*
X0280903Y0326361D01*
X0280635Y0325538D01*
X0280500Y0324683D01*
X0280500Y0324450D01*
X0285800Y0324450D01*
X0285800Y0324050D01*
X0280500Y0324050D01*
X0280500Y0323817D01*
X0280635Y0322962D01*
X0280903Y0322139D01*
X0281296Y0321367D01*
X0281805Y0320667D01*
X0282417Y0320055D01*
X0283117Y0319546D01*
X0283889Y0319153D01*
X0283944Y0319135D01*
X0282998Y0318743D01*
X0281507Y0317252D01*
X0280700Y0315304D01*
X0280700Y0313196D01*
X0281507Y0311248D01*
X0282998Y0309757D01*
X0284222Y0309250D01*
X0282998Y0308743D01*
X0281507Y0307252D01*
X0280700Y0305304D01*
X0280700Y0303196D01*
X0281507Y0301248D01*
X0282998Y0299757D01*
X0284222Y0299250D01*
X0282998Y0298743D01*
X0281507Y0297252D01*
X0280700Y0295304D01*
X0280700Y0293196D01*
X0281507Y0291248D01*
X0282998Y0289757D01*
X0284222Y0289250D01*
X0282998Y0288743D01*
X0281507Y0287252D01*
X0280700Y0285304D01*
X0280700Y0283196D01*
X0281507Y0281248D01*
X0282998Y0279757D01*
X0284222Y0279250D01*
X0282998Y0278743D01*
X0281507Y0277252D01*
X0280700Y0275304D01*
X0280700Y0273196D01*
X0281507Y0271248D01*
X0282998Y0269757D01*
X0284222Y0269250D01*
X0282998Y0268743D01*
X0281507Y0267252D01*
X0280700Y0265304D01*
X0280700Y0263196D01*
X0281507Y0261248D01*
X0282998Y0259757D01*
X0284222Y0259250D01*
X0282998Y0258743D01*
X0281507Y0257252D01*
X0280700Y0255304D01*
X0280700Y0254543D01*
X0221300Y0254031D01*
X0221300Y0255304D01*
X0220493Y0257252D01*
X0219002Y0258743D01*
X0217778Y0259250D01*
X0219002Y0259757D01*
X0220493Y0261248D01*
X0221300Y0263196D01*
X0221300Y0265304D01*
X0220493Y0267252D01*
X0219002Y0268743D01*
X0217778Y0269250D01*
X0219002Y0269757D01*
X0220493Y0271248D01*
X0221300Y0273196D01*
X0221300Y0275304D01*
X0220493Y0277252D01*
X0219002Y0278743D01*
X0217778Y0279250D01*
X0219002Y0279757D01*
X0220493Y0281248D01*
X0221300Y0283196D01*
X0221300Y0285304D01*
X0220493Y0287252D01*
X0219002Y0288743D01*
X0217778Y0289250D01*
X0219002Y0289757D01*
X0220493Y0291248D01*
X0221300Y0293196D01*
X0221300Y0295304D01*
X0220493Y0297252D01*
X0219002Y0298743D01*
X0217778Y0299250D01*
X0219002Y0299757D01*
X0220493Y0301248D01*
X0221300Y0303196D01*
X0221300Y0305304D01*
X0220493Y0307252D01*
X0219002Y0308743D01*
X0217778Y0309250D01*
X0219002Y0309757D01*
X0220493Y0311248D01*
X0221300Y0313196D01*
X0221300Y0315304D01*
X0220493Y0317252D01*
X0219002Y0318743D01*
X0217778Y0319250D01*
X0219002Y0319757D01*
X0220493Y0321248D01*
X0221300Y0323196D01*
X0221300Y0325304D01*
X0220493Y0327252D01*
X0219002Y0328743D01*
X0217778Y0329250D01*
X0219002Y0329757D01*
X0220493Y0331248D01*
X0221300Y0333196D01*
X0221300Y0335304D01*
X0220493Y0337252D01*
X0219002Y0338743D01*
X0218056Y0339135D01*
X0218111Y0339153D01*
X0218883Y0339546D01*
X0219583Y0340055D01*
X0220195Y0340667D01*
X0220704Y0341367D01*
X0221097Y0342139D01*
X0221365Y0342962D01*
X0221500Y0343817D01*
X0221500Y0344050D01*
X0216200Y0344050D01*
X0216200Y0344450D01*
X0221500Y0344450D01*
X0221500Y0344683D01*
X0221365Y0345538D01*
X0221097Y0346361D01*
X0220704Y0347133D01*
X0220195Y0347833D01*
X0219583Y0348445D01*
X0218883Y0348954D01*
X0218111Y0349347D01*
X0218056Y0349365D01*
X0219002Y0349757D01*
X0220493Y0351248D01*
X0221300Y0353196D01*
X0221300Y0355304D01*
X0220493Y0357252D01*
X0219002Y0358743D01*
X0217054Y0359550D01*
X0214946Y0359550D01*
X0212998Y0358743D01*
X0211507Y0357252D01*
X0210700Y0355304D01*
X0210700Y0353196D01*
X0211507Y0351248D01*
X0212998Y0349757D01*
X0213944Y0349365D01*
X0213889Y0349347D01*
X0213117Y0348954D01*
X0212417Y0348445D01*
X0211805Y0347833D01*
X0211296Y0347133D01*
X0210903Y0346361D01*
X0210635Y0345538D01*
X0210500Y0344683D01*
X0210500Y0344450D01*
X0215800Y0344450D01*
X0215800Y0344050D01*
X0210500Y0344050D01*
X0210500Y0343817D01*
X0210635Y0342962D01*
X0210903Y0342139D01*
X0211296Y0341367D01*
X0211805Y0340667D01*
X0212417Y0340055D01*
X0213117Y0339546D01*
X0213889Y0339153D01*
X0213944Y0339135D01*
X0212998Y0338743D01*
X0211507Y0337252D01*
X0210700Y0335304D01*
X0210700Y0333196D01*
X0211507Y0331248D01*
X0212998Y0329757D01*
X0214222Y0329250D01*
X0212998Y0328743D01*
X0211507Y0327252D01*
X0210700Y0325304D01*
X0210700Y0323196D01*
X0211507Y0321248D01*
X0212998Y0319757D01*
X0214222Y0319250D01*
X0212998Y0318743D01*
X0211507Y0317252D01*
X0210700Y0315304D01*
X0210700Y0313196D01*
X0211507Y0311248D01*
X0212998Y0309757D01*
X0214222Y0309250D01*
X0212998Y0308743D01*
X0211507Y0307252D01*
X0210700Y0305304D01*
X0210700Y0303196D01*
X0211507Y0301248D01*
X0212998Y0299757D01*
X0214222Y0299250D01*
X0212998Y0298743D01*
X0211507Y0297252D01*
X0210700Y0295304D01*
X0210700Y0293196D01*
X0211507Y0291248D01*
X0212998Y0289757D01*
X0214222Y0289250D01*
X0212998Y0288743D01*
X0211507Y0287252D01*
X0210700Y0285304D01*
X0210700Y0283196D01*
X0211507Y0281248D01*
X0212998Y0279757D01*
X0214222Y0279250D01*
X0212998Y0278743D01*
X0211507Y0277252D01*
X0210700Y0275304D01*
X0210700Y0273196D01*
X0211507Y0271248D01*
X0212998Y0269757D01*
X0214222Y0269250D01*
X0212998Y0268743D01*
X0211507Y0267252D01*
X0210700Y0265304D01*
X0210700Y0263196D01*
X0211507Y0261248D01*
X0212998Y0259757D01*
X0214222Y0259250D01*
X0212998Y0258743D01*
X0211507Y0257252D01*
X0210700Y0255304D01*
X0210700Y0253939D01*
X0196195Y0253814D01*
X0196122Y0254041D01*
X0195823Y0254627D01*
X0195437Y0255159D01*
X0194972Y0255624D01*
X0194440Y0256010D01*
X0193854Y0256309D01*
X0193366Y0256467D01*
X0194503Y0256939D01*
X0195622Y0258058D01*
X0196228Y0259520D01*
X0196228Y0261102D01*
X0195622Y0262564D01*
X0194503Y0263683D01*
X0193041Y0264289D01*
X0191459Y0264289D01*
X0189997Y0263683D01*
X0188878Y0262564D01*
X0188272Y0261102D01*
X0188272Y0259520D01*
X0188878Y0258058D01*
X0189997Y0256939D01*
X0188700Y0258486D02*
X0160800Y0258486D01*
X0160800Y0260084D02*
X0188272Y0260084D01*
X0188513Y0261683D02*
X0160800Y0261683D01*
X0160800Y0263282D02*
X0189595Y0263282D01*
X0194905Y0263282D02*
X0210700Y0263282D01*
X0210700Y0264880D02*
X0160800Y0264880D01*
X0160800Y0266479D02*
X0211186Y0266479D01*
X0212332Y0268077D02*
X0160800Y0268077D01*
X0160800Y0269676D02*
X0213194Y0269676D01*
X0211496Y0271274D02*
X0160800Y0271274D01*
X0160800Y0272873D02*
X0210834Y0272873D01*
X0210700Y0274471D02*
X0160800Y0274471D01*
X0160800Y0276070D02*
X0211017Y0276070D01*
X0211923Y0277668D02*
X0160800Y0277668D01*
X0160800Y0279267D02*
X0214181Y0279267D01*
X0211890Y0280865D02*
X0160800Y0280865D01*
X0160800Y0282464D02*
X0211003Y0282464D01*
X0210700Y0284062D02*
X0160800Y0284062D01*
X0160800Y0285661D02*
X0210848Y0285661D01*
X0211514Y0287259D02*
X0160800Y0287259D01*
X0160800Y0288858D02*
X0213274Y0288858D01*
X0212298Y0290456D02*
X0160800Y0290456D01*
X0160800Y0292055D02*
X0211173Y0292055D01*
X0210700Y0293653D02*
X0160800Y0293653D01*
X0160800Y0295252D02*
X0210700Y0295252D01*
X0211340Y0296850D02*
X0160800Y0296850D01*
X0160800Y0298449D02*
X0212703Y0298449D01*
X0212707Y0300047D02*
X0160800Y0300047D01*
X0160800Y0301646D02*
X0211342Y0301646D01*
X0210700Y0303244D02*
X0160800Y0303244D01*
X0160800Y0304843D02*
X0192912Y0304843D01*
X0192998Y0304757D02*
X0194946Y0303950D01*
X0197054Y0303950D01*
X0199002Y0304757D01*
X0200493Y0306248D01*
X0201300Y0308196D01*
X0201300Y0310304D01*
X0200493Y0312252D01*
X0199002Y0313743D01*
X0198056Y0314135D01*
X0198111Y0314153D01*
X0198883Y0314546D01*
X0199583Y0315055D01*
X0200195Y0315667D01*
X0200704Y0316367D01*
X0201097Y0317139D01*
X0201365Y0317962D01*
X0201500Y0318817D01*
X0201500Y0319050D01*
X0196200Y0319050D01*
X0196200Y0319450D01*
X0201500Y0319450D01*
X0201500Y0319683D01*
X0201365Y0320538D01*
X0201097Y0321361D01*
X0200704Y0322133D01*
X0200195Y0322833D01*
X0199583Y0323445D01*
X0198883Y0323954D01*
X0198111Y0324347D01*
X0198056Y0324365D01*
X0199002Y0324757D01*
X0200493Y0326248D01*
X0201300Y0328196D01*
X0201300Y0330304D01*
X0200493Y0332252D01*
X0199002Y0333743D01*
X0197054Y0334550D01*
X0194946Y0334550D01*
X0192998Y0333743D01*
X0191507Y0332252D01*
X0190700Y0330304D01*
X0190700Y0328196D01*
X0191507Y0326248D01*
X0192998Y0324757D01*
X0193944Y0324365D01*
X0193889Y0324347D01*
X0193117Y0323954D01*
X0192417Y0323445D01*
X0191805Y0322833D01*
X0191296Y0322133D01*
X0190903Y0321361D01*
X0190635Y0320538D01*
X0190500Y0319683D01*
X0190500Y0319450D01*
X0195800Y0319450D01*
X0195800Y0319050D01*
X0190500Y0319050D01*
X0190500Y0318817D01*
X0190635Y0317962D01*
X0190903Y0317139D01*
X0191296Y0316367D01*
X0191805Y0315667D01*
X0192417Y0315055D01*
X0193117Y0314546D01*
X0193889Y0314153D01*
X0193944Y0314135D01*
X0192998Y0313743D01*
X0191507Y0312252D01*
X0190700Y0310304D01*
X0190700Y0308196D01*
X0191507Y0306248D01*
X0192998Y0304757D01*
X0191427Y0306441D02*
X0160800Y0306441D01*
X0160800Y0308040D02*
X0190765Y0308040D01*
X0190700Y0309638D02*
X0160800Y0309638D01*
X0160800Y0311237D02*
X0191086Y0311237D01*
X0192090Y0312835D02*
X0160800Y0312835D01*
X0160800Y0314434D02*
X0193337Y0314434D01*
X0191539Y0316032D02*
X0160800Y0316032D01*
X0160800Y0317631D02*
X0190743Y0317631D01*
X0190730Y0320828D02*
X0160800Y0320828D01*
X0160800Y0322426D02*
X0191509Y0322426D01*
X0193257Y0324025D02*
X0160800Y0324025D01*
X0160800Y0325623D02*
X0192131Y0325623D01*
X0191103Y0327222D02*
X0160800Y0327222D01*
X0160800Y0328820D02*
X0190700Y0328820D01*
X0190748Y0330419D02*
X0160800Y0330419D01*
X0160800Y0332018D02*
X0191410Y0332018D01*
X0192871Y0333616D02*
X0160800Y0333616D01*
X0160800Y0335215D02*
X0210700Y0335215D01*
X0210700Y0333616D02*
X0199129Y0333616D01*
X0200590Y0332018D02*
X0211188Y0332018D01*
X0212336Y0330419D02*
X0201252Y0330419D01*
X0201300Y0328820D02*
X0213185Y0328820D01*
X0211494Y0327222D02*
X0200897Y0327222D01*
X0199869Y0325623D02*
X0210832Y0325623D01*
X0210700Y0324025D02*
X0198743Y0324025D01*
X0200491Y0322426D02*
X0211019Y0322426D01*
X0211927Y0320828D02*
X0201270Y0320828D01*
X0201257Y0317631D02*
X0211886Y0317631D01*
X0211002Y0316032D02*
X0200461Y0316032D01*
X0198663Y0314434D02*
X0210700Y0314434D01*
X0210849Y0312835D02*
X0199910Y0312835D01*
X0200914Y0311237D02*
X0211518Y0311237D01*
X0213284Y0309638D02*
X0201300Y0309638D01*
X0201235Y0308040D02*
X0212295Y0308040D01*
X0211171Y0306441D02*
X0200573Y0306441D01*
X0199088Y0304843D02*
X0210700Y0304843D01*
X0219705Y0308040D02*
X0282295Y0308040D01*
X0283284Y0309638D02*
X0218716Y0309638D01*
X0220482Y0311237D02*
X0281518Y0311237D01*
X0280849Y0312835D02*
X0221151Y0312835D01*
X0221300Y0314434D02*
X0280700Y0314434D01*
X0281002Y0316032D02*
X0220998Y0316032D01*
X0220114Y0317631D02*
X0281886Y0317631D01*
X0283739Y0319229D02*
X0217828Y0319229D01*
X0220073Y0320828D02*
X0281688Y0320828D01*
X0280809Y0322426D02*
X0220981Y0322426D01*
X0221300Y0324025D02*
X0280500Y0324025D01*
X0280663Y0325623D02*
X0221168Y0325623D01*
X0220506Y0327222D02*
X0281361Y0327222D01*
X0282934Y0328820D02*
X0218815Y0328820D01*
X0219664Y0330419D02*
X0282336Y0330419D01*
X0281188Y0332018D02*
X0220812Y0332018D01*
X0221300Y0333616D02*
X0280700Y0333616D01*
X0280700Y0335215D02*
X0221300Y0335215D01*
X0220675Y0336813D02*
X0281325Y0336813D01*
X0282666Y0338412D02*
X0219334Y0338412D01*
X0219521Y0340010D02*
X0282745Y0340010D01*
X0281357Y0341609D02*
X0220827Y0341609D01*
X0221403Y0343207D02*
X0280700Y0343207D01*
X0280700Y0344806D02*
X0221481Y0344806D01*
X0221075Y0346404D02*
X0281156Y0346404D01*
X0282257Y0348003D02*
X0220026Y0348003D01*
X0218626Y0349601D02*
X0283374Y0349601D01*
X0281555Y0351200D02*
X0220445Y0351200D01*
X0221135Y0352798D02*
X0280865Y0352798D01*
X0280700Y0354397D02*
X0221300Y0354397D01*
X0221014Y0355995D02*
X0280986Y0355995D01*
X0281848Y0357594D02*
X0220152Y0357594D01*
X0217918Y0359192D02*
X0284082Y0359192D01*
X0287918Y0359192D02*
X0306121Y0359192D01*
X0306121Y0357594D02*
X0290152Y0357594D01*
X0291014Y0355995D02*
X0306121Y0355995D01*
X0306121Y0354397D02*
X0291300Y0354397D01*
X0291135Y0352798D02*
X0306121Y0352798D01*
X0306121Y0351200D02*
X0290445Y0351200D01*
X0288626Y0349601D02*
X0306121Y0349601D01*
X0306121Y0348003D02*
X0289743Y0348003D01*
X0290844Y0346404D02*
X0306121Y0346404D01*
X0306121Y0344806D02*
X0291300Y0344806D01*
X0291300Y0343207D02*
X0306121Y0343207D01*
X0306121Y0341609D02*
X0290643Y0341609D01*
X0289255Y0340010D02*
X0306121Y0340010D01*
X0306121Y0338412D02*
X0289334Y0338412D01*
X0290675Y0336813D02*
X0306121Y0336813D01*
X0306121Y0335215D02*
X0291300Y0335215D01*
X0291300Y0333616D02*
X0306121Y0333616D01*
X0306121Y0332018D02*
X0290812Y0332018D01*
X0289664Y0330419D02*
X0306121Y0330419D01*
X0306121Y0328820D02*
X0289066Y0328820D01*
X0290639Y0327222D02*
X0306121Y0327222D01*
X0306121Y0325623D02*
X0291337Y0325623D01*
X0291500Y0324025D02*
X0306121Y0324025D01*
X0306121Y0322426D02*
X0291191Y0322426D01*
X0290312Y0320828D02*
X0306121Y0320828D01*
X0306121Y0319229D02*
X0288261Y0319229D01*
X0290114Y0317631D02*
X0306121Y0317631D01*
X0306121Y0316032D02*
X0290998Y0316032D01*
X0291300Y0314434D02*
X0306121Y0314434D01*
X0306121Y0312835D02*
X0291151Y0312835D01*
X0290482Y0311237D02*
X0306121Y0311237D01*
X0306121Y0309638D02*
X0288716Y0309638D01*
X0289705Y0308040D02*
X0306121Y0308040D01*
X0306121Y0306441D02*
X0290829Y0306441D01*
X0291300Y0304843D02*
X0306121Y0304843D01*
X0306121Y0303244D02*
X0291300Y0303244D01*
X0290658Y0301646D02*
X0306121Y0301646D01*
X0306121Y0300047D02*
X0289293Y0300047D01*
X0289297Y0298449D02*
X0306116Y0298449D01*
X0306066Y0296850D02*
X0290660Y0296850D01*
X0291300Y0295252D02*
X0306016Y0295252D01*
X0305966Y0293653D02*
X0291300Y0293653D01*
X0290827Y0292055D02*
X0305916Y0292055D01*
X0305866Y0290456D02*
X0289702Y0290456D01*
X0288726Y0288858D02*
X0305816Y0288858D01*
X0305766Y0287259D02*
X0290486Y0287259D01*
X0291152Y0285661D02*
X0305716Y0285661D01*
X0305666Y0284062D02*
X0291300Y0284062D01*
X0290997Y0282464D02*
X0305616Y0282464D01*
X0305566Y0280865D02*
X0290110Y0280865D01*
X0287819Y0279267D02*
X0305516Y0279267D01*
X0305466Y0277668D02*
X0290077Y0277668D01*
X0290983Y0276070D02*
X0305416Y0276070D01*
X0305366Y0274471D02*
X0291300Y0274471D01*
X0291166Y0272873D02*
X0305316Y0272873D01*
X0305266Y0271274D02*
X0290504Y0271274D01*
X0288806Y0269676D02*
X0305216Y0269676D01*
X0305166Y0268077D02*
X0289668Y0268077D01*
X0290814Y0266479D02*
X0305117Y0266479D01*
X0305067Y0264880D02*
X0291300Y0264880D01*
X0291300Y0263282D02*
X0305017Y0263282D01*
X0304967Y0261683D02*
X0290673Y0261683D01*
X0289330Y0260084D02*
X0304917Y0260084D01*
X0304867Y0258486D02*
X0289259Y0258486D01*
X0290644Y0256887D02*
X0304817Y0256887D01*
X0304767Y0255289D02*
X0291300Y0255289D01*
X0282741Y0258486D02*
X0219259Y0258486D01*
X0219330Y0260084D02*
X0282670Y0260084D01*
X0281327Y0261683D02*
X0220673Y0261683D01*
X0221300Y0263282D02*
X0280700Y0263282D01*
X0280700Y0264880D02*
X0221300Y0264880D01*
X0220814Y0266479D02*
X0281186Y0266479D01*
X0282332Y0268077D02*
X0219668Y0268077D01*
X0218806Y0269676D02*
X0283194Y0269676D01*
X0281496Y0271274D02*
X0220504Y0271274D01*
X0221166Y0272873D02*
X0280834Y0272873D01*
X0280700Y0274471D02*
X0221300Y0274471D01*
X0220983Y0276070D02*
X0281017Y0276070D01*
X0281923Y0277668D02*
X0220077Y0277668D01*
X0217819Y0279267D02*
X0284181Y0279267D01*
X0281890Y0280865D02*
X0220110Y0280865D01*
X0220997Y0282464D02*
X0281003Y0282464D01*
X0280700Y0284062D02*
X0221300Y0284062D01*
X0221152Y0285661D02*
X0280848Y0285661D01*
X0281514Y0287259D02*
X0220486Y0287259D01*
X0218726Y0288858D02*
X0283274Y0288858D01*
X0282298Y0290456D02*
X0219702Y0290456D01*
X0220827Y0292055D02*
X0281173Y0292055D01*
X0280700Y0293653D02*
X0221300Y0293653D01*
X0221300Y0295252D02*
X0280700Y0295252D01*
X0281340Y0296850D02*
X0220660Y0296850D01*
X0219297Y0298449D02*
X0282703Y0298449D01*
X0282707Y0300047D02*
X0219293Y0300047D01*
X0220658Y0301646D02*
X0281342Y0301646D01*
X0280700Y0303244D02*
X0221300Y0303244D01*
X0221300Y0304843D02*
X0280700Y0304843D01*
X0281171Y0306441D02*
X0220829Y0306441D01*
X0214172Y0319229D02*
X0196200Y0319229D01*
X0195800Y0319229D02*
X0160800Y0319229D01*
X0151200Y0327222D02*
X0137474Y0327222D01*
X0136636Y0328820D02*
X0151200Y0328820D01*
X0151200Y0330419D02*
X0134711Y0330419D01*
X0136263Y0332018D02*
X0151200Y0332018D01*
X0151200Y0333616D02*
X0137206Y0333616D01*
X0137550Y0335215D02*
X0151200Y0335215D01*
X0151200Y0336813D02*
X0137443Y0336813D01*
X0136781Y0338412D02*
X0151200Y0338412D01*
X0151200Y0340010D02*
X0135211Y0340010D01*
X0135854Y0341609D02*
X0151200Y0341609D01*
X0151200Y0343207D02*
X0137037Y0343207D01*
X0137550Y0344806D02*
X0151200Y0344806D01*
X0151200Y0346404D02*
X0137550Y0346404D01*
X0136950Y0348003D02*
X0151200Y0348003D01*
X0151200Y0349601D02*
X0135644Y0349601D01*
X0135445Y0351200D02*
X0151200Y0351200D01*
X0151200Y0352798D02*
X0136868Y0352798D01*
X0137530Y0354397D02*
X0151200Y0354397D01*
X0151200Y0355995D02*
X0137550Y0355995D01*
X0137119Y0357594D02*
X0151200Y0357594D01*
X0151200Y0359192D02*
X0136053Y0359192D01*
X0133327Y0360791D02*
X0142144Y0360791D01*
X0140028Y0362389D02*
X0018222Y0362389D01*
X0019580Y0363988D02*
X0138670Y0363988D01*
X0137747Y0365586D02*
X0020503Y0365586D01*
X0020988Y0367185D02*
X0137262Y0367185D01*
X0136938Y0368783D02*
X0021312Y0368783D01*
X0021312Y0370382D02*
X0136938Y0370382D01*
X0137172Y0371980D02*
X0021078Y0371980D01*
X0020650Y0373579D02*
X0137600Y0373579D01*
X0131173Y0360791D02*
X0063327Y0360791D01*
X0061173Y0360791D02*
X0016106Y0360791D01*
X0005894Y0360791D02*
X0005800Y0360791D01*
X0005800Y0359192D02*
X0058447Y0359192D01*
X0057381Y0357594D02*
X0005800Y0357594D01*
X0005800Y0355995D02*
X0056950Y0355995D01*
X0056970Y0354397D02*
X0005800Y0354397D01*
X0005800Y0352798D02*
X0057632Y0352798D01*
X0059055Y0351200D02*
X0040640Y0351200D01*
X0040624Y0351222D02*
X0040159Y0351687D01*
X0039627Y0352073D01*
X0039041Y0352372D01*
X0038415Y0352575D01*
X0037766Y0352678D01*
X0037437Y0352678D01*
X0037108Y0352678D01*
X0036459Y0352575D01*
X0035833Y0352372D01*
X0035247Y0352073D01*
X0034715Y0351687D01*
X0034250Y0351222D01*
X0033864Y0350690D01*
X0033565Y0350104D01*
X0033407Y0349616D01*
X0032935Y0350753D01*
X0031816Y0351872D01*
X0030354Y0352478D01*
X0028772Y0352478D01*
X0027310Y0351872D01*
X0026191Y0350753D01*
X0025585Y0349291D01*
X0025585Y0347709D01*
X0026191Y0346247D01*
X0027310Y0345128D01*
X0028772Y0344522D01*
X0030354Y0344522D01*
X0031816Y0345128D01*
X0032935Y0346247D01*
X0033407Y0347384D01*
X0033565Y0346896D01*
X0033864Y0346310D01*
X0034250Y0345778D01*
X0034715Y0345313D01*
X0035247Y0344927D01*
X0035833Y0344628D01*
X0036459Y0344425D01*
X0037108Y0344322D01*
X0037437Y0344322D01*
X0037766Y0344322D01*
X0038415Y0344425D01*
X0039041Y0344628D01*
X0039627Y0344927D01*
X0040159Y0345313D01*
X0040624Y0345778D01*
X0041010Y0346310D01*
X0041309Y0346896D01*
X0041512Y0347522D01*
X0041615Y0348171D01*
X0041615Y0348500D01*
X0041615Y0348829D01*
X0041512Y0349478D01*
X0041309Y0350104D01*
X0041010Y0350690D01*
X0040624Y0351222D01*
X0041472Y0349601D02*
X0058573Y0349601D01*
X0057352Y0348003D02*
X0041588Y0348003D01*
X0041615Y0348500D02*
X0037437Y0348500D01*
X0041615Y0348500D01*
X0041058Y0346404D02*
X0056825Y0346404D01*
X0056791Y0344806D02*
X0039389Y0344806D01*
X0037437Y0344806D02*
X0037437Y0344806D01*
X0037437Y0344322D02*
X0037437Y0348500D01*
X0037437Y0348500D01*
X0037437Y0352678D01*
X0037437Y0348500D01*
X0037437Y0348500D01*
X0037437Y0348500D01*
X0037437Y0344322D01*
X0035485Y0344806D02*
X0031039Y0344806D01*
X0033001Y0346404D02*
X0033816Y0346404D01*
X0037437Y0346404D02*
X0037437Y0346404D01*
X0037437Y0348003D02*
X0037437Y0348003D01*
X0037437Y0349601D02*
X0037437Y0349601D01*
X0037437Y0351200D02*
X0037437Y0351200D01*
X0034234Y0351200D02*
X0032489Y0351200D01*
X0026637Y0351200D02*
X0005800Y0351200D01*
X0005800Y0349601D02*
X0025713Y0349601D01*
X0025585Y0348003D02*
X0005800Y0348003D01*
X0005800Y0346404D02*
X0026125Y0346404D01*
X0028087Y0344806D02*
X0005800Y0344806D01*
X0005800Y0343207D02*
X0057245Y0343207D01*
X0058363Y0341609D02*
X0005800Y0341609D01*
X0005800Y0340010D02*
X0059289Y0340010D01*
X0057719Y0338412D02*
X0005800Y0338412D01*
X0005800Y0336813D02*
X0057057Y0336813D01*
X0056950Y0335215D02*
X0005800Y0335215D01*
X0005800Y0333616D02*
X0037871Y0333616D01*
X0037998Y0333743D02*
X0036507Y0332252D01*
X0035700Y0330304D01*
X0035700Y0328196D01*
X0036507Y0326248D01*
X0037998Y0324757D01*
X0038944Y0324365D01*
X0038889Y0324347D01*
X0038117Y0323954D01*
X0037417Y0323445D01*
X0036805Y0322833D01*
X0036296Y0322133D01*
X0035903Y0321361D01*
X0035635Y0320538D01*
X0035500Y0319683D01*
X0035500Y0319450D01*
X0040800Y0319450D01*
X0040800Y0319050D01*
X0035500Y0319050D01*
X0035500Y0318817D01*
X0035635Y0317962D01*
X0035903Y0317139D01*
X0036296Y0316367D01*
X0036805Y0315667D01*
X0037417Y0315055D01*
X0038117Y0314546D01*
X0038889Y0314153D01*
X0038944Y0314135D01*
X0037998Y0313743D01*
X0036507Y0312252D01*
X0035700Y0310304D01*
X0035700Y0308196D01*
X0036507Y0306248D01*
X0037998Y0304757D01*
X0039946Y0303950D01*
X0042054Y0303950D01*
X0044002Y0304757D01*
X0045493Y0306248D01*
X0046300Y0308196D01*
X0046300Y0310304D01*
X0045493Y0312252D01*
X0044002Y0313743D01*
X0043056Y0314135D01*
X0043111Y0314153D01*
X0043883Y0314546D01*
X0044583Y0315055D01*
X0045195Y0315667D01*
X0045704Y0316367D01*
X0046097Y0317139D01*
X0046365Y0317962D01*
X0046500Y0318817D01*
X0046500Y0319050D01*
X0041200Y0319050D01*
X0041200Y0319450D01*
X0046500Y0319450D01*
X0046500Y0319683D01*
X0046365Y0320538D01*
X0046097Y0321361D01*
X0045704Y0322133D01*
X0045195Y0322833D01*
X0044583Y0323445D01*
X0043883Y0323954D01*
X0043111Y0324347D01*
X0043056Y0324365D01*
X0044002Y0324757D01*
X0045493Y0326248D01*
X0046300Y0328196D01*
X0046300Y0330304D01*
X0045493Y0332252D01*
X0044002Y0333743D01*
X0042054Y0334550D01*
X0039946Y0334550D01*
X0037998Y0333743D01*
X0036410Y0332018D02*
X0005800Y0332018D01*
X0005800Y0330419D02*
X0035748Y0330419D01*
X0035700Y0328820D02*
X0005800Y0328820D01*
X0005800Y0327222D02*
X0036103Y0327222D01*
X0037131Y0325623D02*
X0005800Y0325623D01*
X0005800Y0324025D02*
X0038257Y0324025D01*
X0036509Y0322426D02*
X0005800Y0322426D01*
X0005800Y0320828D02*
X0035730Y0320828D01*
X0035743Y0317631D02*
X0005800Y0317631D01*
X0005800Y0319229D02*
X0040800Y0319229D01*
X0041200Y0319229D02*
X0058484Y0319229D01*
X0057396Y0317631D02*
X0046257Y0317631D01*
X0045461Y0316032D02*
X0056950Y0316032D01*
X0056955Y0314434D02*
X0043663Y0314434D01*
X0044910Y0312835D02*
X0057617Y0312835D01*
X0059018Y0311237D02*
X0045914Y0311237D01*
X0046300Y0309638D02*
X0058893Y0309638D01*
X0057565Y0308040D02*
X0046235Y0308040D01*
X0045573Y0306441D02*
X0056950Y0306441D01*
X0056950Y0304843D02*
X0044088Y0304843D01*
X0037912Y0304843D02*
X0005800Y0304843D01*
X0005800Y0306441D02*
X0036427Y0306441D01*
X0035765Y0308040D02*
X0005800Y0308040D01*
X0005800Y0309638D02*
X0035700Y0309638D01*
X0036086Y0311237D02*
X0005800Y0311237D01*
X0005800Y0312835D02*
X0037090Y0312835D01*
X0038337Y0314434D02*
X0005800Y0314434D01*
X0005800Y0316032D02*
X0036539Y0316032D01*
X0043743Y0324025D02*
X0057124Y0324025D01*
X0056950Y0325623D02*
X0044869Y0325623D01*
X0045897Y0327222D02*
X0057227Y0327222D01*
X0058075Y0328820D02*
X0046300Y0328820D01*
X0046252Y0330419D02*
X0060276Y0330419D01*
X0058237Y0332018D02*
X0045590Y0332018D01*
X0044129Y0333616D02*
X0057294Y0333616D01*
X0064224Y0330419D02*
X0129789Y0330419D01*
X0128237Y0332018D02*
X0066263Y0332018D01*
X0067206Y0333616D02*
X0127294Y0333616D01*
X0126950Y0335215D02*
X0067550Y0335215D01*
X0067443Y0336813D02*
X0127057Y0336813D01*
X0127719Y0338412D02*
X0066781Y0338412D01*
X0065211Y0340010D02*
X0129289Y0340010D01*
X0128646Y0341609D02*
X0066137Y0341609D01*
X0067254Y0343207D02*
X0127463Y0343207D01*
X0126950Y0344806D02*
X0067709Y0344806D01*
X0067675Y0346404D02*
X0126950Y0346404D01*
X0127550Y0348003D02*
X0067148Y0348003D01*
X0065927Y0349601D02*
X0128856Y0349601D01*
X0129055Y0351200D02*
X0065445Y0351200D01*
X0066868Y0352798D02*
X0127632Y0352798D01*
X0126970Y0354397D02*
X0067530Y0354397D01*
X0067550Y0355995D02*
X0126950Y0355995D01*
X0127381Y0357594D02*
X0067119Y0357594D01*
X0066053Y0359192D02*
X0128447Y0359192D01*
X0160840Y0359192D02*
X0214082Y0359192D01*
X0211848Y0357594D02*
X0160823Y0357594D01*
X0160807Y0355995D02*
X0210986Y0355995D01*
X0210700Y0354397D02*
X0160800Y0354397D01*
X0160800Y0352798D02*
X0210865Y0352798D01*
X0211555Y0351200D02*
X0196301Y0351200D01*
X0196541Y0351122D02*
X0195915Y0351325D01*
X0195266Y0351428D01*
X0194937Y0351428D01*
X0194608Y0351428D01*
X0193959Y0351325D01*
X0193333Y0351122D01*
X0192747Y0350823D01*
X0192215Y0350437D01*
X0191750Y0349972D01*
X0191364Y0349440D01*
X0191065Y0348854D01*
X0190907Y0348366D01*
X0190435Y0349503D01*
X0189316Y0350622D01*
X0187854Y0351228D01*
X0186272Y0351228D01*
X0184810Y0350622D01*
X0183691Y0349503D01*
X0183085Y0348041D01*
X0183085Y0346459D01*
X0183691Y0344997D01*
X0184810Y0343878D01*
X0186272Y0343272D01*
X0187854Y0343272D01*
X0189316Y0343878D01*
X0190435Y0344997D01*
X0190907Y0346134D01*
X0191065Y0345646D01*
X0191364Y0345060D01*
X0191750Y0344528D01*
X0192215Y0344063D01*
X0192747Y0343677D01*
X0193333Y0343378D01*
X0193959Y0343175D01*
X0194608Y0343072D01*
X0194937Y0343072D01*
X0195266Y0343072D01*
X0195915Y0343175D01*
X0196541Y0343378D01*
X0197127Y0343677D01*
X0197659Y0344063D01*
X0198124Y0344528D01*
X0198510Y0345060D01*
X0198809Y0345646D01*
X0199012Y0346272D01*
X0199115Y0346921D01*
X0199115Y0347250D01*
X0199115Y0347579D01*
X0199012Y0348228D01*
X0198809Y0348854D01*
X0198510Y0349440D01*
X0198124Y0349972D01*
X0197659Y0350437D01*
X0197127Y0350823D01*
X0196541Y0351122D01*
X0194937Y0351200D02*
X0194937Y0351200D01*
X0194937Y0351428D02*
X0194937Y0347250D01*
X0199115Y0347250D01*
X0194937Y0347250D01*
X0194937Y0347250D01*
X0194937Y0347250D01*
X0194937Y0351428D01*
X0193573Y0351200D02*
X0187923Y0351200D01*
X0186203Y0351200D02*
X0160800Y0351200D01*
X0160800Y0349601D02*
X0183788Y0349601D01*
X0183085Y0348003D02*
X0160800Y0348003D01*
X0160800Y0346404D02*
X0183108Y0346404D01*
X0183882Y0344806D02*
X0160800Y0344806D01*
X0160800Y0343207D02*
X0193860Y0343207D01*
X0194937Y0343207D02*
X0194937Y0343207D01*
X0194937Y0343072D02*
X0194937Y0347250D01*
X0194937Y0347250D01*
X0194937Y0343072D01*
X0196014Y0343207D02*
X0210597Y0343207D01*
X0210519Y0344806D02*
X0198325Y0344806D01*
X0199033Y0346404D02*
X0210925Y0346404D01*
X0211974Y0348003D02*
X0199048Y0348003D01*
X0198393Y0349601D02*
X0213374Y0349601D01*
X0211173Y0341609D02*
X0160800Y0341609D01*
X0160800Y0340010D02*
X0212479Y0340010D01*
X0212666Y0338412D02*
X0160800Y0338412D01*
X0160800Y0336813D02*
X0211325Y0336813D01*
X0194937Y0344806D02*
X0194937Y0344806D01*
X0194937Y0346404D02*
X0194937Y0346404D01*
X0194937Y0348003D02*
X0194937Y0348003D01*
X0194937Y0349601D02*
X0194937Y0349601D01*
X0191481Y0349601D02*
X0190338Y0349601D01*
X0190244Y0344806D02*
X0191549Y0344806D01*
X0171972Y0362389D02*
X0293778Y0362389D01*
X0292420Y0363988D02*
X0173330Y0363988D01*
X0174253Y0365586D02*
X0291497Y0365586D01*
X0291012Y0367185D02*
X0174738Y0367185D01*
X0175062Y0368783D02*
X0290688Y0368783D01*
X0290688Y0370382D02*
X0175062Y0370382D01*
X0174828Y0371980D02*
X0290922Y0371980D01*
X0291350Y0373579D02*
X0174400Y0373579D01*
X0169856Y0360791D02*
X0295894Y0360791D01*
X0306106Y0360791D02*
X0306121Y0360791D01*
X0315721Y0360791D02*
X0315894Y0360791D01*
X0315721Y0360891D02*
X0317020Y0360141D01*
X0319642Y0359438D01*
X0322358Y0359438D01*
X0324980Y0360141D01*
X0327332Y0361498D01*
X0329251Y0363418D01*
X0330609Y0365770D01*
X0331312Y0368392D01*
X0331312Y0371108D01*
X0330630Y0373651D01*
X0447620Y0373651D01*
X0446938Y0371108D01*
X0446938Y0368392D01*
X0447641Y0365770D01*
X0448998Y0363418D01*
X0450918Y0361498D01*
X0453270Y0360141D01*
X0455892Y0359438D01*
X0458608Y0359438D01*
X0461121Y0360112D01*
X0461121Y0265263D01*
X0461000Y0253500D01*
X0448408Y0253500D01*
X0448800Y0254446D01*
X0448800Y0256554D01*
X0447993Y0258502D01*
X0446502Y0259993D01*
X0445278Y0260500D01*
X0446502Y0261007D01*
X0447993Y0262498D01*
X0448800Y0264446D01*
X0448800Y0266554D01*
X0447993Y0268502D01*
X0446502Y0269993D01*
X0445278Y0270500D01*
X0446502Y0271007D01*
X0447993Y0272498D01*
X0448800Y0274446D01*
X0448800Y0276554D01*
X0447993Y0278502D01*
X0446502Y0279993D01*
X0445278Y0280500D01*
X0446502Y0281007D01*
X0447993Y0282498D01*
X0448800Y0284446D01*
X0448800Y0286554D01*
X0447993Y0288502D01*
X0446502Y0289993D01*
X0445278Y0290500D01*
X0446502Y0291007D01*
X0447993Y0292498D01*
X0448800Y0294446D01*
X0448800Y0296554D01*
X0447993Y0298502D01*
X0446502Y0299993D01*
X0445278Y0300500D01*
X0446502Y0301007D01*
X0447993Y0302498D01*
X0448800Y0304446D01*
X0448800Y0306554D01*
X0447993Y0308502D01*
X0446502Y0309993D01*
X0445278Y0310500D01*
X0446502Y0311007D01*
X0447993Y0312498D01*
X0448800Y0314446D01*
X0448800Y0316554D01*
X0447993Y0318502D01*
X0446502Y0319993D01*
X0445556Y0320385D01*
X0445611Y0320403D01*
X0446383Y0320796D01*
X0447083Y0321305D01*
X0447695Y0321917D01*
X0448204Y0322617D01*
X0448597Y0323389D01*
X0448865Y0324212D01*
X0449000Y0325067D01*
X0449000Y0325300D01*
X0443700Y0325300D01*
X0443700Y0325700D01*
X0449000Y0325700D01*
X0449000Y0325933D01*
X0448865Y0326788D01*
X0448597Y0327611D01*
X0448204Y0328383D01*
X0447695Y0329083D01*
X0447083Y0329695D01*
X0446383Y0330204D01*
X0445611Y0330597D01*
X0445556Y0330615D01*
X0446502Y0331007D01*
X0447993Y0332498D01*
X0448800Y0334446D01*
X0448800Y0336554D01*
X0447993Y0338502D01*
X0446502Y0339993D01*
X0445278Y0340500D01*
X0446502Y0341007D01*
X0447993Y0342498D01*
X0448800Y0344446D01*
X0448800Y0346554D01*
X0447993Y0348502D01*
X0446502Y0349993D01*
X0445278Y0350500D01*
X0446502Y0351007D01*
X0447993Y0352498D01*
X0448800Y0354446D01*
X0448800Y0356554D01*
X0447993Y0358502D01*
X0446502Y0359993D01*
X0444554Y0360800D01*
X0442446Y0360800D01*
X0440498Y0359993D01*
X0439007Y0358502D01*
X0438200Y0356554D01*
X0438200Y0354446D01*
X0439007Y0352498D01*
X0440498Y0351007D01*
X0441722Y0350500D01*
X0440498Y0349993D01*
X0439007Y0348502D01*
X0438200Y0346554D01*
X0438200Y0344446D01*
X0439007Y0342498D01*
X0440498Y0341007D01*
X0441722Y0340500D01*
X0440498Y0339993D01*
X0439007Y0338502D01*
X0438200Y0336554D01*
X0438200Y0334446D01*
X0439007Y0332498D01*
X0440498Y0331007D01*
X0441444Y0330615D01*
X0441389Y0330597D01*
X0440617Y0330204D01*
X0439917Y0329695D01*
X0439305Y0329083D01*
X0438796Y0328383D01*
X0438403Y0327611D01*
X0438135Y0326788D01*
X0438000Y0325933D01*
X0438000Y0325700D01*
X0443300Y0325700D01*
X0443300Y0325300D01*
X0438000Y0325300D01*
X0438000Y0325067D01*
X0438135Y0324212D01*
X0438403Y0323389D01*
X0438796Y0322617D01*
X0439305Y0321917D01*
X0439917Y0321305D01*
X0440617Y0320796D01*
X0441389Y0320403D01*
X0441444Y0320385D01*
X0440498Y0319993D01*
X0439007Y0318502D01*
X0438200Y0316554D01*
X0438200Y0314446D01*
X0439007Y0312498D01*
X0440498Y0311007D01*
X0441722Y0310500D01*
X0440498Y0309993D01*
X0439007Y0308502D01*
X0438200Y0306554D01*
X0438200Y0304446D01*
X0439007Y0302498D01*
X0440498Y0301007D01*
X0441722Y0300500D01*
X0440498Y0299993D01*
X0439007Y0298502D01*
X0438200Y0296554D01*
X0438200Y0294446D01*
X0439007Y0292498D01*
X0440498Y0291007D01*
X0441722Y0290500D01*
X0440498Y0289993D01*
X0439007Y0288502D01*
X0438200Y0286554D01*
X0438200Y0284446D01*
X0439007Y0282498D01*
X0440498Y0281007D01*
X0441722Y0280500D01*
X0440498Y0279993D01*
X0439007Y0278502D01*
X0438200Y0276554D01*
X0438200Y0274446D01*
X0439007Y0272498D01*
X0440498Y0271007D01*
X0441722Y0270500D01*
X0440498Y0269993D01*
X0439007Y0268502D01*
X0438200Y0266554D01*
X0438200Y0264446D01*
X0439007Y0262498D01*
X0440498Y0261007D01*
X0441722Y0260500D01*
X0440498Y0259993D01*
X0439007Y0258502D01*
X0438200Y0256554D01*
X0438200Y0254446D01*
X0438592Y0253500D01*
X0378408Y0253500D01*
X0378800Y0254446D01*
X0378800Y0256554D01*
X0377993Y0258502D01*
X0376502Y0259993D01*
X0375278Y0260500D01*
X0376502Y0261007D01*
X0377993Y0262498D01*
X0378800Y0264446D01*
X0378800Y0266554D01*
X0377993Y0268502D01*
X0376502Y0269993D01*
X0375278Y0270500D01*
X0376502Y0271007D01*
X0377993Y0272498D01*
X0378800Y0274446D01*
X0378800Y0276554D01*
X0377993Y0278502D01*
X0376502Y0279993D01*
X0375278Y0280500D01*
X0376502Y0281007D01*
X0377993Y0282498D01*
X0378800Y0284446D01*
X0378800Y0286554D01*
X0377993Y0288502D01*
X0376502Y0289993D01*
X0375278Y0290500D01*
X0376502Y0291007D01*
X0377993Y0292498D01*
X0378800Y0294446D01*
X0378800Y0296554D01*
X0377993Y0298502D01*
X0376502Y0299993D01*
X0375278Y0300500D01*
X0376502Y0301007D01*
X0377993Y0302498D01*
X0378800Y0304446D01*
X0378800Y0306554D01*
X0377993Y0308502D01*
X0376502Y0309993D01*
X0375278Y0310500D01*
X0376502Y0311007D01*
X0377993Y0312498D01*
X0378800Y0314446D01*
X0378800Y0316554D01*
X0377993Y0318502D01*
X0376502Y0319993D01*
X0375278Y0320500D01*
X0376502Y0321007D01*
X0377993Y0322498D01*
X0378800Y0324446D01*
X0378800Y0326554D01*
X0377993Y0328502D01*
X0376502Y0329993D01*
X0375278Y0330500D01*
X0376502Y0331007D01*
X0377993Y0332498D01*
X0378800Y0334446D01*
X0378800Y0336554D01*
X0377993Y0338502D01*
X0376502Y0339993D01*
X0375556Y0340385D01*
X0375611Y0340403D01*
X0376383Y0340796D01*
X0377083Y0341305D01*
X0377695Y0341917D01*
X0378204Y0342617D01*
X0378597Y0343389D01*
X0378865Y0344212D01*
X0379000Y0345067D01*
X0379000Y0345300D01*
X0373700Y0345300D01*
X0373700Y0345700D01*
X0379000Y0345700D01*
X0379000Y0345933D01*
X0378865Y0346788D01*
X0378597Y0347611D01*
X0378204Y0348383D01*
X0377695Y0349083D01*
X0377083Y0349695D01*
X0376383Y0350204D01*
X0375611Y0350597D01*
X0375556Y0350615D01*
X0376502Y0351007D01*
X0377993Y0352498D01*
X0378800Y0354446D01*
X0378800Y0356554D01*
X0377993Y0358502D01*
X0376502Y0359993D01*
X0374554Y0360800D01*
X0372446Y0360800D01*
X0370498Y0359993D01*
X0369007Y0358502D01*
X0368200Y0356554D01*
X0368200Y0354446D01*
X0369007Y0352498D01*
X0370498Y0351007D01*
X0371444Y0350615D01*
X0371389Y0350597D01*
X0370617Y0350204D01*
X0369917Y0349695D01*
X0369305Y0349083D01*
X0368796Y0348383D01*
X0368403Y0347611D01*
X0368135Y0346788D01*
X0368000Y0345933D01*
X0368000Y0345700D01*
X0373300Y0345700D01*
X0373300Y0345300D01*
X0368000Y0345300D01*
X0368000Y0345067D01*
X0368135Y0344212D01*
X0368403Y0343389D01*
X0368796Y0342617D01*
X0369305Y0341917D01*
X0369917Y0341305D01*
X0370617Y0340796D01*
X0371389Y0340403D01*
X0371444Y0340385D01*
X0370498Y0339993D01*
X0369007Y0338502D01*
X0368200Y0336554D01*
X0368200Y0334446D01*
X0369007Y0332498D01*
X0370498Y0331007D01*
X0371722Y0330500D01*
X0370498Y0329993D01*
X0369007Y0328502D01*
X0368200Y0326554D01*
X0368200Y0324446D01*
X0369007Y0322498D01*
X0370498Y0321007D01*
X0371722Y0320500D01*
X0370498Y0319993D01*
X0369007Y0318502D01*
X0368200Y0316554D01*
X0368200Y0314446D01*
X0369007Y0312498D01*
X0370498Y0311007D01*
X0371722Y0310500D01*
X0370498Y0309993D01*
X0369007Y0308502D01*
X0368200Y0306554D01*
X0368200Y0304446D01*
X0369007Y0302498D01*
X0370498Y0301007D01*
X0371722Y0300500D01*
X0370498Y0299993D01*
X0369007Y0298502D01*
X0368200Y0296554D01*
X0368200Y0294446D01*
X0369007Y0292498D01*
X0370498Y0291007D01*
X0371722Y0290500D01*
X0370498Y0289993D01*
X0369007Y0288502D01*
X0368200Y0286554D01*
X0368200Y0284446D01*
X0369007Y0282498D01*
X0370498Y0281007D01*
X0371722Y0280500D01*
X0370498Y0279993D01*
X0369007Y0278502D01*
X0368200Y0276554D01*
X0368200Y0274446D01*
X0369007Y0272498D01*
X0370498Y0271007D01*
X0371722Y0270500D01*
X0370498Y0269993D01*
X0369007Y0268502D01*
X0368200Y0266554D01*
X0368200Y0264446D01*
X0369007Y0262498D01*
X0370498Y0261007D01*
X0371722Y0260500D01*
X0370498Y0259993D01*
X0369007Y0258502D01*
X0368200Y0256554D01*
X0368200Y0254446D01*
X0368457Y0253824D01*
X0368320Y0246845D01*
X0368200Y0246554D01*
X0368200Y0244446D01*
X0368270Y0244276D01*
X0367295Y0194550D01*
X0329702Y0194550D01*
X0330062Y0195892D01*
X0330062Y0198608D01*
X0329359Y0201230D01*
X0328001Y0203582D01*
X0326082Y0205501D01*
X0323730Y0206859D01*
X0321108Y0207562D01*
X0318392Y0207562D01*
X0315770Y0206859D01*
X0315721Y0206831D01*
X0315721Y0254800D01*
X0343077Y0255422D01*
X0342813Y0255159D01*
X0342427Y0254627D01*
X0342128Y0254041D01*
X0341925Y0253415D01*
X0341822Y0252766D01*
X0341822Y0252437D01*
X0341822Y0252108D01*
X0341925Y0251459D01*
X0342128Y0250833D01*
X0342427Y0250247D01*
X0342813Y0249715D01*
X0343278Y0249250D01*
X0343810Y0248864D01*
X0344396Y0248565D01*
X0344884Y0248407D01*
X0343747Y0247935D01*
X0342628Y0246816D01*
X0342022Y0245354D01*
X0342022Y0243772D01*
X0342628Y0242310D01*
X0343747Y0241191D01*
X0345110Y0240626D01*
X0343747Y0240061D01*
X0342628Y0238942D01*
X0342022Y0237480D01*
X0342022Y0235898D01*
X0342628Y0234436D01*
X0343747Y0233317D01*
X0345209Y0232711D01*
X0346791Y0232711D01*
X0348253Y0233317D01*
X0349372Y0234436D01*
X0349978Y0235898D01*
X0349978Y0237480D01*
X0349372Y0238942D01*
X0348253Y0240061D01*
X0346890Y0240626D01*
X0348253Y0241191D01*
X0349372Y0242310D01*
X0349978Y0243772D01*
X0349978Y0245354D01*
X0349372Y0246816D01*
X0348253Y0247935D01*
X0347116Y0248407D01*
X0347604Y0248565D01*
X0348190Y0248864D01*
X0348722Y0249250D01*
X0349187Y0249715D01*
X0349573Y0250247D01*
X0349872Y0250833D01*
X0350075Y0251459D01*
X0350178Y0252108D01*
X0350178Y0252437D01*
X0350178Y0252766D01*
X0350075Y0253415D01*
X0349872Y0254041D01*
X0349573Y0254627D01*
X0349187Y0255159D01*
X0348793Y0255552D01*
X0368200Y0255993D01*
X0368200Y0254446D01*
X0368592Y0253500D01*
X0350048Y0253500D01*
X0349872Y0254041D01*
X0349573Y0254627D01*
X0349187Y0255159D01*
X0348722Y0255624D01*
X0348190Y0256010D01*
X0347604Y0256309D01*
X0347116Y0256467D01*
X0348253Y0256939D01*
X0349372Y0258058D01*
X0349978Y0259520D01*
X0349978Y0261102D01*
X0349372Y0262564D01*
X0348253Y0263683D01*
X0346791Y0264289D01*
X0345209Y0264289D01*
X0343747Y0263683D01*
X0342628Y0262564D01*
X0342022Y0261102D01*
X0342022Y0259520D01*
X0342628Y0258058D01*
X0343747Y0256939D01*
X0344884Y0256467D01*
X0344396Y0256309D01*
X0343810Y0256010D01*
X0343278Y0255624D01*
X0342813Y0255159D01*
X0342427Y0254627D01*
X0342128Y0254041D01*
X0341952Y0253500D01*
X0315721Y0253500D01*
X0315721Y0360891D01*
X0315721Y0359192D02*
X0369697Y0359192D01*
X0368631Y0357594D02*
X0315721Y0357594D01*
X0315721Y0355995D02*
X0368200Y0355995D01*
X0368220Y0354397D02*
X0315721Y0354397D01*
X0315721Y0352798D02*
X0368882Y0352798D01*
X0370305Y0351200D02*
X0351890Y0351200D01*
X0351874Y0351222D02*
X0351409Y0351687D01*
X0350877Y0352073D01*
X0350291Y0352372D01*
X0349665Y0352575D01*
X0349016Y0352678D01*
X0348687Y0352678D01*
X0348358Y0352678D01*
X0347709Y0352575D01*
X0347083Y0352372D01*
X0346497Y0352073D01*
X0345965Y0351687D01*
X0345500Y0351222D01*
X0345114Y0350690D01*
X0344815Y0350104D01*
X0344657Y0349616D01*
X0344185Y0350753D01*
X0343066Y0351872D01*
X0341604Y0352478D01*
X0340022Y0352478D01*
X0338560Y0351872D01*
X0337441Y0350753D01*
X0336835Y0349291D01*
X0336835Y0347709D01*
X0337441Y0346247D01*
X0338560Y0345128D01*
X0340022Y0344522D01*
X0341604Y0344522D01*
X0343066Y0345128D01*
X0344185Y0346247D01*
X0344657Y0347384D01*
X0344815Y0346896D01*
X0345114Y0346310D01*
X0345500Y0345778D01*
X0345965Y0345313D01*
X0346497Y0344927D01*
X0347083Y0344628D01*
X0347709Y0344425D01*
X0348358Y0344322D01*
X0348687Y0344322D01*
X0349016Y0344322D01*
X0349665Y0344425D01*
X0350291Y0344628D01*
X0350877Y0344927D01*
X0351409Y0345313D01*
X0351874Y0345778D01*
X0352260Y0346310D01*
X0352559Y0346896D01*
X0352762Y0347522D01*
X0352865Y0348171D01*
X0352865Y0348500D01*
X0352865Y0348829D01*
X0352762Y0349478D01*
X0352559Y0350104D01*
X0352260Y0350690D01*
X0351874Y0351222D01*
X0352722Y0349601D02*
X0369823Y0349601D01*
X0368602Y0348003D02*
X0352838Y0348003D01*
X0352865Y0348500D02*
X0348687Y0348500D01*
X0352865Y0348500D01*
X0352308Y0346404D02*
X0368075Y0346404D01*
X0368041Y0344806D02*
X0350639Y0344806D01*
X0348687Y0344806D02*
X0348687Y0344806D01*
X0348687Y0344322D02*
X0348687Y0348500D01*
X0348687Y0348500D01*
X0348687Y0352678D01*
X0348687Y0348500D01*
X0348687Y0348500D01*
X0348687Y0348500D01*
X0348687Y0344322D01*
X0346735Y0344806D02*
X0342289Y0344806D01*
X0344251Y0346404D02*
X0345066Y0346404D01*
X0348687Y0346404D02*
X0348687Y0346404D01*
X0348687Y0348003D02*
X0348687Y0348003D01*
X0348687Y0349601D02*
X0348687Y0349601D01*
X0348687Y0351200D02*
X0348687Y0351200D01*
X0345484Y0351200D02*
X0343739Y0351200D01*
X0337887Y0351200D02*
X0315721Y0351200D01*
X0315721Y0349601D02*
X0336963Y0349601D01*
X0336835Y0348003D02*
X0315721Y0348003D01*
X0315721Y0346404D02*
X0337375Y0346404D01*
X0339337Y0344806D02*
X0315721Y0344806D01*
X0315721Y0343207D02*
X0368495Y0343207D01*
X0369613Y0341609D02*
X0315721Y0341609D01*
X0315721Y0340010D02*
X0370539Y0340010D01*
X0368969Y0338412D02*
X0315721Y0338412D01*
X0315721Y0336813D02*
X0368307Y0336813D01*
X0368200Y0335215D02*
X0353468Y0335215D01*
X0354002Y0334993D02*
X0352054Y0335800D01*
X0349946Y0335800D01*
X0347998Y0334993D01*
X0346507Y0333502D01*
X0345700Y0331554D01*
X0345700Y0329446D01*
X0346507Y0327498D01*
X0347998Y0326007D01*
X0348944Y0325615D01*
X0348889Y0325597D01*
X0348117Y0325204D01*
X0347417Y0324695D01*
X0346805Y0324083D01*
X0346296Y0323383D01*
X0345903Y0322611D01*
X0345635Y0321788D01*
X0345500Y0320933D01*
X0345500Y0320700D01*
X0350800Y0320700D01*
X0350800Y0320300D01*
X0345500Y0320300D01*
X0345500Y0320067D01*
X0345635Y0319212D01*
X0345903Y0318389D01*
X0346296Y0317617D01*
X0346805Y0316917D01*
X0347417Y0316305D01*
X0348117Y0315796D01*
X0348889Y0315403D01*
X0348944Y0315385D01*
X0347998Y0314993D01*
X0346507Y0313502D01*
X0345700Y0311554D01*
X0345700Y0309446D01*
X0346507Y0307498D01*
X0347998Y0306007D01*
X0349946Y0305200D01*
X0352054Y0305200D01*
X0354002Y0306007D01*
X0355493Y0307498D01*
X0356300Y0309446D01*
X0356300Y0311554D01*
X0355493Y0313502D01*
X0354002Y0314993D01*
X0353056Y0315385D01*
X0353111Y0315403D01*
X0353883Y0315796D01*
X0354583Y0316305D01*
X0355195Y0316917D01*
X0355704Y0317617D01*
X0356097Y0318389D01*
X0356365Y0319212D01*
X0356500Y0320067D01*
X0356500Y0320300D01*
X0351200Y0320300D01*
X0351200Y0320700D01*
X0356500Y0320700D01*
X0356500Y0320933D01*
X0356365Y0321788D01*
X0356097Y0322611D01*
X0355704Y0323383D01*
X0355195Y0324083D01*
X0354583Y0324695D01*
X0353883Y0325204D01*
X0353111Y0325597D01*
X0353056Y0325615D01*
X0354002Y0326007D01*
X0355493Y0327498D01*
X0356300Y0329446D01*
X0356300Y0331554D01*
X0355493Y0333502D01*
X0354002Y0334993D01*
X0355379Y0333616D02*
X0368544Y0333616D01*
X0369487Y0332018D02*
X0356108Y0332018D01*
X0356300Y0330419D02*
X0371526Y0330419D01*
X0369325Y0328820D02*
X0356041Y0328820D01*
X0355217Y0327222D02*
X0368477Y0327222D01*
X0368200Y0325623D02*
X0353077Y0325623D01*
X0355237Y0324025D02*
X0368374Y0324025D01*
X0369078Y0322426D02*
X0356157Y0322426D01*
X0356500Y0320828D02*
X0370930Y0320828D01*
X0369734Y0319229D02*
X0356367Y0319229D01*
X0355711Y0317631D02*
X0368646Y0317631D01*
X0368200Y0316032D02*
X0354208Y0316032D01*
X0354561Y0314434D02*
X0368205Y0314434D01*
X0368867Y0312835D02*
X0355769Y0312835D01*
X0356300Y0311237D02*
X0370268Y0311237D01*
X0370143Y0309638D02*
X0356300Y0309638D01*
X0355718Y0308040D02*
X0368815Y0308040D01*
X0368200Y0306441D02*
X0354437Y0306441D01*
X0347563Y0306441D02*
X0315721Y0306441D01*
X0315721Y0304843D02*
X0368200Y0304843D01*
X0368698Y0303244D02*
X0315721Y0303244D01*
X0315721Y0301646D02*
X0369859Y0301646D01*
X0370629Y0300047D02*
X0315721Y0300047D01*
X0315721Y0298449D02*
X0368985Y0298449D01*
X0368323Y0296850D02*
X0315721Y0296850D01*
X0315721Y0295252D02*
X0368200Y0295252D01*
X0368528Y0293653D02*
X0315721Y0293653D01*
X0315721Y0292055D02*
X0369450Y0292055D01*
X0371616Y0290456D02*
X0315721Y0290456D01*
X0315721Y0288858D02*
X0369362Y0288858D01*
X0368492Y0287259D02*
X0315721Y0287259D01*
X0315721Y0285661D02*
X0368200Y0285661D01*
X0368359Y0284062D02*
X0315721Y0284062D01*
X0315721Y0282464D02*
X0369041Y0282464D01*
X0370840Y0280865D02*
X0315721Y0280865D01*
X0315721Y0279267D02*
X0369771Y0279267D01*
X0368661Y0277668D02*
X0315721Y0277668D01*
X0315721Y0276070D02*
X0368200Y0276070D01*
X0368200Y0274471D02*
X0315721Y0274471D01*
X0315721Y0272873D02*
X0368852Y0272873D01*
X0370231Y0271274D02*
X0315721Y0271274D01*
X0315721Y0269676D02*
X0370180Y0269676D01*
X0368831Y0268077D02*
X0315721Y0268077D01*
X0315721Y0266479D02*
X0368200Y0266479D01*
X0368200Y0264880D02*
X0315721Y0264880D01*
X0315721Y0263282D02*
X0343345Y0263282D01*
X0342263Y0261683D02*
X0315721Y0261683D01*
X0315721Y0260084D02*
X0342022Y0260084D01*
X0342450Y0258486D02*
X0315721Y0258486D01*
X0315721Y0256887D02*
X0343870Y0256887D01*
X0342943Y0255289D02*
X0337215Y0255289D01*
X0342014Y0253690D02*
X0315721Y0253690D01*
X0342014Y0253690D01*
X0341822Y0252437D02*
X0346000Y0252437D01*
X0350178Y0252437D01*
X0346000Y0252437D01*
X0346000Y0252437D01*
X0341822Y0252437D01*
X0341825Y0252092D02*
X0315721Y0252092D01*
X0315721Y0250493D02*
X0342301Y0250493D01*
X0343767Y0248895D02*
X0315721Y0248895D01*
X0315721Y0247296D02*
X0343108Y0247296D01*
X0342164Y0245698D02*
X0315721Y0245698D01*
X0315721Y0244099D02*
X0342022Y0244099D01*
X0342548Y0242501D02*
X0315721Y0242501D01*
X0315721Y0240902D02*
X0344443Y0240902D01*
X0342989Y0239304D02*
X0315721Y0239304D01*
X0315721Y0237705D02*
X0342115Y0237705D01*
X0342022Y0236107D02*
X0315721Y0236107D01*
X0315721Y0234508D02*
X0342598Y0234508D01*
X0344729Y0232910D02*
X0315721Y0232910D01*
X0315721Y0231311D02*
X0368016Y0231311D01*
X0367985Y0229713D02*
X0315721Y0229713D01*
X0315721Y0228114D02*
X0367953Y0228114D01*
X0367922Y0226516D02*
X0315721Y0226516D01*
X0315721Y0224917D02*
X0367891Y0224917D01*
X0367859Y0223319D02*
X0363340Y0223319D01*
X0363814Y0223122D02*
X0362352Y0223728D01*
X0360770Y0223728D01*
X0359308Y0223122D01*
X0358189Y0222003D01*
X0357624Y0220640D01*
X0357059Y0222003D01*
X0355940Y0223122D01*
X0354478Y0223728D01*
X0352896Y0223728D01*
X0351434Y0223122D01*
X0350315Y0222003D01*
X0349843Y0220866D01*
X0349685Y0221354D01*
X0349386Y0221940D01*
X0349000Y0222472D01*
X0348535Y0222937D01*
X0348003Y0223323D01*
X0347417Y0223622D01*
X0346791Y0223825D01*
X0346142Y0223928D01*
X0345813Y0223928D01*
X0345813Y0219750D01*
X0345813Y0219750D01*
X0345813Y0215572D01*
X0346142Y0215572D01*
X0346791Y0215675D01*
X0347417Y0215878D01*
X0348003Y0216177D01*
X0348535Y0216563D01*
X0349000Y0217028D01*
X0349386Y0217560D01*
X0349685Y0218146D01*
X0349843Y0218634D01*
X0350315Y0217497D01*
X0351434Y0216378D01*
X0352896Y0215772D01*
X0354478Y0215772D01*
X0355940Y0216378D01*
X0357059Y0217497D01*
X0357624Y0218860D01*
X0358189Y0217497D01*
X0359308Y0216378D01*
X0360770Y0215772D01*
X0362352Y0215772D01*
X0363814Y0216378D01*
X0364933Y0217497D01*
X0365539Y0218959D01*
X0365539Y0220541D01*
X0364933Y0222003D01*
X0363814Y0223122D01*
X0365051Y0221720D02*
X0367828Y0221720D01*
X0367797Y0220122D02*
X0365539Y0220122D01*
X0365359Y0218523D02*
X0367765Y0218523D01*
X0367734Y0216925D02*
X0364361Y0216925D01*
X0367702Y0215326D02*
X0315721Y0215326D01*
X0315721Y0213728D02*
X0367671Y0213728D01*
X0367640Y0212129D02*
X0315721Y0212129D01*
X0315721Y0210531D02*
X0367608Y0210531D01*
X0367577Y0208932D02*
X0315721Y0208932D01*
X0315721Y0207334D02*
X0317541Y0207334D01*
X0321959Y0207334D02*
X0367546Y0207334D01*
X0367514Y0205735D02*
X0325677Y0205735D01*
X0327446Y0204137D02*
X0367483Y0204137D01*
X0367452Y0202538D02*
X0328604Y0202538D01*
X0329437Y0200940D02*
X0367420Y0200940D01*
X0367389Y0199341D02*
X0329865Y0199341D01*
X0330062Y0197743D02*
X0367358Y0197743D01*
X0367326Y0196144D02*
X0330062Y0196144D01*
X0329702Y0184950D02*
X0447298Y0184950D01*
X0446938Y0183608D01*
X0446938Y0180892D01*
X0447641Y0178270D01*
X0448998Y0175918D01*
X0450918Y0173998D01*
X0453270Y0172641D01*
X0455892Y0171938D01*
X0458608Y0171938D01*
X0461121Y0172612D01*
X0461121Y0064750D01*
X0448800Y0064750D01*
X0448800Y0066554D01*
X0447993Y0068502D01*
X0446502Y0069993D01*
X0445278Y0070500D01*
X0446502Y0071007D01*
X0447993Y0072498D01*
X0448800Y0074446D01*
X0448800Y0076554D01*
X0447993Y0078502D01*
X0446502Y0079993D01*
X0445278Y0080500D01*
X0446502Y0081007D01*
X0447993Y0082498D01*
X0448800Y0084446D01*
X0448800Y0086554D01*
X0447993Y0088502D01*
X0446502Y0089993D01*
X0445278Y0090500D01*
X0446502Y0091007D01*
X0447993Y0092498D01*
X0448800Y0094446D01*
X0448800Y0096554D01*
X0447993Y0098502D01*
X0446502Y0099993D01*
X0445278Y0100500D01*
X0446502Y0101007D01*
X0447993Y0102498D01*
X0448800Y0104446D01*
X0448800Y0106554D01*
X0447993Y0108502D01*
X0446502Y0109993D01*
X0445278Y0110500D01*
X0446502Y0111007D01*
X0447993Y0112498D01*
X0448800Y0114446D01*
X0448800Y0116554D01*
X0447993Y0118502D01*
X0446502Y0119993D01*
X0445278Y0120500D01*
X0446502Y0121007D01*
X0447993Y0122498D01*
X0448800Y0124446D01*
X0448800Y0126554D01*
X0447993Y0128502D01*
X0446502Y0129993D01*
X0445556Y0130385D01*
X0445611Y0130403D01*
X0446383Y0130796D01*
X0447083Y0131305D01*
X0447695Y0131917D01*
X0448204Y0132617D01*
X0448597Y0133389D01*
X0448865Y0134212D01*
X0449000Y0135067D01*
X0449000Y0135300D01*
X0443700Y0135300D01*
X0443700Y0135700D01*
X0449000Y0135700D01*
X0449000Y0135933D01*
X0448865Y0136788D01*
X0448597Y0137611D01*
X0448204Y0138383D01*
X0447695Y0139083D01*
X0447083Y0139695D01*
X0446383Y0140204D01*
X0445611Y0140597D01*
X0445556Y0140615D01*
X0446502Y0141007D01*
X0447993Y0142498D01*
X0448800Y0144446D01*
X0448800Y0146554D01*
X0447993Y0148502D01*
X0446502Y0149993D01*
X0445278Y0150500D01*
X0446502Y0151007D01*
X0447993Y0152498D01*
X0448800Y0154446D01*
X0448800Y0156554D01*
X0447993Y0158502D01*
X0446502Y0159993D01*
X0445278Y0160500D01*
X0446502Y0161007D01*
X0447993Y0162498D01*
X0448800Y0164446D01*
X0448800Y0166554D01*
X0447993Y0168502D01*
X0446502Y0169993D01*
X0444554Y0170800D01*
X0442446Y0170800D01*
X0440498Y0169993D01*
X0439007Y0168502D01*
X0438200Y0166554D01*
X0438200Y0164446D01*
X0439007Y0162498D01*
X0440498Y0161007D01*
X0441722Y0160500D01*
X0440498Y0159993D01*
X0439007Y0158502D01*
X0438200Y0156554D01*
X0438200Y0154446D01*
X0439007Y0152498D01*
X0440498Y0151007D01*
X0441722Y0150500D01*
X0440498Y0149993D01*
X0439007Y0148502D01*
X0438200Y0146554D01*
X0438200Y0144446D01*
X0439007Y0142498D01*
X0440498Y0141007D01*
X0441444Y0140615D01*
X0441389Y0140597D01*
X0440617Y0140204D01*
X0439917Y0139695D01*
X0439305Y0139083D01*
X0438796Y0138383D01*
X0438403Y0137611D01*
X0438135Y0136788D01*
X0438000Y0135933D01*
X0438000Y0135700D01*
X0443300Y0135700D01*
X0443300Y0135300D01*
X0438000Y0135300D01*
X0438000Y0135067D01*
X0438135Y0134212D01*
X0438403Y0133389D01*
X0438796Y0132617D01*
X0439305Y0131917D01*
X0439917Y0131305D01*
X0440617Y0130796D01*
X0441389Y0130403D01*
X0441444Y0130385D01*
X0440498Y0129993D01*
X0439007Y0128502D01*
X0438200Y0126554D01*
X0438200Y0124446D01*
X0439007Y0122498D01*
X0440498Y0121007D01*
X0441722Y0120500D01*
X0440498Y0119993D01*
X0439007Y0118502D01*
X0438200Y0116554D01*
X0438200Y0114446D01*
X0439007Y0112498D01*
X0440498Y0111007D01*
X0441722Y0110500D01*
X0440498Y0109993D01*
X0439007Y0108502D01*
X0438200Y0106554D01*
X0438200Y0104446D01*
X0439007Y0102498D01*
X0440498Y0101007D01*
X0441722Y0100500D01*
X0440498Y0099993D01*
X0439007Y0098502D01*
X0438200Y0096554D01*
X0438200Y0094446D01*
X0439007Y0092498D01*
X0440498Y0091007D01*
X0441722Y0090500D01*
X0440498Y0089993D01*
X0439007Y0088502D01*
X0438200Y0086554D01*
X0438200Y0084446D01*
X0439007Y0082498D01*
X0440498Y0081007D01*
X0441722Y0080500D01*
X0440498Y0079993D01*
X0439007Y0078502D01*
X0438200Y0076554D01*
X0438200Y0074446D01*
X0439007Y0072498D01*
X0440498Y0071007D01*
X0441722Y0070500D01*
X0440498Y0069993D01*
X0439007Y0068502D01*
X0438200Y0066554D01*
X0438200Y0064750D01*
X0378800Y0064750D01*
X0378800Y0066554D01*
X0377993Y0068502D01*
X0376502Y0069993D01*
X0375278Y0070500D01*
X0376502Y0071007D01*
X0377993Y0072498D01*
X0378800Y0074446D01*
X0378800Y0076554D01*
X0377993Y0078502D01*
X0376502Y0079993D01*
X0375278Y0080500D01*
X0376502Y0081007D01*
X0377993Y0082498D01*
X0378800Y0084446D01*
X0378800Y0086554D01*
X0377993Y0088502D01*
X0376502Y0089993D01*
X0375278Y0090500D01*
X0376502Y0091007D01*
X0377993Y0092498D01*
X0378800Y0094446D01*
X0378800Y0096554D01*
X0377993Y0098502D01*
X0376502Y0099993D01*
X0375278Y0100500D01*
X0376502Y0101007D01*
X0377993Y0102498D01*
X0378800Y0104446D01*
X0378800Y0106554D01*
X0377993Y0108502D01*
X0376502Y0109993D01*
X0375278Y0110500D01*
X0376502Y0111007D01*
X0377993Y0112498D01*
X0378800Y0114446D01*
X0378800Y0116554D01*
X0377993Y0118502D01*
X0376502Y0119993D01*
X0375278Y0120500D01*
X0376502Y0121007D01*
X0377993Y0122498D01*
X0378800Y0124446D01*
X0378800Y0126554D01*
X0377993Y0128502D01*
X0376502Y0129993D01*
X0375278Y0130500D01*
X0376502Y0131007D01*
X0377993Y0132498D01*
X0378800Y0134446D01*
X0378800Y0136554D01*
X0377993Y0138502D01*
X0376502Y0139993D01*
X0375278Y0140500D01*
X0376502Y0141007D01*
X0377993Y0142498D01*
X0378800Y0144446D01*
X0378800Y0146554D01*
X0377993Y0148502D01*
X0376502Y0149993D01*
X0375556Y0150385D01*
X0375611Y0150403D01*
X0376383Y0150796D01*
X0377083Y0151305D01*
X0377695Y0151917D01*
X0378204Y0152617D01*
X0378597Y0153389D01*
X0378865Y0154212D01*
X0379000Y0155067D01*
X0379000Y0155300D01*
X0373700Y0155300D01*
X0373700Y0155700D01*
X0379000Y0155700D01*
X0379000Y0155933D01*
X0378865Y0156788D01*
X0378597Y0157611D01*
X0378204Y0158383D01*
X0377695Y0159083D01*
X0377083Y0159695D01*
X0376383Y0160204D01*
X0375611Y0160597D01*
X0375556Y0160615D01*
X0376502Y0161007D01*
X0377993Y0162498D01*
X0378800Y0164446D01*
X0378800Y0166554D01*
X0377993Y0168502D01*
X0376502Y0169993D01*
X0374554Y0170800D01*
X0372446Y0170800D01*
X0370498Y0169993D01*
X0369007Y0168502D01*
X0368200Y0166554D01*
X0368200Y0164446D01*
X0369007Y0162498D01*
X0370498Y0161007D01*
X0371444Y0160615D01*
X0371389Y0160597D01*
X0370617Y0160204D01*
X0369917Y0159695D01*
X0369305Y0159083D01*
X0368796Y0158383D01*
X0368403Y0157611D01*
X0368135Y0156788D01*
X0368000Y0155933D01*
X0368000Y0155700D01*
X0373300Y0155700D01*
X0373300Y0155300D01*
X0368000Y0155300D01*
X0368000Y0155067D01*
X0368135Y0154212D01*
X0368403Y0153389D01*
X0368796Y0152617D01*
X0369305Y0151917D01*
X0369917Y0151305D01*
X0370617Y0150796D01*
X0371389Y0150403D01*
X0371444Y0150385D01*
X0370498Y0149993D01*
X0369007Y0148502D01*
X0368200Y0146554D01*
X0368200Y0144446D01*
X0369007Y0142498D01*
X0370498Y0141007D01*
X0371722Y0140500D01*
X0370498Y0139993D01*
X0369007Y0138502D01*
X0368200Y0136554D01*
X0368200Y0134446D01*
X0369007Y0132498D01*
X0370498Y0131007D01*
X0371722Y0130500D01*
X0370498Y0129993D01*
X0369007Y0128502D01*
X0368200Y0126554D01*
X0368200Y0124446D01*
X0369007Y0122498D01*
X0370498Y0121007D01*
X0371722Y0120500D01*
X0370498Y0119993D01*
X0369007Y0118502D01*
X0368200Y0116554D01*
X0368200Y0114446D01*
X0369007Y0112498D01*
X0370498Y0111007D01*
X0371722Y0110500D01*
X0370498Y0109993D01*
X0369007Y0108502D01*
X0368200Y0106554D01*
X0368200Y0104446D01*
X0369007Y0102498D01*
X0370498Y0101007D01*
X0371722Y0100500D01*
X0370498Y0099993D01*
X0369007Y0098502D01*
X0368200Y0096554D01*
X0368200Y0094446D01*
X0369007Y0092498D01*
X0370498Y0091007D01*
X0371722Y0090500D01*
X0370498Y0089993D01*
X0369007Y0088502D01*
X0368200Y0086554D01*
X0368200Y0084446D01*
X0369007Y0082498D01*
X0370498Y0081007D01*
X0371722Y0080500D01*
X0370498Y0079993D01*
X0369007Y0078502D01*
X0368200Y0076554D01*
X0368200Y0074446D01*
X0369007Y0072498D01*
X0370498Y0071007D01*
X0371722Y0070500D01*
X0370498Y0069993D01*
X0369007Y0068502D01*
X0368200Y0066554D01*
X0368200Y0064446D01*
X0369007Y0062498D01*
X0369596Y0061908D01*
X0369540Y0059035D01*
X0369007Y0058502D01*
X0368200Y0056554D01*
X0368200Y0054446D01*
X0369007Y0052498D01*
X0369404Y0052101D01*
X0368500Y0006000D01*
X0359900Y0005800D01*
X0329367Y0005800D01*
X0330062Y0008392D01*
X0330062Y0011108D01*
X0329359Y0013730D01*
X0328001Y0016082D01*
X0326082Y0018001D01*
X0323730Y0019359D01*
X0321108Y0020062D01*
X0318392Y0020062D01*
X0315800Y0019367D01*
X0315800Y0068524D01*
X0344327Y0069172D01*
X0344063Y0068909D01*
X0343677Y0068377D01*
X0343378Y0067791D01*
X0343175Y0067165D01*
X0343072Y0066516D01*
X0343072Y0066187D01*
X0343072Y0065858D01*
X0343175Y0065209D01*
X0343378Y0064583D01*
X0343677Y0063997D01*
X0344063Y0063465D01*
X0344528Y0063000D01*
X0345060Y0062614D01*
X0345646Y0062315D01*
X0346134Y0062157D01*
X0344997Y0061685D01*
X0343878Y0060566D01*
X0343272Y0059104D01*
X0343272Y0057522D01*
X0343878Y0056060D01*
X0344997Y0054941D01*
X0346360Y0054376D01*
X0344997Y0053811D01*
X0343878Y0052692D01*
X0343272Y0051230D01*
X0343272Y0049648D01*
X0343878Y0048186D01*
X0344997Y0047067D01*
X0346459Y0046461D01*
X0348041Y0046461D01*
X0349503Y0047067D01*
X0350622Y0048186D01*
X0351228Y0049648D01*
X0351228Y0051230D01*
X0350622Y0052692D01*
X0349503Y0053811D01*
X0348140Y0054376D01*
X0349503Y0054941D01*
X0350622Y0056060D01*
X0351228Y0057522D01*
X0351228Y0059104D01*
X0350622Y0060566D01*
X0349503Y0061685D01*
X0348366Y0062157D01*
X0348854Y0062315D01*
X0349440Y0062614D01*
X0349972Y0063000D01*
X0350437Y0063465D01*
X0350823Y0063997D01*
X0351122Y0064583D01*
X0351325Y0065209D01*
X0351428Y0065858D01*
X0351428Y0066187D01*
X0351428Y0066516D01*
X0351325Y0067165D01*
X0351122Y0067791D01*
X0350823Y0068377D01*
X0350437Y0068909D01*
X0350043Y0069302D01*
X0369750Y0069750D01*
X0369740Y0069235D01*
X0369007Y0068502D01*
X0368200Y0066554D01*
X0368200Y0064750D01*
X0351176Y0064750D01*
X0351325Y0065209D01*
X0351428Y0065858D01*
X0351428Y0066187D01*
X0347250Y0066187D01*
X0347250Y0066187D01*
X0351428Y0066187D01*
X0351428Y0066516D01*
X0351325Y0067165D01*
X0351122Y0067791D01*
X0350823Y0068377D01*
X0350437Y0068909D01*
X0349972Y0069374D01*
X0349440Y0069760D01*
X0348854Y0070059D01*
X0348366Y0070217D01*
X0349503Y0070689D01*
X0350622Y0071808D01*
X0351228Y0073270D01*
X0351228Y0074852D01*
X0350622Y0076314D01*
X0349503Y0077433D01*
X0348041Y0078039D01*
X0346459Y0078039D01*
X0344997Y0077433D01*
X0343878Y0076314D01*
X0343272Y0074852D01*
X0343272Y0073270D01*
X0343878Y0071808D01*
X0344997Y0070689D01*
X0346134Y0070217D01*
X0345646Y0070059D01*
X0345060Y0069760D01*
X0344528Y0069374D01*
X0344063Y0068909D01*
X0343677Y0068377D01*
X0343378Y0067791D01*
X0343175Y0067165D01*
X0343072Y0066516D01*
X0343072Y0066187D01*
X0347250Y0066187D01*
X0351428Y0066187D01*
X0347250Y0066187D01*
X0347250Y0066187D01*
X0347250Y0066187D01*
X0343072Y0066187D01*
X0343072Y0065858D01*
X0343175Y0065209D01*
X0343324Y0064750D01*
X0315800Y0064750D01*
X0315800Y0172633D01*
X0318392Y0171938D01*
X0321108Y0171938D01*
X0323730Y0172641D01*
X0326082Y0173998D01*
X0328001Y0175918D01*
X0329359Y0178270D01*
X0330062Y0180892D01*
X0330062Y0183608D01*
X0329702Y0184950D01*
X0330062Y0183356D02*
X0446938Y0183356D01*
X0446938Y0181757D02*
X0330062Y0181757D01*
X0329865Y0180159D02*
X0447135Y0180159D01*
X0447563Y0178560D02*
X0329437Y0178560D01*
X0328604Y0176962D02*
X0448396Y0176962D01*
X0449553Y0175363D02*
X0327446Y0175363D01*
X0325677Y0173765D02*
X0451323Y0173765D01*
X0455041Y0172166D02*
X0321959Y0172166D01*
X0317541Y0172166D02*
X0315800Y0172166D01*
X0315800Y0170568D02*
X0371885Y0170568D01*
X0369474Y0168969D02*
X0315800Y0168969D01*
X0315800Y0167371D02*
X0368538Y0167371D01*
X0368200Y0165772D02*
X0315800Y0165772D01*
X0315800Y0164174D02*
X0368313Y0164174D01*
X0368975Y0162575D02*
X0348414Y0162575D01*
X0348415Y0162575D02*
X0347766Y0162678D01*
X0347437Y0162678D01*
X0347108Y0162678D01*
X0346459Y0162575D01*
X0345833Y0162372D01*
X0345247Y0162073D01*
X0344715Y0161687D01*
X0344250Y0161222D01*
X0343864Y0160690D01*
X0343565Y0160104D01*
X0343407Y0159616D01*
X0342935Y0160753D01*
X0341816Y0161872D01*
X0340354Y0162478D01*
X0338772Y0162478D01*
X0337310Y0161872D01*
X0336191Y0160753D01*
X0335585Y0159291D01*
X0335585Y0157709D01*
X0336191Y0156247D01*
X0337310Y0155128D01*
X0338772Y0154522D01*
X0340354Y0154522D01*
X0341816Y0155128D01*
X0342935Y0156247D01*
X0343407Y0157384D01*
X0343565Y0156896D01*
X0343864Y0156310D01*
X0344250Y0155778D01*
X0344715Y0155313D01*
X0345247Y0154927D01*
X0345833Y0154628D01*
X0346459Y0154425D01*
X0347108Y0154322D01*
X0347437Y0154322D01*
X0347766Y0154322D01*
X0348415Y0154425D01*
X0349041Y0154628D01*
X0349627Y0154927D01*
X0350159Y0155313D01*
X0350624Y0155778D01*
X0351010Y0156310D01*
X0351309Y0156896D01*
X0351512Y0157522D01*
X0351615Y0158171D01*
X0351615Y0158500D01*
X0351615Y0158829D01*
X0351512Y0159478D01*
X0351309Y0160104D01*
X0351010Y0160690D01*
X0350624Y0161222D01*
X0350159Y0161687D01*
X0349627Y0162073D01*
X0349041Y0162372D01*
X0348415Y0162575D01*
X0347437Y0162575D02*
X0347437Y0162575D01*
X0347437Y0162678D02*
X0347437Y0158500D01*
X0351615Y0158500D01*
X0347437Y0158500D01*
X0347437Y0158500D01*
X0347437Y0158500D01*
X0347437Y0162678D01*
X0346460Y0162575D02*
X0315800Y0162575D01*
X0315800Y0160977D02*
X0336414Y0160977D01*
X0335621Y0159378D02*
X0315800Y0159378D01*
X0315800Y0157780D02*
X0335585Y0157780D01*
X0336256Y0156181D02*
X0315800Y0156181D01*
X0315800Y0154583D02*
X0338625Y0154583D01*
X0340501Y0154583D02*
X0345973Y0154583D01*
X0347437Y0154583D02*
X0347437Y0154583D01*
X0347437Y0154322D02*
X0347437Y0158500D01*
X0347437Y0158500D01*
X0347437Y0154322D01*
X0348901Y0154583D02*
X0368077Y0154583D01*
X0368039Y0156181D02*
X0350917Y0156181D01*
X0351553Y0157780D02*
X0368489Y0157780D01*
X0369600Y0159378D02*
X0351528Y0159378D01*
X0350802Y0160977D02*
X0370570Y0160977D01*
X0376430Y0160977D02*
X0440570Y0160977D01*
X0439883Y0159378D02*
X0377400Y0159378D01*
X0378511Y0157780D02*
X0438708Y0157780D01*
X0438200Y0156181D02*
X0378961Y0156181D01*
X0378923Y0154583D02*
X0438200Y0154583D01*
X0438805Y0152984D02*
X0378391Y0152984D01*
X0377164Y0151386D02*
X0440119Y0151386D01*
X0440292Y0149787D02*
X0376708Y0149787D01*
X0378123Y0148189D02*
X0438877Y0148189D01*
X0438215Y0146590D02*
X0378785Y0146590D01*
X0378800Y0144992D02*
X0438200Y0144992D01*
X0438636Y0143393D02*
X0378364Y0143393D01*
X0377290Y0141795D02*
X0439710Y0141795D01*
X0440607Y0140196D02*
X0376012Y0140196D01*
X0377898Y0138598D02*
X0438952Y0138598D01*
X0438204Y0136999D02*
X0378616Y0136999D01*
X0378800Y0135401D02*
X0443300Y0135401D01*
X0443700Y0135401D02*
X0461121Y0135401D01*
X0461121Y0136999D02*
X0448796Y0136999D01*
X0448048Y0138598D02*
X0461121Y0138598D01*
X0461121Y0140196D02*
X0446393Y0140196D01*
X0447290Y0141795D02*
X0461121Y0141795D01*
X0461121Y0143393D02*
X0448364Y0143393D01*
X0448800Y0144992D02*
X0461121Y0144992D01*
X0461121Y0146590D02*
X0448785Y0146590D01*
X0448123Y0148189D02*
X0461121Y0148189D01*
X0461121Y0149787D02*
X0446708Y0149787D01*
X0446881Y0151386D02*
X0461121Y0151386D01*
X0461121Y0152984D02*
X0448195Y0152984D01*
X0448800Y0154583D02*
X0461121Y0154583D01*
X0461121Y0156181D02*
X0448800Y0156181D01*
X0448292Y0157780D02*
X0461121Y0157780D01*
X0461121Y0159378D02*
X0447117Y0159378D01*
X0446430Y0160977D02*
X0461121Y0160977D01*
X0461121Y0162575D02*
X0448025Y0162575D01*
X0448687Y0164174D02*
X0461121Y0164174D01*
X0461121Y0165772D02*
X0448800Y0165772D01*
X0448462Y0167371D02*
X0461121Y0167371D01*
X0461121Y0168969D02*
X0447526Y0168969D01*
X0445115Y0170568D02*
X0461121Y0170568D01*
X0461121Y0172166D02*
X0459459Y0172166D01*
X0441885Y0170568D02*
X0375115Y0170568D01*
X0377526Y0168969D02*
X0439474Y0168969D01*
X0438538Y0167371D02*
X0378462Y0167371D01*
X0378800Y0165772D02*
X0438200Y0165772D01*
X0438313Y0164174D02*
X0378687Y0164174D01*
X0378025Y0162575D02*
X0438975Y0162575D01*
X0438269Y0133802D02*
X0378533Y0133802D01*
X0377699Y0132204D02*
X0439097Y0132204D01*
X0440992Y0130605D02*
X0375532Y0130605D01*
X0377489Y0129007D02*
X0439511Y0129007D01*
X0438554Y0127408D02*
X0378446Y0127408D01*
X0378800Y0125810D02*
X0438200Y0125810D01*
X0438297Y0124211D02*
X0378703Y0124211D01*
X0378041Y0122613D02*
X0438959Y0122613D01*
X0440491Y0121014D02*
X0376509Y0121014D01*
X0377080Y0119416D02*
X0439920Y0119416D01*
X0438723Y0117817D02*
X0378277Y0117817D01*
X0378800Y0116218D02*
X0438200Y0116218D01*
X0438200Y0114620D02*
X0378800Y0114620D01*
X0378210Y0113021D02*
X0438790Y0113021D01*
X0440082Y0111423D02*
X0376918Y0111423D01*
X0376671Y0109824D02*
X0440329Y0109824D01*
X0438892Y0108226D02*
X0378108Y0108226D01*
X0378770Y0106627D02*
X0438230Y0106627D01*
X0438200Y0105029D02*
X0378800Y0105029D01*
X0378379Y0103430D02*
X0438621Y0103430D01*
X0439673Y0101832D02*
X0377327Y0101832D01*
X0375922Y0100233D02*
X0441078Y0100233D01*
X0439140Y0098635D02*
X0377860Y0098635D01*
X0378600Y0097036D02*
X0438400Y0097036D01*
X0438200Y0095438D02*
X0378800Y0095438D01*
X0378549Y0093839D02*
X0438451Y0093839D01*
X0439264Y0092241D02*
X0377736Y0092241D01*
X0375622Y0090642D02*
X0441378Y0090642D01*
X0439548Y0089044D02*
X0377452Y0089044D01*
X0378431Y0087445D02*
X0438569Y0087445D01*
X0438200Y0085847D02*
X0378800Y0085847D01*
X0378718Y0084248D02*
X0438282Y0084248D01*
X0438944Y0082650D02*
X0378056Y0082650D01*
X0376547Y0081051D02*
X0440453Y0081051D01*
X0439957Y0079453D02*
X0377043Y0079453D01*
X0378262Y0077854D02*
X0438738Y0077854D01*
X0438200Y0076256D02*
X0378800Y0076256D01*
X0378800Y0074657D02*
X0438200Y0074657D01*
X0438775Y0073059D02*
X0378225Y0073059D01*
X0376955Y0071460D02*
X0440045Y0071460D01*
X0440366Y0069862D02*
X0376634Y0069862D01*
X0378092Y0068263D02*
X0438908Y0068263D01*
X0438246Y0066665D02*
X0378754Y0066665D01*
X0378800Y0065066D02*
X0438200Y0065066D01*
X0446634Y0069862D02*
X0461121Y0069862D01*
X0461121Y0071460D02*
X0446955Y0071460D01*
X0448225Y0073059D02*
X0461121Y0073059D01*
X0461121Y0074657D02*
X0448800Y0074657D01*
X0448800Y0076256D02*
X0461121Y0076256D01*
X0461121Y0077854D02*
X0448262Y0077854D01*
X0447043Y0079453D02*
X0461121Y0079453D01*
X0461121Y0081051D02*
X0446547Y0081051D01*
X0448056Y0082650D02*
X0461121Y0082650D01*
X0461121Y0084248D02*
X0448718Y0084248D01*
X0448800Y0085847D02*
X0461121Y0085847D01*
X0461121Y0087445D02*
X0448431Y0087445D01*
X0447452Y0089044D02*
X0461121Y0089044D01*
X0461121Y0090642D02*
X0445622Y0090642D01*
X0447736Y0092241D02*
X0461121Y0092241D01*
X0461121Y0093839D02*
X0448549Y0093839D01*
X0448800Y0095438D02*
X0461121Y0095438D01*
X0461121Y0097036D02*
X0448600Y0097036D01*
X0447860Y0098635D02*
X0461121Y0098635D01*
X0461121Y0100233D02*
X0445922Y0100233D01*
X0447327Y0101832D02*
X0461121Y0101832D01*
X0461121Y0103430D02*
X0448379Y0103430D01*
X0448800Y0105029D02*
X0461121Y0105029D01*
X0461121Y0106627D02*
X0448770Y0106627D01*
X0448108Y0108226D02*
X0461121Y0108226D01*
X0461121Y0109824D02*
X0446671Y0109824D01*
X0446918Y0111423D02*
X0461121Y0111423D01*
X0461121Y0113021D02*
X0448210Y0113021D01*
X0448800Y0114620D02*
X0461121Y0114620D01*
X0461121Y0116218D02*
X0448800Y0116218D01*
X0448277Y0117817D02*
X0461121Y0117817D01*
X0461121Y0119416D02*
X0447080Y0119416D01*
X0446509Y0121014D02*
X0461121Y0121014D01*
X0461121Y0122613D02*
X0448041Y0122613D01*
X0448703Y0124211D02*
X0461121Y0124211D01*
X0461121Y0125810D02*
X0448800Y0125810D01*
X0448446Y0127408D02*
X0461121Y0127408D01*
X0461121Y0129007D02*
X0447489Y0129007D01*
X0446008Y0130605D02*
X0461121Y0130605D01*
X0461121Y0132204D02*
X0447903Y0132204D01*
X0448731Y0133802D02*
X0461121Y0133802D01*
X0461121Y0068263D02*
X0448092Y0068263D01*
X0448754Y0066665D02*
X0461121Y0066665D01*
X0461121Y0065066D02*
X0448800Y0065066D01*
X0370366Y0069862D02*
X0349241Y0069862D01*
X0350275Y0071460D02*
X0370045Y0071460D01*
X0368775Y0073059D02*
X0351141Y0073059D01*
X0351228Y0074657D02*
X0368200Y0074657D01*
X0368200Y0076256D02*
X0350647Y0076256D01*
X0348487Y0077854D02*
X0368738Y0077854D01*
X0369957Y0079453D02*
X0315800Y0079453D01*
X0315800Y0081051D02*
X0370453Y0081051D01*
X0368944Y0082650D02*
X0315800Y0082650D01*
X0315800Y0084248D02*
X0368282Y0084248D01*
X0368200Y0085847D02*
X0315800Y0085847D01*
X0315800Y0087445D02*
X0368569Y0087445D01*
X0369548Y0089044D02*
X0315800Y0089044D01*
X0315800Y0090642D02*
X0371378Y0090642D01*
X0369264Y0092241D02*
X0315800Y0092241D01*
X0315800Y0093839D02*
X0368451Y0093839D01*
X0368200Y0095438D02*
X0315800Y0095438D01*
X0315800Y0097036D02*
X0368400Y0097036D01*
X0369140Y0098635D02*
X0315800Y0098635D01*
X0315800Y0100233D02*
X0371078Y0100233D01*
X0369673Y0101832D02*
X0315800Y0101832D01*
X0315800Y0103430D02*
X0368621Y0103430D01*
X0368200Y0105029D02*
X0315800Y0105029D01*
X0315800Y0106627D02*
X0368230Y0106627D01*
X0368892Y0108226D02*
X0315800Y0108226D01*
X0315800Y0109824D02*
X0370329Y0109824D01*
X0370082Y0111423D02*
X0315800Y0111423D01*
X0315800Y0113021D02*
X0368790Y0113021D01*
X0368200Y0114620D02*
X0315800Y0114620D01*
X0315800Y0116218D02*
X0368200Y0116218D01*
X0368723Y0117817D02*
X0357062Y0117817D01*
X0356502Y0117257D02*
X0357993Y0118748D01*
X0358800Y0120696D01*
X0358800Y0122804D01*
X0357993Y0124752D01*
X0356502Y0126243D01*
X0355556Y0126635D01*
X0355611Y0126653D01*
X0356383Y0127046D01*
X0357083Y0127555D01*
X0357695Y0128167D01*
X0358204Y0128867D01*
X0358597Y0129639D01*
X0358865Y0130462D01*
X0359000Y0131317D01*
X0359000Y0131550D01*
X0353700Y0131550D01*
X0353700Y0131950D01*
X0359000Y0131950D01*
X0359000Y0132183D01*
X0358865Y0133038D01*
X0358597Y0133861D01*
X0358204Y0134633D01*
X0357695Y0135333D01*
X0357083Y0135945D01*
X0356383Y0136454D01*
X0355611Y0136847D01*
X0355556Y0136865D01*
X0356502Y0137257D01*
X0357993Y0138748D01*
X0358800Y0140696D01*
X0358800Y0142804D01*
X0357993Y0144752D01*
X0356502Y0146243D01*
X0354554Y0147050D01*
X0352446Y0147050D01*
X0350498Y0146243D01*
X0349007Y0144752D01*
X0348200Y0142804D01*
X0348200Y0140696D01*
X0349007Y0138748D01*
X0350498Y0137257D01*
X0351444Y0136865D01*
X0351389Y0136847D01*
X0350617Y0136454D01*
X0349917Y0135945D01*
X0349305Y0135333D01*
X0348796Y0134633D01*
X0348403Y0133861D01*
X0348135Y0133038D01*
X0348000Y0132183D01*
X0348000Y0131950D01*
X0353300Y0131950D01*
X0353300Y0131550D01*
X0348000Y0131550D01*
X0348000Y0131317D01*
X0348135Y0130462D01*
X0348403Y0129639D01*
X0348796Y0128867D01*
X0349305Y0128167D01*
X0349917Y0127555D01*
X0350617Y0127046D01*
X0351389Y0126653D01*
X0351444Y0126635D01*
X0350498Y0126243D01*
X0349007Y0124752D01*
X0348200Y0122804D01*
X0348200Y0120696D01*
X0349007Y0118748D01*
X0350498Y0117257D01*
X0352446Y0116450D01*
X0354554Y0116450D01*
X0356502Y0117257D01*
X0358270Y0119416D02*
X0369920Y0119416D01*
X0370491Y0121014D02*
X0358800Y0121014D01*
X0358800Y0122613D02*
X0368959Y0122613D01*
X0368297Y0124211D02*
X0358217Y0124211D01*
X0356936Y0125810D02*
X0368200Y0125810D01*
X0368554Y0127408D02*
X0356881Y0127408D01*
X0358275Y0129007D02*
X0369511Y0129007D01*
X0371468Y0130605D02*
X0358887Y0130605D01*
X0358997Y0132204D02*
X0369301Y0132204D01*
X0368467Y0133802D02*
X0358616Y0133802D01*
X0357628Y0135401D02*
X0368200Y0135401D01*
X0368384Y0136999D02*
X0355880Y0136999D01*
X0357843Y0138598D02*
X0369102Y0138598D01*
X0370988Y0140196D02*
X0358593Y0140196D01*
X0358800Y0141795D02*
X0369710Y0141795D01*
X0368636Y0143393D02*
X0358556Y0143393D01*
X0357754Y0144992D02*
X0368200Y0144992D01*
X0368215Y0146590D02*
X0355664Y0146590D01*
X0351336Y0146590D02*
X0315800Y0146590D01*
X0315800Y0144992D02*
X0349246Y0144992D01*
X0348444Y0143393D02*
X0315800Y0143393D01*
X0315800Y0141795D02*
X0348200Y0141795D01*
X0348407Y0140196D02*
X0315800Y0140196D01*
X0315800Y0138598D02*
X0349157Y0138598D01*
X0351120Y0136999D02*
X0315800Y0136999D01*
X0315800Y0135401D02*
X0349372Y0135401D01*
X0348384Y0133802D02*
X0315800Y0133802D01*
X0315800Y0132204D02*
X0348003Y0132204D01*
X0348113Y0130605D02*
X0315800Y0130605D01*
X0315800Y0129007D02*
X0348725Y0129007D01*
X0350119Y0127408D02*
X0315800Y0127408D01*
X0315800Y0125810D02*
X0350064Y0125810D01*
X0348783Y0124211D02*
X0315800Y0124211D01*
X0315800Y0122613D02*
X0348200Y0122613D01*
X0348200Y0121014D02*
X0315800Y0121014D01*
X0315800Y0119416D02*
X0348730Y0119416D01*
X0349938Y0117817D02*
X0315800Y0117817D01*
X0306200Y0117817D02*
X0295777Y0117817D01*
X0295493Y0118502D02*
X0296300Y0116554D01*
X0296300Y0114446D01*
X0295493Y0112498D01*
X0294002Y0111007D01*
X0292778Y0110500D01*
X0294002Y0109993D01*
X0295493Y0108502D01*
X0296300Y0106554D01*
X0296300Y0104446D01*
X0295493Y0102498D01*
X0294002Y0101007D01*
X0292778Y0100500D01*
X0294002Y0099993D01*
X0295493Y0098502D01*
X0296300Y0096554D01*
X0296300Y0094446D01*
X0295493Y0092498D01*
X0294002Y0091007D01*
X0292778Y0090500D01*
X0294002Y0089993D01*
X0295493Y0088502D01*
X0296300Y0086554D01*
X0296300Y0084446D01*
X0295493Y0082498D01*
X0294002Y0081007D01*
X0292778Y0080500D01*
X0294002Y0079993D01*
X0295493Y0078502D01*
X0296300Y0076554D01*
X0296300Y0074446D01*
X0295493Y0072498D01*
X0294002Y0071007D01*
X0292778Y0070500D01*
X0294002Y0069993D01*
X0295493Y0068502D01*
X0296300Y0066554D01*
X0296300Y0064750D01*
X0306200Y0064750D01*
X0306200Y0172298D01*
X0304858Y0171938D01*
X0302142Y0171938D01*
X0299520Y0172641D01*
X0297168Y0173998D01*
X0295248Y0175918D01*
X0293891Y0178270D01*
X0293188Y0180892D01*
X0293188Y0183608D01*
X0293548Y0184950D01*
X0174367Y0184950D01*
X0175062Y0182358D01*
X0175062Y0179642D01*
X0174359Y0177020D01*
X0173001Y0174668D01*
X0171082Y0172748D01*
X0168730Y0171391D01*
X0166108Y0170688D01*
X0163392Y0170688D01*
X0160838Y0171373D01*
X0160800Y0167649D01*
X0160800Y0064750D01*
X0186538Y0064750D01*
X0186177Y0065247D01*
X0186563Y0064715D01*
X0187028Y0064250D01*
X0187560Y0063864D01*
X0188146Y0063565D01*
X0188634Y0063407D01*
X0187497Y0062935D01*
X0186378Y0061816D01*
X0185772Y0060354D01*
X0185772Y0058772D01*
X0186378Y0057310D01*
X0187497Y0056191D01*
X0188860Y0055626D01*
X0187497Y0055061D01*
X0186378Y0053942D01*
X0185772Y0052480D01*
X0185772Y0050898D01*
X0186378Y0049436D01*
X0187497Y0048317D01*
X0188959Y0047711D01*
X0190541Y0047711D01*
X0192003Y0048317D01*
X0193122Y0049436D01*
X0193728Y0050898D01*
X0193728Y0052480D01*
X0193122Y0053942D01*
X0192003Y0055061D01*
X0190640Y0055626D01*
X0192003Y0056191D01*
X0193122Y0057310D01*
X0193728Y0058772D01*
X0193728Y0060354D01*
X0193122Y0061816D01*
X0192003Y0062935D01*
X0190866Y0063407D01*
X0191354Y0063565D01*
X0191940Y0063864D01*
X0192472Y0064250D01*
X0192937Y0064715D01*
X0193323Y0065247D01*
X0193622Y0065833D01*
X0193825Y0066459D01*
X0193928Y0067108D01*
X0193928Y0067437D01*
X0193928Y0067766D01*
X0193891Y0067998D01*
X0216000Y0068500D01*
X0215975Y0067218D01*
X0215700Y0066554D01*
X0215700Y0064446D01*
X0215911Y0063937D01*
X0215769Y0056721D01*
X0215700Y0056554D01*
X0215700Y0054446D01*
X0215723Y0054389D01*
X0214771Y0005800D01*
X0175617Y0005800D01*
X0176312Y0008392D01*
X0176312Y0011108D01*
X0175609Y0013730D01*
X0174251Y0016082D01*
X0172332Y0018001D01*
X0169980Y0019359D01*
X0167358Y0020062D01*
X0164642Y0020062D01*
X0162020Y0019359D01*
X0161000Y0018770D01*
X0161000Y0067250D01*
X0185579Y0067809D01*
X0185572Y0067766D01*
X0185572Y0067437D01*
X0185572Y0067108D01*
X0185675Y0066459D01*
X0185878Y0065833D01*
X0186177Y0065247D01*
X0185878Y0065833D01*
X0185675Y0066459D01*
X0185572Y0067108D01*
X0185572Y0067437D01*
X0189750Y0067437D01*
X0193928Y0067437D01*
X0189750Y0067437D01*
X0189750Y0067437D01*
X0193928Y0067437D01*
X0193928Y0067766D01*
X0193825Y0068415D01*
X0193622Y0069041D01*
X0193323Y0069627D01*
X0192937Y0070159D01*
X0192472Y0070624D01*
X0191940Y0071010D01*
X0191354Y0071309D01*
X0190866Y0071467D01*
X0192003Y0071939D01*
X0193122Y0073058D01*
X0193728Y0074520D01*
X0193728Y0076102D01*
X0193122Y0077564D01*
X0192003Y0078683D01*
X0190541Y0079289D01*
X0188959Y0079289D01*
X0187497Y0078683D01*
X0186378Y0077564D01*
X0185772Y0076102D01*
X0185772Y0074520D01*
X0186378Y0073058D01*
X0187497Y0071939D01*
X0188634Y0071467D01*
X0188146Y0071309D01*
X0187560Y0071010D01*
X0187028Y0070624D01*
X0186563Y0070159D01*
X0186177Y0069627D01*
X0185878Y0069041D01*
X0185675Y0068415D01*
X0185572Y0067766D01*
X0185572Y0067437D01*
X0189750Y0067437D01*
X0189750Y0067437D01*
X0193928Y0067437D01*
X0193928Y0067108D01*
X0193825Y0066459D01*
X0193622Y0065833D01*
X0193323Y0065247D01*
X0192962Y0064750D01*
X0215700Y0064750D01*
X0215700Y0066554D01*
X0216507Y0068502D01*
X0217998Y0069993D01*
X0219222Y0070500D01*
X0217998Y0071007D01*
X0216507Y0072498D01*
X0215700Y0074446D01*
X0215700Y0076554D01*
X0216507Y0078502D01*
X0217998Y0079993D01*
X0219222Y0080500D01*
X0217998Y0081007D01*
X0216507Y0082498D01*
X0215700Y0084446D01*
X0215700Y0086554D01*
X0216507Y0088502D01*
X0217998Y0089993D01*
X0219222Y0090500D01*
X0217998Y0091007D01*
X0216507Y0092498D01*
X0215700Y0094446D01*
X0215700Y0096554D01*
X0216507Y0098502D01*
X0217998Y0099993D01*
X0219222Y0100500D01*
X0217998Y0101007D01*
X0216507Y0102498D01*
X0215700Y0104446D01*
X0215700Y0106554D01*
X0216507Y0108502D01*
X0217998Y0109993D01*
X0219222Y0110500D01*
X0217998Y0111007D01*
X0216507Y0112498D01*
X0215700Y0114446D01*
X0215700Y0116554D01*
X0216507Y0118502D01*
X0217998Y0119993D01*
X0219222Y0120500D01*
X0217998Y0121007D01*
X0216507Y0122498D01*
X0215700Y0124446D01*
X0215700Y0126554D01*
X0216507Y0128502D01*
X0217998Y0129993D01*
X0219222Y0130500D01*
X0217998Y0131007D01*
X0216507Y0132498D01*
X0215700Y0134446D01*
X0215700Y0136554D01*
X0216507Y0138502D01*
X0217998Y0139993D01*
X0219222Y0140500D01*
X0217998Y0141007D01*
X0216507Y0142498D01*
X0215700Y0144446D01*
X0215700Y0146554D01*
X0216507Y0148502D01*
X0217998Y0149993D01*
X0218944Y0150385D01*
X0218889Y0150403D01*
X0218117Y0150796D01*
X0217417Y0151305D01*
X0216805Y0151917D01*
X0216296Y0152617D01*
X0215903Y0153389D01*
X0215635Y0154212D01*
X0215500Y0155067D01*
X0215500Y0155300D01*
X0220800Y0155300D01*
X0220800Y0155700D01*
X0215500Y0155700D01*
X0215500Y0155933D01*
X0215635Y0156788D01*
X0215903Y0157611D01*
X0216296Y0158383D01*
X0216805Y0159083D01*
X0217417Y0159695D01*
X0218117Y0160204D01*
X0218889Y0160597D01*
X0218944Y0160615D01*
X0217998Y0161007D01*
X0216507Y0162498D01*
X0215700Y0164446D01*
X0215700Y0166554D01*
X0216507Y0168502D01*
X0217998Y0169993D01*
X0219946Y0170800D01*
X0222054Y0170800D01*
X0224002Y0169993D01*
X0225493Y0168502D01*
X0226300Y0166554D01*
X0226300Y0164446D01*
X0225493Y0162498D01*
X0224002Y0161007D01*
X0223056Y0160615D01*
X0223111Y0160597D01*
X0223883Y0160204D01*
X0224583Y0159695D01*
X0225195Y0159083D01*
X0225704Y0158383D01*
X0226097Y0157611D01*
X0226365Y0156788D01*
X0226500Y0155933D01*
X0226500Y0155700D01*
X0221200Y0155700D01*
X0221200Y0155300D01*
X0226500Y0155300D01*
X0226500Y0155067D01*
X0226365Y0154212D01*
X0226097Y0153389D01*
X0225704Y0152617D01*
X0225195Y0151917D01*
X0224583Y0151305D01*
X0223883Y0150796D01*
X0223111Y0150403D01*
X0223056Y0150385D01*
X0224002Y0149993D01*
X0225493Y0148502D01*
X0226300Y0146554D01*
X0226300Y0144446D01*
X0225493Y0142498D01*
X0224002Y0141007D01*
X0222778Y0140500D01*
X0224002Y0139993D01*
X0225493Y0138502D01*
X0226300Y0136554D01*
X0226300Y0134446D01*
X0225493Y0132498D01*
X0224002Y0131007D01*
X0222778Y0130500D01*
X0224002Y0129993D01*
X0225493Y0128502D01*
X0226300Y0126554D01*
X0226300Y0124446D01*
X0225493Y0122498D01*
X0224002Y0121007D01*
X0222778Y0120500D01*
X0224002Y0119993D01*
X0225493Y0118502D01*
X0226300Y0116554D01*
X0226300Y0114446D01*
X0225493Y0112498D01*
X0224002Y0111007D01*
X0222778Y0110500D01*
X0224002Y0109993D01*
X0225493Y0108502D01*
X0226300Y0106554D01*
X0226300Y0104446D01*
X0225493Y0102498D01*
X0224002Y0101007D01*
X0222778Y0100500D01*
X0224002Y0099993D01*
X0225493Y0098502D01*
X0226300Y0096554D01*
X0226300Y0094446D01*
X0225493Y0092498D01*
X0224002Y0091007D01*
X0222778Y0090500D01*
X0224002Y0089993D01*
X0225493Y0088502D01*
X0226300Y0086554D01*
X0226300Y0084446D01*
X0225493Y0082498D01*
X0224002Y0081007D01*
X0222778Y0080500D01*
X0224002Y0079993D01*
X0225493Y0078502D01*
X0226300Y0076554D01*
X0226300Y0074446D01*
X0225493Y0072498D01*
X0224002Y0071007D01*
X0222778Y0070500D01*
X0224002Y0069993D01*
X0225493Y0068502D01*
X0226300Y0066554D01*
X0226300Y0064750D01*
X0285700Y0064750D01*
X0285700Y0066554D01*
X0286507Y0068502D01*
X0287998Y0069993D01*
X0289222Y0070500D01*
X0287998Y0071007D01*
X0286507Y0072498D01*
X0285700Y0074446D01*
X0285700Y0076554D01*
X0286507Y0078502D01*
X0287998Y0079993D01*
X0289222Y0080500D01*
X0287998Y0081007D01*
X0286507Y0082498D01*
X0285700Y0084446D01*
X0285700Y0086554D01*
X0286507Y0088502D01*
X0287998Y0089993D01*
X0289222Y0090500D01*
X0287998Y0091007D01*
X0286507Y0092498D01*
X0285700Y0094446D01*
X0285700Y0096554D01*
X0286507Y0098502D01*
X0287998Y0099993D01*
X0289222Y0100500D01*
X0287998Y0101007D01*
X0286507Y0102498D01*
X0285700Y0104446D01*
X0285700Y0106554D01*
X0286507Y0108502D01*
X0287998Y0109993D01*
X0289222Y0110500D01*
X0287998Y0111007D01*
X0286507Y0112498D01*
X0285700Y0114446D01*
X0285700Y0116554D01*
X0286507Y0118502D01*
X0287998Y0119993D01*
X0289222Y0120500D01*
X0287998Y0121007D01*
X0286507Y0122498D01*
X0285700Y0124446D01*
X0285700Y0126554D01*
X0286507Y0128502D01*
X0287998Y0129993D01*
X0288944Y0130385D01*
X0288889Y0130403D01*
X0288117Y0130796D01*
X0287417Y0131305D01*
X0286805Y0131917D01*
X0286296Y0132617D01*
X0285903Y0133389D01*
X0285635Y0134212D01*
X0285500Y0135067D01*
X0285500Y0135300D01*
X0290800Y0135300D01*
X0290800Y0135700D01*
X0285500Y0135700D01*
X0285500Y0135933D01*
X0285635Y0136788D01*
X0285903Y0137611D01*
X0286296Y0138383D01*
X0286805Y0139083D01*
X0287417Y0139695D01*
X0288117Y0140204D01*
X0288889Y0140597D01*
X0288944Y0140615D01*
X0287998Y0141007D01*
X0286507Y0142498D01*
X0285700Y0144446D01*
X0285700Y0146554D01*
X0286507Y0148502D01*
X0287998Y0149993D01*
X0289222Y0150500D01*
X0287998Y0151007D01*
X0286507Y0152498D01*
X0285700Y0154446D01*
X0285700Y0156554D01*
X0286507Y0158502D01*
X0287998Y0159993D01*
X0289222Y0160500D01*
X0287998Y0161007D01*
X0286507Y0162498D01*
X0285700Y0164446D01*
X0285700Y0166554D01*
X0286507Y0168502D01*
X0287998Y0169993D01*
X0289946Y0170800D01*
X0292054Y0170800D01*
X0294002Y0169993D01*
X0295493Y0168502D01*
X0296300Y0166554D01*
X0296300Y0164446D01*
X0295493Y0162498D01*
X0294002Y0161007D01*
X0292778Y0160500D01*
X0294002Y0159993D01*
X0295493Y0158502D01*
X0296300Y0156554D01*
X0296300Y0154446D01*
X0295493Y0152498D01*
X0294002Y0151007D01*
X0292778Y0150500D01*
X0294002Y0149993D01*
X0295493Y0148502D01*
X0296300Y0146554D01*
X0296300Y0144446D01*
X0295493Y0142498D01*
X0294002Y0141007D01*
X0293056Y0140615D01*
X0293111Y0140597D01*
X0293883Y0140204D01*
X0294583Y0139695D01*
X0295195Y0139083D01*
X0295704Y0138383D01*
X0296097Y0137611D01*
X0296365Y0136788D01*
X0296500Y0135933D01*
X0296500Y0135700D01*
X0291200Y0135700D01*
X0291200Y0135300D01*
X0296500Y0135300D01*
X0296500Y0135067D01*
X0296365Y0134212D01*
X0296097Y0133389D01*
X0295704Y0132617D01*
X0295195Y0131917D01*
X0294583Y0131305D01*
X0293883Y0130796D01*
X0293111Y0130403D01*
X0293056Y0130385D01*
X0294002Y0129993D01*
X0295493Y0128502D01*
X0296300Y0126554D01*
X0296300Y0124446D01*
X0295493Y0122498D01*
X0294002Y0121007D01*
X0292778Y0120500D01*
X0294002Y0119993D01*
X0295493Y0118502D01*
X0294580Y0119416D02*
X0306200Y0119416D01*
X0306200Y0121014D02*
X0294009Y0121014D01*
X0295541Y0122613D02*
X0306200Y0122613D01*
X0306200Y0124211D02*
X0296203Y0124211D01*
X0296300Y0125810D02*
X0306200Y0125810D01*
X0306200Y0127408D02*
X0295946Y0127408D01*
X0294989Y0129007D02*
X0306200Y0129007D01*
X0306200Y0130605D02*
X0293508Y0130605D01*
X0295403Y0132204D02*
X0306200Y0132204D01*
X0306200Y0133802D02*
X0296231Y0133802D01*
X0296296Y0136999D02*
X0306200Y0136999D01*
X0306200Y0135401D02*
X0291200Y0135401D01*
X0290800Y0135401D02*
X0226300Y0135401D01*
X0226116Y0136999D02*
X0285704Y0136999D01*
X0286452Y0138598D02*
X0225398Y0138598D01*
X0223512Y0140196D02*
X0288107Y0140196D01*
X0287210Y0141795D02*
X0224790Y0141795D01*
X0225864Y0143393D02*
X0286136Y0143393D01*
X0285700Y0144992D02*
X0226300Y0144992D01*
X0226285Y0146590D02*
X0285715Y0146590D01*
X0286377Y0148189D02*
X0225623Y0148189D01*
X0224208Y0149787D02*
X0287792Y0149787D01*
X0287619Y0151386D02*
X0224664Y0151386D01*
X0225891Y0152984D02*
X0286305Y0152984D01*
X0285700Y0154583D02*
X0226423Y0154583D01*
X0226461Y0156181D02*
X0285700Y0156181D01*
X0286208Y0157780D02*
X0226011Y0157780D01*
X0224900Y0159378D02*
X0287383Y0159378D01*
X0288070Y0160977D02*
X0223930Y0160977D01*
X0225525Y0162575D02*
X0286475Y0162575D01*
X0285813Y0164174D02*
X0226187Y0164174D01*
X0226300Y0165772D02*
X0285700Y0165772D01*
X0286038Y0167371D02*
X0225962Y0167371D01*
X0225026Y0168969D02*
X0286974Y0168969D01*
X0289385Y0170568D02*
X0222615Y0170568D01*
X0219385Y0170568D02*
X0160830Y0170568D01*
X0160813Y0168969D02*
X0216974Y0168969D01*
X0216038Y0167371D02*
X0160800Y0167371D01*
X0160800Y0165772D02*
X0215700Y0165772D01*
X0215813Y0164174D02*
X0160800Y0164174D01*
X0160800Y0162575D02*
X0190210Y0162575D01*
X0190209Y0162575D02*
X0189583Y0162372D01*
X0188997Y0162073D01*
X0188465Y0161687D01*
X0188000Y0161222D01*
X0187614Y0160690D01*
X0187315Y0160104D01*
X0187157Y0159616D01*
X0186685Y0160753D01*
X0185566Y0161872D01*
X0184104Y0162478D01*
X0182522Y0162478D01*
X0181060Y0161872D01*
X0179941Y0160753D01*
X0179335Y0159291D01*
X0179335Y0157709D01*
X0179941Y0156247D01*
X0181060Y0155128D01*
X0182522Y0154522D01*
X0184104Y0154522D01*
X0185566Y0155128D01*
X0186685Y0156247D01*
X0187157Y0157384D01*
X0187315Y0156896D01*
X0187614Y0156310D01*
X0188000Y0155778D01*
X0188465Y0155313D01*
X0188997Y0154927D01*
X0189583Y0154628D01*
X0190209Y0154425D01*
X0190858Y0154322D01*
X0191187Y0154322D01*
X0191516Y0154322D01*
X0192165Y0154425D01*
X0192791Y0154628D01*
X0193377Y0154927D01*
X0193909Y0155313D01*
X0194374Y0155778D01*
X0194760Y0156310D01*
X0195059Y0156896D01*
X0195262Y0157522D01*
X0195365Y0158171D01*
X0195365Y0158500D01*
X0195365Y0158829D01*
X0195262Y0159478D01*
X0195059Y0160104D01*
X0194760Y0160690D01*
X0194374Y0161222D01*
X0193909Y0161687D01*
X0193377Y0162073D01*
X0192791Y0162372D01*
X0192165Y0162575D01*
X0191516Y0162678D01*
X0191187Y0162678D01*
X0190858Y0162678D01*
X0190209Y0162575D01*
X0191187Y0162575D02*
X0191187Y0162575D01*
X0191187Y0162678D02*
X0191187Y0158500D01*
X0195365Y0158500D01*
X0191187Y0158500D01*
X0191187Y0158500D01*
X0191187Y0158500D01*
X0191187Y0162678D01*
X0192164Y0162575D02*
X0216475Y0162575D01*
X0218070Y0160977D02*
X0194552Y0160977D01*
X0195278Y0159378D02*
X0217100Y0159378D01*
X0215989Y0157780D02*
X0195303Y0157780D01*
X0194667Y0156181D02*
X0215539Y0156181D01*
X0215577Y0154583D02*
X0192651Y0154583D01*
X0191187Y0154583D02*
X0191187Y0154583D01*
X0191187Y0154322D02*
X0191187Y0158500D01*
X0191187Y0158500D01*
X0191187Y0154322D01*
X0189723Y0154583D02*
X0184251Y0154583D01*
X0182375Y0154583D02*
X0160800Y0154583D01*
X0160800Y0156181D02*
X0180006Y0156181D01*
X0179335Y0157780D02*
X0160800Y0157780D01*
X0160800Y0159378D02*
X0179371Y0159378D01*
X0180164Y0160977D02*
X0160800Y0160977D01*
X0160800Y0152984D02*
X0216109Y0152984D01*
X0217336Y0151386D02*
X0160800Y0151386D01*
X0160800Y0149787D02*
X0217792Y0149787D01*
X0216377Y0148189D02*
X0160800Y0148189D01*
X0160800Y0146590D02*
X0215715Y0146590D01*
X0215700Y0144992D02*
X0200254Y0144992D01*
X0200252Y0144993D02*
X0198304Y0145800D01*
X0196196Y0145800D01*
X0194248Y0144993D01*
X0192757Y0143502D01*
X0191950Y0141554D01*
X0191950Y0139446D01*
X0192757Y0137498D01*
X0194248Y0136007D01*
X0195194Y0135615D01*
X0195139Y0135597D01*
X0194367Y0135204D01*
X0193667Y0134695D01*
X0193055Y0134083D01*
X0192546Y0133383D01*
X0192153Y0132611D01*
X0191885Y0131788D01*
X0191750Y0130933D01*
X0191750Y0130700D01*
X0197050Y0130700D01*
X0197050Y0130300D01*
X0191750Y0130300D01*
X0191750Y0130067D01*
X0191885Y0129212D01*
X0192153Y0128389D01*
X0192546Y0127617D01*
X0193055Y0126917D01*
X0193667Y0126305D01*
X0194367Y0125796D01*
X0195139Y0125403D01*
X0195194Y0125385D01*
X0194248Y0124993D01*
X0192757Y0123502D01*
X0191950Y0121554D01*
X0191950Y0119446D01*
X0192757Y0117498D01*
X0194248Y0116007D01*
X0196196Y0115200D01*
X0198304Y0115200D01*
X0200252Y0116007D01*
X0201743Y0117498D01*
X0202550Y0119446D01*
X0202550Y0121554D01*
X0201743Y0123502D01*
X0200252Y0124993D01*
X0199306Y0125385D01*
X0199361Y0125403D01*
X0200133Y0125796D01*
X0200833Y0126305D01*
X0201445Y0126917D01*
X0201954Y0127617D01*
X0202347Y0128389D01*
X0202615Y0129212D01*
X0202750Y0130067D01*
X0202750Y0130300D01*
X0197450Y0130300D01*
X0197450Y0130700D01*
X0202750Y0130700D01*
X0202750Y0130933D01*
X0202615Y0131788D01*
X0202347Y0132611D01*
X0201954Y0133383D01*
X0201445Y0134083D01*
X0200833Y0134695D01*
X0200133Y0135204D01*
X0199361Y0135597D01*
X0199306Y0135615D01*
X0200252Y0136007D01*
X0201743Y0137498D01*
X0202550Y0139446D01*
X0202550Y0141554D01*
X0201743Y0143502D01*
X0200252Y0144993D01*
X0201788Y0143393D02*
X0216136Y0143393D01*
X0217210Y0141795D02*
X0202450Y0141795D01*
X0202550Y0140196D02*
X0218488Y0140196D01*
X0216602Y0138598D02*
X0202199Y0138598D01*
X0201244Y0136999D02*
X0215884Y0136999D01*
X0215700Y0135401D02*
X0199747Y0135401D01*
X0201649Y0133802D02*
X0215967Y0133802D01*
X0216801Y0132204D02*
X0202480Y0132204D01*
X0202548Y0129007D02*
X0217011Y0129007D01*
X0216054Y0127408D02*
X0201802Y0127408D01*
X0200151Y0125810D02*
X0215700Y0125810D01*
X0215797Y0124211D02*
X0201034Y0124211D01*
X0202112Y0122613D02*
X0216459Y0122613D01*
X0217991Y0121014D02*
X0202550Y0121014D01*
X0202537Y0119416D02*
X0217420Y0119416D01*
X0216223Y0117817D02*
X0201875Y0117817D01*
X0200464Y0116218D02*
X0215700Y0116218D01*
X0215700Y0114620D02*
X0160800Y0114620D01*
X0160800Y0116218D02*
X0194036Y0116218D01*
X0192625Y0117817D02*
X0160800Y0117817D01*
X0160800Y0119416D02*
X0191963Y0119416D01*
X0191950Y0121014D02*
X0160800Y0121014D01*
X0160800Y0122613D02*
X0192388Y0122613D01*
X0193466Y0124211D02*
X0160800Y0124211D01*
X0160800Y0125810D02*
X0194349Y0125810D01*
X0192698Y0127408D02*
X0160800Y0127408D01*
X0160800Y0129007D02*
X0191952Y0129007D01*
X0192020Y0132204D02*
X0160800Y0132204D01*
X0160800Y0133802D02*
X0192851Y0133802D01*
X0194753Y0135401D02*
X0160800Y0135401D01*
X0160800Y0136999D02*
X0193256Y0136999D01*
X0192301Y0138598D02*
X0160800Y0138598D01*
X0160800Y0140196D02*
X0191950Y0140196D01*
X0192050Y0141795D02*
X0160800Y0141795D01*
X0160800Y0143393D02*
X0192712Y0143393D01*
X0194246Y0144992D02*
X0160800Y0144992D01*
X0151200Y0144992D02*
X0138800Y0144992D01*
X0138785Y0146590D02*
X0151200Y0146590D01*
X0151200Y0148189D02*
X0138123Y0148189D01*
X0136708Y0149787D02*
X0151200Y0149787D01*
X0151200Y0151386D02*
X0136881Y0151386D01*
X0138195Y0152984D02*
X0151200Y0152984D01*
X0151200Y0154583D02*
X0138800Y0154583D01*
X0138800Y0156181D02*
X0151200Y0156181D01*
X0151200Y0157780D02*
X0138292Y0157780D01*
X0137117Y0159378D02*
X0151200Y0159378D01*
X0151200Y0160977D02*
X0136430Y0160977D01*
X0138025Y0162575D02*
X0151200Y0162575D01*
X0151200Y0164174D02*
X0138687Y0164174D01*
X0138800Y0165772D02*
X0151200Y0165772D01*
X0151200Y0167371D02*
X0138462Y0167371D01*
X0137526Y0168969D02*
X0151200Y0168969D01*
X0151200Y0170568D02*
X0135115Y0170568D01*
X0131885Y0170568D02*
X0065115Y0170568D01*
X0067526Y0168969D02*
X0129474Y0168969D01*
X0128538Y0167371D02*
X0068462Y0167371D01*
X0068800Y0165772D02*
X0128200Y0165772D01*
X0128313Y0164174D02*
X0068687Y0164174D01*
X0068025Y0162575D02*
X0128975Y0162575D01*
X0130570Y0160977D02*
X0066430Y0160977D01*
X0067400Y0159378D02*
X0129883Y0159378D01*
X0128708Y0157780D02*
X0068511Y0157780D01*
X0068961Y0156181D02*
X0128200Y0156181D01*
X0128200Y0154583D02*
X0068923Y0154583D01*
X0068391Y0152984D02*
X0128805Y0152984D01*
X0130119Y0151386D02*
X0067164Y0151386D01*
X0066708Y0149787D02*
X0130292Y0149787D01*
X0128877Y0148189D02*
X0068123Y0148189D01*
X0068785Y0146590D02*
X0128215Y0146590D01*
X0128200Y0144992D02*
X0068800Y0144992D01*
X0068364Y0143393D02*
X0128636Y0143393D01*
X0129710Y0141795D02*
X0067290Y0141795D01*
X0066012Y0140196D02*
X0130607Y0140196D01*
X0128952Y0138598D02*
X0067898Y0138598D01*
X0068616Y0136999D02*
X0128204Y0136999D01*
X0128269Y0133802D02*
X0068533Y0133802D01*
X0068800Y0135401D02*
X0133300Y0135401D01*
X0133700Y0135401D02*
X0151200Y0135401D01*
X0151200Y0136999D02*
X0138796Y0136999D01*
X0138048Y0138598D02*
X0151200Y0138598D01*
X0151200Y0140196D02*
X0136393Y0140196D01*
X0137290Y0141795D02*
X0151200Y0141795D01*
X0151200Y0143393D02*
X0138364Y0143393D01*
X0138731Y0133802D02*
X0151200Y0133802D01*
X0151200Y0132204D02*
X0137903Y0132204D01*
X0136008Y0130605D02*
X0151200Y0130605D01*
X0151200Y0129007D02*
X0137489Y0129007D01*
X0138446Y0127408D02*
X0151200Y0127408D01*
X0151200Y0125810D02*
X0138800Y0125810D01*
X0138703Y0124211D02*
X0151200Y0124211D01*
X0151200Y0122613D02*
X0138041Y0122613D01*
X0136509Y0121014D02*
X0151200Y0121014D01*
X0151200Y0119416D02*
X0137080Y0119416D01*
X0138277Y0117817D02*
X0151200Y0117817D01*
X0151200Y0116218D02*
X0138800Y0116218D01*
X0138800Y0114620D02*
X0151200Y0114620D01*
X0151200Y0113021D02*
X0138210Y0113021D01*
X0136918Y0111423D02*
X0151200Y0111423D01*
X0151200Y0109824D02*
X0136671Y0109824D01*
X0138108Y0108226D02*
X0151200Y0108226D01*
X0151200Y0106627D02*
X0138770Y0106627D01*
X0138800Y0105029D02*
X0151200Y0105029D01*
X0151200Y0103430D02*
X0138379Y0103430D01*
X0137327Y0101832D02*
X0151200Y0101832D01*
X0151200Y0100233D02*
X0135922Y0100233D01*
X0137860Y0098635D02*
X0151200Y0098635D01*
X0151200Y0097036D02*
X0138600Y0097036D01*
X0138800Y0095438D02*
X0151200Y0095438D01*
X0151200Y0093839D02*
X0138549Y0093839D01*
X0137736Y0092241D02*
X0151200Y0092241D01*
X0151200Y0090642D02*
X0135622Y0090642D01*
X0137452Y0089044D02*
X0151200Y0089044D01*
X0151200Y0087445D02*
X0138431Y0087445D01*
X0138800Y0085847D02*
X0151200Y0085847D01*
X0151200Y0084248D02*
X0138718Y0084248D01*
X0138056Y0082650D02*
X0151200Y0082650D01*
X0151200Y0081051D02*
X0136547Y0081051D01*
X0137043Y0079453D02*
X0151200Y0079453D01*
X0151200Y0077854D02*
X0138262Y0077854D01*
X0138800Y0076256D02*
X0151200Y0076256D01*
X0151200Y0074657D02*
X0138800Y0074657D01*
X0138225Y0073059D02*
X0151200Y0073059D01*
X0151200Y0071460D02*
X0136955Y0071460D01*
X0136634Y0069862D02*
X0151200Y0069862D01*
X0151200Y0068263D02*
X0138092Y0068263D01*
X0138754Y0066665D02*
X0151200Y0066665D01*
X0151200Y0065066D02*
X0138800Y0065066D01*
X0130366Y0069862D02*
X0066634Y0069862D01*
X0066955Y0071460D02*
X0130045Y0071460D01*
X0128775Y0073059D02*
X0068225Y0073059D01*
X0068800Y0074657D02*
X0128200Y0074657D01*
X0128200Y0076256D02*
X0068800Y0076256D01*
X0068262Y0077854D02*
X0128738Y0077854D01*
X0129957Y0079453D02*
X0067043Y0079453D01*
X0066547Y0081051D02*
X0130453Y0081051D01*
X0128944Y0082650D02*
X0068056Y0082650D01*
X0068718Y0084248D02*
X0128282Y0084248D01*
X0128200Y0085847D02*
X0068800Y0085847D01*
X0068431Y0087445D02*
X0128569Y0087445D01*
X0129548Y0089044D02*
X0067452Y0089044D01*
X0065622Y0090642D02*
X0131378Y0090642D01*
X0129264Y0092241D02*
X0067736Y0092241D01*
X0068549Y0093839D02*
X0128451Y0093839D01*
X0128200Y0095438D02*
X0068800Y0095438D01*
X0068600Y0097036D02*
X0128400Y0097036D01*
X0129140Y0098635D02*
X0067860Y0098635D01*
X0065922Y0100233D02*
X0131078Y0100233D01*
X0129673Y0101832D02*
X0067327Y0101832D01*
X0068379Y0103430D02*
X0128621Y0103430D01*
X0128200Y0105029D02*
X0068800Y0105029D01*
X0068770Y0106627D02*
X0128230Y0106627D01*
X0128892Y0108226D02*
X0068108Y0108226D01*
X0066671Y0109824D02*
X0130329Y0109824D01*
X0130082Y0111423D02*
X0066918Y0111423D01*
X0068210Y0113021D02*
X0128790Y0113021D01*
X0128200Y0114620D02*
X0068800Y0114620D01*
X0068800Y0116218D02*
X0128200Y0116218D01*
X0128723Y0117817D02*
X0068277Y0117817D01*
X0067080Y0119416D02*
X0129920Y0119416D01*
X0130491Y0121014D02*
X0066509Y0121014D01*
X0068041Y0122613D02*
X0128959Y0122613D01*
X0128297Y0124211D02*
X0068703Y0124211D01*
X0068800Y0125810D02*
X0128200Y0125810D01*
X0128554Y0127408D02*
X0068446Y0127408D01*
X0067489Y0129007D02*
X0129511Y0129007D01*
X0130992Y0130605D02*
X0065532Y0130605D01*
X0067699Y0132204D02*
X0129097Y0132204D01*
X0160800Y0130605D02*
X0197050Y0130605D01*
X0197450Y0130605D02*
X0218968Y0130605D01*
X0223032Y0130605D02*
X0288492Y0130605D01*
X0287011Y0129007D02*
X0224989Y0129007D01*
X0225946Y0127408D02*
X0286054Y0127408D01*
X0285700Y0125810D02*
X0226300Y0125810D01*
X0226203Y0124211D02*
X0285797Y0124211D01*
X0286459Y0122613D02*
X0225541Y0122613D01*
X0224009Y0121014D02*
X0287991Y0121014D01*
X0287420Y0119416D02*
X0224580Y0119416D01*
X0225777Y0117817D02*
X0286223Y0117817D01*
X0285700Y0116218D02*
X0226300Y0116218D01*
X0226300Y0114620D02*
X0285700Y0114620D01*
X0286290Y0113021D02*
X0225710Y0113021D01*
X0224418Y0111423D02*
X0287582Y0111423D01*
X0287829Y0109824D02*
X0224171Y0109824D01*
X0225608Y0108226D02*
X0286392Y0108226D01*
X0285730Y0106627D02*
X0226270Y0106627D01*
X0226300Y0105029D02*
X0285700Y0105029D01*
X0286121Y0103430D02*
X0225879Y0103430D01*
X0224827Y0101832D02*
X0287173Y0101832D01*
X0288578Y0100233D02*
X0223422Y0100233D01*
X0225360Y0098635D02*
X0286640Y0098635D01*
X0285900Y0097036D02*
X0226100Y0097036D01*
X0226300Y0095438D02*
X0285700Y0095438D01*
X0285951Y0093839D02*
X0226049Y0093839D01*
X0225236Y0092241D02*
X0286764Y0092241D01*
X0288878Y0090642D02*
X0223122Y0090642D01*
X0224952Y0089044D02*
X0287048Y0089044D01*
X0286069Y0087445D02*
X0225931Y0087445D01*
X0226300Y0085847D02*
X0285700Y0085847D01*
X0285782Y0084248D02*
X0226218Y0084248D01*
X0225556Y0082650D02*
X0286444Y0082650D01*
X0287953Y0081051D02*
X0224047Y0081051D01*
X0224543Y0079453D02*
X0287457Y0079453D01*
X0286238Y0077854D02*
X0225762Y0077854D01*
X0226300Y0076256D02*
X0285700Y0076256D01*
X0285700Y0074657D02*
X0226300Y0074657D01*
X0225725Y0073059D02*
X0286275Y0073059D01*
X0287545Y0071460D02*
X0224455Y0071460D01*
X0224134Y0069862D02*
X0287866Y0069862D01*
X0286408Y0068263D02*
X0225592Y0068263D01*
X0226254Y0066665D02*
X0285746Y0066665D01*
X0285700Y0065066D02*
X0226300Y0065066D01*
X0217866Y0069862D02*
X0193153Y0069862D01*
X0193849Y0068263D02*
X0216408Y0068263D01*
X0215995Y0068263D02*
X0205578Y0068263D01*
X0215746Y0066665D02*
X0193858Y0066665D01*
X0215746Y0066665D01*
X0215700Y0065066D02*
X0193192Y0065066D01*
X0215700Y0065066D01*
X0215901Y0063468D02*
X0191054Y0063468D01*
X0193070Y0061869D02*
X0215870Y0061869D01*
X0215839Y0060271D02*
X0193728Y0060271D01*
X0193687Y0058672D02*
X0215807Y0058672D01*
X0215776Y0057074D02*
X0192886Y0057074D01*
X0191004Y0055475D02*
X0215700Y0055475D01*
X0215713Y0053877D02*
X0193150Y0053877D01*
X0193728Y0052278D02*
X0215682Y0052278D01*
X0215651Y0050680D02*
X0193638Y0050680D01*
X0192768Y0049081D02*
X0215619Y0049081D01*
X0215588Y0047482D02*
X0161000Y0047482D01*
X0161000Y0045884D02*
X0215557Y0045884D01*
X0215525Y0044285D02*
X0161000Y0044285D01*
X0161000Y0042687D02*
X0215494Y0042687D01*
X0215463Y0041088D02*
X0161000Y0041088D01*
X0161000Y0039490D02*
X0215431Y0039490D01*
X0215400Y0037891D02*
X0211545Y0037891D01*
X0211314Y0038122D02*
X0209852Y0038728D01*
X0208270Y0038728D01*
X0206808Y0038122D01*
X0205689Y0037003D01*
X0205124Y0035640D01*
X0204559Y0037003D01*
X0203440Y0038122D01*
X0201978Y0038728D01*
X0200396Y0038728D01*
X0198934Y0038122D01*
X0197815Y0037003D01*
X0197343Y0035866D01*
X0197185Y0036354D01*
X0196886Y0036940D01*
X0196500Y0037472D01*
X0196035Y0037937D01*
X0195503Y0038323D01*
X0194917Y0038622D01*
X0194291Y0038825D01*
X0193642Y0038928D01*
X0193313Y0038928D01*
X0193313Y0034750D01*
X0193313Y0034750D01*
X0193313Y0030572D01*
X0193642Y0030572D01*
X0194291Y0030675D01*
X0194917Y0030878D01*
X0195503Y0031177D01*
X0196035Y0031563D01*
X0196500Y0032028D01*
X0196886Y0032560D01*
X0197185Y0033146D01*
X0197343Y0033634D01*
X0197815Y0032497D01*
X0198934Y0031378D01*
X0200396Y0030772D01*
X0201978Y0030772D01*
X0203440Y0031378D01*
X0204559Y0032497D01*
X0205124Y0033860D01*
X0205689Y0032497D01*
X0206808Y0031378D01*
X0208270Y0030772D01*
X0209852Y0030772D01*
X0211314Y0031378D01*
X0212433Y0032497D01*
X0213039Y0033959D01*
X0213039Y0035541D01*
X0212433Y0037003D01*
X0211314Y0038122D01*
X0212728Y0036293D02*
X0215368Y0036293D01*
X0215337Y0034694D02*
X0213039Y0034694D01*
X0212682Y0033096D02*
X0215306Y0033096D01*
X0215274Y0031497D02*
X0211434Y0031497D01*
X0215243Y0029899D02*
X0161000Y0029899D01*
X0161000Y0031497D02*
X0183066Y0031497D01*
X0183186Y0031378D02*
X0184648Y0030772D01*
X0186230Y0030772D01*
X0187692Y0031378D01*
X0188811Y0032497D01*
X0189283Y0033634D01*
X0189441Y0033146D01*
X0189740Y0032560D01*
X0190126Y0032028D01*
X0190591Y0031563D01*
X0191123Y0031177D01*
X0191709Y0030878D01*
X0192335Y0030675D01*
X0192984Y0030572D01*
X0193313Y0030572D01*
X0193313Y0034750D01*
X0193313Y0034750D01*
X0193313Y0038928D01*
X0192984Y0038928D01*
X0192335Y0038825D01*
X0191709Y0038622D01*
X0191123Y0038323D01*
X0190591Y0037937D01*
X0190126Y0037472D01*
X0189740Y0036940D01*
X0189441Y0036354D01*
X0189283Y0035866D01*
X0188811Y0037003D01*
X0187692Y0038122D01*
X0186230Y0038728D01*
X0184648Y0038728D01*
X0183186Y0038122D01*
X0182067Y0037003D01*
X0181461Y0035541D01*
X0181461Y0033959D01*
X0182067Y0032497D01*
X0183186Y0031378D01*
X0181818Y0033096D02*
X0161000Y0033096D01*
X0161000Y0034694D02*
X0181461Y0034694D01*
X0181772Y0036293D02*
X0161000Y0036293D01*
X0161000Y0037891D02*
X0182955Y0037891D01*
X0187923Y0037891D02*
X0190546Y0037891D01*
X0189421Y0036293D02*
X0189106Y0036293D01*
X0189060Y0033096D02*
X0189467Y0033096D01*
X0190682Y0031497D02*
X0187812Y0031497D01*
X0193313Y0031497D02*
X0193313Y0031497D01*
X0193313Y0033096D02*
X0193313Y0033096D01*
X0193313Y0034694D02*
X0193313Y0034694D01*
X0193313Y0036293D02*
X0193313Y0036293D01*
X0193313Y0037891D02*
X0193313Y0037891D01*
X0196080Y0037891D02*
X0198703Y0037891D01*
X0197520Y0036293D02*
X0197205Y0036293D01*
X0197159Y0033096D02*
X0197566Y0033096D01*
X0198814Y0031497D02*
X0195944Y0031497D01*
X0203560Y0031497D02*
X0206688Y0031497D01*
X0205440Y0033096D02*
X0204808Y0033096D01*
X0204854Y0036293D02*
X0205394Y0036293D01*
X0206577Y0037891D02*
X0203671Y0037891D01*
X0215212Y0028300D02*
X0161000Y0028300D01*
X0161000Y0026702D02*
X0215180Y0026702D01*
X0215149Y0025103D02*
X0161000Y0025103D01*
X0161000Y0023505D02*
X0215118Y0023505D01*
X0215086Y0021906D02*
X0161000Y0021906D01*
X0161000Y0020308D02*
X0215055Y0020308D01*
X0215024Y0018709D02*
X0171106Y0018709D01*
X0173222Y0017111D02*
X0214992Y0017111D01*
X0214961Y0015512D02*
X0174580Y0015512D01*
X0175503Y0013914D02*
X0214930Y0013914D01*
X0214898Y0012315D02*
X0175988Y0012315D01*
X0176312Y0010717D02*
X0214867Y0010717D01*
X0214836Y0009118D02*
X0176312Y0009118D01*
X0176078Y0007520D02*
X0214804Y0007520D01*
X0214773Y0005921D02*
X0175650Y0005921D01*
X0186732Y0049081D02*
X0161000Y0049081D01*
X0161000Y0050680D02*
X0185862Y0050680D01*
X0185772Y0052278D02*
X0161000Y0052278D01*
X0161000Y0053877D02*
X0186350Y0053877D01*
X0188496Y0055475D02*
X0161000Y0055475D01*
X0161000Y0057074D02*
X0186614Y0057074D01*
X0185813Y0058672D02*
X0161000Y0058672D01*
X0161000Y0060271D02*
X0185772Y0060271D01*
X0186430Y0061869D02*
X0161000Y0061869D01*
X0161000Y0063468D02*
X0188446Y0063468D01*
X0186308Y0065066D02*
X0161000Y0065066D01*
X0160800Y0065066D02*
X0186308Y0065066D01*
X0185642Y0066665D02*
X0161000Y0066665D01*
X0160800Y0066665D02*
X0185642Y0066665D01*
X0185572Y0067437D02*
X0189750Y0067437D01*
X0189750Y0067437D01*
X0189750Y0067437D01*
X0185572Y0067437D01*
X0185651Y0068263D02*
X0160800Y0068263D01*
X0160800Y0069862D02*
X0186347Y0069862D01*
X0188612Y0071460D02*
X0160800Y0071460D01*
X0160800Y0073059D02*
X0186377Y0073059D01*
X0185772Y0074657D02*
X0160800Y0074657D01*
X0160800Y0076256D02*
X0185836Y0076256D01*
X0186668Y0077854D02*
X0160800Y0077854D01*
X0160800Y0079453D02*
X0217457Y0079453D01*
X0217953Y0081051D02*
X0160800Y0081051D01*
X0160800Y0082650D02*
X0216444Y0082650D01*
X0215782Y0084248D02*
X0160800Y0084248D01*
X0160800Y0085847D02*
X0215700Y0085847D01*
X0216069Y0087445D02*
X0160800Y0087445D01*
X0160800Y0089044D02*
X0217048Y0089044D01*
X0218878Y0090642D02*
X0160800Y0090642D01*
X0160800Y0092241D02*
X0216764Y0092241D01*
X0215951Y0093839D02*
X0160800Y0093839D01*
X0160800Y0095438D02*
X0215700Y0095438D01*
X0215900Y0097036D02*
X0160800Y0097036D01*
X0160800Y0098635D02*
X0216640Y0098635D01*
X0218578Y0100233D02*
X0160800Y0100233D01*
X0160800Y0101832D02*
X0217173Y0101832D01*
X0216121Y0103430D02*
X0160800Y0103430D01*
X0160800Y0105029D02*
X0215700Y0105029D01*
X0215730Y0106627D02*
X0160800Y0106627D01*
X0160800Y0108226D02*
X0216392Y0108226D01*
X0217829Y0109824D02*
X0160800Y0109824D01*
X0160800Y0111423D02*
X0217582Y0111423D01*
X0216290Y0113021D02*
X0160800Y0113021D01*
X0192832Y0077854D02*
X0216238Y0077854D01*
X0215700Y0076256D02*
X0193664Y0076256D01*
X0193728Y0074657D02*
X0215700Y0074657D01*
X0216275Y0073059D02*
X0193123Y0073059D01*
X0190888Y0071460D02*
X0217545Y0071460D01*
X0225199Y0132204D02*
X0286597Y0132204D01*
X0285769Y0133802D02*
X0226033Y0133802D01*
X0191187Y0156181D02*
X0191187Y0156181D01*
X0191187Y0157780D02*
X0191187Y0157780D01*
X0191187Y0159378D02*
X0191187Y0159378D01*
X0191187Y0160977D02*
X0191187Y0160977D01*
X0187822Y0160977D02*
X0186462Y0160977D01*
X0186620Y0156181D02*
X0187707Y0156181D01*
X0172098Y0173765D02*
X0297573Y0173765D01*
X0295803Y0175363D02*
X0173403Y0175363D01*
X0174326Y0176962D02*
X0294646Y0176962D01*
X0293813Y0178560D02*
X0174772Y0178560D01*
X0175062Y0180159D02*
X0293385Y0180159D01*
X0293188Y0181757D02*
X0175062Y0181757D01*
X0174794Y0183356D02*
X0293188Y0183356D01*
X0301291Y0172166D02*
X0170073Y0172166D01*
X0175062Y0196144D02*
X0211076Y0196144D01*
X0211108Y0197743D02*
X0175062Y0197743D01*
X0174865Y0199341D02*
X0211139Y0199341D01*
X0211170Y0200940D02*
X0174437Y0200940D01*
X0173604Y0202538D02*
X0211202Y0202538D01*
X0211233Y0204137D02*
X0172446Y0204137D01*
X0170677Y0205735D02*
X0211264Y0205735D01*
X0211296Y0207334D02*
X0166959Y0207334D01*
X0162541Y0207334D02*
X0160800Y0207334D01*
X0160800Y0208932D02*
X0211327Y0208932D01*
X0211358Y0210531D02*
X0160800Y0210531D01*
X0160800Y0212129D02*
X0211390Y0212129D01*
X0211421Y0213728D02*
X0160800Y0213728D01*
X0160800Y0215326D02*
X0211452Y0215326D01*
X0211484Y0216925D02*
X0205611Y0216925D01*
X0205064Y0216378D02*
X0206183Y0217497D01*
X0206789Y0218959D01*
X0206789Y0220541D01*
X0206183Y0222003D01*
X0205064Y0223122D01*
X0203602Y0223728D01*
X0202020Y0223728D01*
X0200558Y0223122D01*
X0199439Y0222003D01*
X0198874Y0220640D01*
X0198309Y0222003D01*
X0197190Y0223122D01*
X0195728Y0223728D01*
X0194146Y0223728D01*
X0192684Y0223122D01*
X0191565Y0222003D01*
X0191093Y0220866D01*
X0190935Y0221354D01*
X0190636Y0221940D01*
X0190250Y0222472D01*
X0189785Y0222937D01*
X0189253Y0223323D01*
X0188667Y0223622D01*
X0188041Y0223825D01*
X0187392Y0223928D01*
X0187063Y0223928D01*
X0187063Y0219750D01*
X0187063Y0219750D01*
X0187063Y0215572D01*
X0187392Y0215572D01*
X0188041Y0215675D01*
X0188667Y0215878D01*
X0189253Y0216177D01*
X0189785Y0216563D01*
X0190250Y0217028D01*
X0190636Y0217560D01*
X0190935Y0218146D01*
X0191093Y0218634D01*
X0191565Y0217497D01*
X0192684Y0216378D01*
X0194146Y0215772D01*
X0195728Y0215772D01*
X0197190Y0216378D01*
X0198309Y0217497D01*
X0198874Y0218860D01*
X0199439Y0217497D01*
X0200558Y0216378D01*
X0202020Y0215772D01*
X0203602Y0215772D01*
X0205064Y0216378D01*
X0206609Y0218523D02*
X0211515Y0218523D01*
X0211547Y0220122D02*
X0206789Y0220122D01*
X0206301Y0221720D02*
X0211578Y0221720D01*
X0211609Y0223319D02*
X0204590Y0223319D01*
X0201032Y0223319D02*
X0196716Y0223319D01*
X0198427Y0221720D02*
X0199321Y0221720D01*
X0199013Y0218523D02*
X0198735Y0218523D01*
X0197737Y0216925D02*
X0200011Y0216925D01*
X0192137Y0216925D02*
X0190146Y0216925D01*
X0191057Y0218523D02*
X0191139Y0218523D01*
X0191447Y0221720D02*
X0190748Y0221720D01*
X0189259Y0223319D02*
X0193158Y0223319D01*
X0187063Y0223319D02*
X0187063Y0223319D01*
X0187063Y0223928D02*
X0186734Y0223928D01*
X0186085Y0223825D01*
X0185459Y0223622D01*
X0184873Y0223323D01*
X0184341Y0222937D01*
X0183876Y0222472D01*
X0183490Y0221940D01*
X0183191Y0221354D01*
X0183033Y0220866D01*
X0182561Y0222003D01*
X0181442Y0223122D01*
X0179980Y0223728D01*
X0178398Y0223728D01*
X0176936Y0223122D01*
X0175817Y0222003D01*
X0175211Y0220541D01*
X0175211Y0218959D01*
X0175817Y0217497D01*
X0176936Y0216378D01*
X0178398Y0215772D01*
X0179980Y0215772D01*
X0181442Y0216378D01*
X0182561Y0217497D01*
X0183033Y0218634D01*
X0183191Y0218146D01*
X0183490Y0217560D01*
X0183876Y0217028D01*
X0184341Y0216563D01*
X0184873Y0216177D01*
X0185459Y0215878D01*
X0186085Y0215675D01*
X0186734Y0215572D01*
X0187063Y0215572D01*
X0187063Y0219750D01*
X0187063Y0219750D01*
X0187063Y0223928D01*
X0187063Y0221720D02*
X0187063Y0221720D01*
X0187063Y0220122D02*
X0187063Y0220122D01*
X0187063Y0218523D02*
X0187063Y0218523D01*
X0187063Y0216925D02*
X0187063Y0216925D01*
X0183980Y0216925D02*
X0181989Y0216925D01*
X0182987Y0218523D02*
X0183069Y0218523D01*
X0183378Y0221720D02*
X0182679Y0221720D01*
X0180968Y0223319D02*
X0184867Y0223319D01*
X0177410Y0223319D02*
X0160800Y0223319D01*
X0160800Y0224917D02*
X0211641Y0224917D01*
X0211672Y0226516D02*
X0160800Y0226516D01*
X0160800Y0228114D02*
X0211703Y0228114D01*
X0211735Y0229713D02*
X0160800Y0229713D01*
X0160800Y0231311D02*
X0211766Y0231311D01*
X0211797Y0232910D02*
X0193521Y0232910D01*
X0190979Y0232910D02*
X0160800Y0232910D01*
X0160800Y0234508D02*
X0188848Y0234508D01*
X0188272Y0236107D02*
X0160800Y0236107D01*
X0160800Y0237705D02*
X0188365Y0237705D01*
X0189239Y0239304D02*
X0160800Y0239304D01*
X0160800Y0240902D02*
X0190693Y0240902D01*
X0188798Y0242501D02*
X0160800Y0242501D01*
X0160800Y0244099D02*
X0188272Y0244099D01*
X0188414Y0245698D02*
X0160800Y0245698D01*
X0160800Y0247296D02*
X0189358Y0247296D01*
X0190017Y0248895D02*
X0160800Y0248895D01*
X0160800Y0250493D02*
X0188551Y0250493D01*
X0188075Y0252092D02*
X0160800Y0252092D01*
X0160800Y0253690D02*
X0188264Y0253690D01*
X0188072Y0252437D02*
X0192250Y0252437D01*
X0196428Y0252437D01*
X0192250Y0252437D01*
X0192250Y0252437D01*
X0188072Y0252437D01*
X0192250Y0252437D02*
X0192250Y0252437D01*
X0196236Y0253690D02*
X0210700Y0253690D01*
X0210700Y0255289D02*
X0195307Y0255289D01*
X0210700Y0255289D01*
X0211356Y0256887D02*
X0194380Y0256887D01*
X0195800Y0258486D02*
X0212741Y0258486D01*
X0212670Y0260084D02*
X0196228Y0260084D01*
X0195987Y0261683D02*
X0211327Y0261683D01*
X0211157Y0252092D02*
X0196425Y0252092D01*
X0195949Y0250493D02*
X0212142Y0250493D01*
X0212111Y0248895D02*
X0194483Y0248895D01*
X0195142Y0247296D02*
X0211551Y0247296D01*
X0210863Y0245698D02*
X0196086Y0245698D01*
X0196228Y0244099D02*
X0210700Y0244099D01*
X0210988Y0242501D02*
X0195702Y0242501D01*
X0193807Y0240902D02*
X0211852Y0240902D01*
X0211923Y0239304D02*
X0195261Y0239304D01*
X0196135Y0237705D02*
X0211891Y0237705D01*
X0211860Y0236107D02*
X0196228Y0236107D01*
X0195652Y0234508D02*
X0211829Y0234508D01*
X0221300Y0255289D02*
X0280700Y0255289D01*
X0281356Y0256887D02*
X0220644Y0256887D01*
X0181843Y0253690D02*
X0160800Y0253690D01*
X0160800Y0221720D02*
X0175699Y0221720D01*
X0175211Y0220122D02*
X0160800Y0220122D01*
X0160800Y0218523D02*
X0175391Y0218523D01*
X0176389Y0216925D02*
X0160800Y0216925D01*
X0060988Y0140196D02*
X0045827Y0140196D01*
X0046300Y0138598D02*
X0059102Y0138598D01*
X0058384Y0136999D02*
X0046300Y0136999D01*
X0045660Y0135401D02*
X0058200Y0135401D01*
X0058467Y0133802D02*
X0044297Y0133802D01*
X0044571Y0132204D02*
X0059301Y0132204D01*
X0061468Y0130605D02*
X0045845Y0130605D01*
X0046409Y0129007D02*
X0059511Y0129007D01*
X0058554Y0127408D02*
X0046475Y0127408D01*
X0046057Y0125810D02*
X0058200Y0125810D01*
X0058297Y0124211D02*
X0044989Y0124211D01*
X0043714Y0122613D02*
X0058959Y0122613D01*
X0060491Y0121014D02*
X0045481Y0121014D01*
X0046150Y0119416D02*
X0059920Y0119416D01*
X0058723Y0117817D02*
X0046300Y0117817D01*
X0045999Y0116218D02*
X0058200Y0116218D01*
X0058200Y0114620D02*
X0045115Y0114620D01*
X0044701Y0141795D02*
X0059710Y0141795D01*
X0058039Y0156181D02*
X0042167Y0156181D01*
X0042803Y0157780D02*
X0058489Y0157780D01*
X0059600Y0159378D02*
X0042778Y0159378D01*
X0042052Y0160977D02*
X0060570Y0160977D01*
X0038687Y0160977D02*
X0038687Y0160977D01*
X0038687Y0159378D02*
X0038687Y0159378D01*
X0038687Y0157780D02*
X0038687Y0157780D01*
X0038687Y0156181D02*
X0038687Y0156181D01*
X0035207Y0156181D02*
X0034120Y0156181D01*
X0033962Y0160977D02*
X0035322Y0160977D01*
X0022639Y0216925D02*
X0005800Y0216925D01*
X0005800Y0218523D02*
X0021641Y0218523D01*
X0021461Y0220122D02*
X0005800Y0220122D01*
X0005800Y0221720D02*
X0021949Y0221720D01*
X0032903Y0232910D02*
X0005800Y0232910D01*
X0005800Y0234508D02*
X0032080Y0234508D01*
X0032022Y0236107D02*
X0005800Y0236107D01*
X0005800Y0237705D02*
X0032641Y0237705D01*
X0039405Y0256887D02*
X0057088Y0256887D01*
X0057750Y0258486D02*
X0039978Y0258486D01*
X0039882Y0260084D02*
X0059468Y0260084D01*
X0058572Y0261683D02*
X0039004Y0261683D01*
X0032996Y0261683D02*
X0005800Y0261683D01*
X0005800Y0260084D02*
X0032118Y0260084D01*
X0032022Y0258486D02*
X0005800Y0258486D01*
X0005800Y0263282D02*
X0057432Y0263282D01*
X0056950Y0264880D02*
X0005800Y0264880D01*
X0005800Y0266479D02*
X0056950Y0266479D01*
X0057581Y0268077D02*
X0005800Y0268077D01*
X0005800Y0269676D02*
X0058930Y0269676D01*
X0058981Y0271274D02*
X0005800Y0271274D01*
X0005800Y0272873D02*
X0057602Y0272873D01*
X0056950Y0274471D02*
X0005800Y0274471D01*
X0005800Y0276070D02*
X0056950Y0276070D01*
X0057411Y0277668D02*
X0005800Y0277668D01*
X0005800Y0279267D02*
X0058521Y0279267D01*
X0059590Y0280865D02*
X0005800Y0280865D01*
X0005800Y0282464D02*
X0057791Y0282464D01*
X0057109Y0284062D02*
X0005800Y0284062D01*
X0005800Y0285661D02*
X0056950Y0285661D01*
X0057242Y0287259D02*
X0005800Y0287259D01*
X0005800Y0288858D02*
X0058112Y0288858D01*
X0060366Y0290456D02*
X0005800Y0290456D01*
X0005800Y0292055D02*
X0058200Y0292055D01*
X0057278Y0293653D02*
X0005800Y0293653D01*
X0005800Y0295252D02*
X0056950Y0295252D01*
X0057073Y0296850D02*
X0005800Y0296850D01*
X0005800Y0298449D02*
X0057735Y0298449D01*
X0059379Y0300047D02*
X0005800Y0300047D01*
X0005800Y0301646D02*
X0058609Y0301646D01*
X0057448Y0303244D02*
X0005800Y0303244D01*
X0045491Y0322426D02*
X0057828Y0322426D01*
X0059680Y0320828D02*
X0046270Y0320828D01*
X0066425Y0328820D02*
X0127864Y0328820D01*
X0127026Y0327222D02*
X0067273Y0327222D01*
X0292615Y0170568D02*
X0306200Y0170568D01*
X0306200Y0172166D02*
X0305709Y0172166D01*
X0306200Y0168969D02*
X0295026Y0168969D01*
X0295962Y0167371D02*
X0306200Y0167371D01*
X0306200Y0165772D02*
X0296300Y0165772D01*
X0296187Y0164174D02*
X0306200Y0164174D01*
X0306200Y0162575D02*
X0295525Y0162575D01*
X0293930Y0160977D02*
X0306200Y0160977D01*
X0306200Y0159378D02*
X0294617Y0159378D01*
X0295792Y0157780D02*
X0306200Y0157780D01*
X0306200Y0156181D02*
X0296300Y0156181D01*
X0296300Y0154583D02*
X0306200Y0154583D01*
X0306200Y0152984D02*
X0295695Y0152984D01*
X0294381Y0151386D02*
X0306200Y0151386D01*
X0306200Y0149787D02*
X0294208Y0149787D01*
X0295623Y0148189D02*
X0306200Y0148189D01*
X0306200Y0146590D02*
X0296285Y0146590D01*
X0296300Y0144992D02*
X0306200Y0144992D01*
X0306200Y0143393D02*
X0295864Y0143393D01*
X0294790Y0141795D02*
X0306200Y0141795D01*
X0306200Y0140196D02*
X0293893Y0140196D01*
X0295548Y0138598D02*
X0306200Y0138598D01*
X0315800Y0148189D02*
X0368877Y0148189D01*
X0370292Y0149787D02*
X0315800Y0149787D01*
X0315800Y0151386D02*
X0369836Y0151386D01*
X0368609Y0152984D02*
X0315800Y0152984D01*
X0342870Y0156181D02*
X0343957Y0156181D01*
X0347437Y0156181D02*
X0347437Y0156181D01*
X0347437Y0157780D02*
X0347437Y0157780D01*
X0347437Y0159378D02*
X0347437Y0159378D01*
X0347437Y0160977D02*
X0347437Y0160977D01*
X0344072Y0160977D02*
X0342712Y0160977D01*
X0306200Y0116218D02*
X0296300Y0116218D01*
X0296300Y0114620D02*
X0306200Y0114620D01*
X0306200Y0113021D02*
X0295710Y0113021D01*
X0294418Y0111423D02*
X0306200Y0111423D01*
X0306200Y0109824D02*
X0294171Y0109824D01*
X0295608Y0108226D02*
X0306200Y0108226D01*
X0306200Y0106627D02*
X0296270Y0106627D01*
X0296300Y0105029D02*
X0306200Y0105029D01*
X0306200Y0103430D02*
X0295879Y0103430D01*
X0294827Y0101832D02*
X0306200Y0101832D01*
X0306200Y0100233D02*
X0293422Y0100233D01*
X0295360Y0098635D02*
X0306200Y0098635D01*
X0306200Y0097036D02*
X0296100Y0097036D01*
X0296300Y0095438D02*
X0306200Y0095438D01*
X0306200Y0093839D02*
X0296049Y0093839D01*
X0295236Y0092241D02*
X0306200Y0092241D01*
X0306200Y0090642D02*
X0293122Y0090642D01*
X0294952Y0089044D02*
X0306200Y0089044D01*
X0306200Y0087445D02*
X0295931Y0087445D01*
X0296300Y0085847D02*
X0306200Y0085847D01*
X0306200Y0084248D02*
X0296218Y0084248D01*
X0295556Y0082650D02*
X0306200Y0082650D01*
X0306200Y0081051D02*
X0294047Y0081051D01*
X0294543Y0079453D02*
X0306200Y0079453D01*
X0306200Y0077854D02*
X0295762Y0077854D01*
X0296300Y0076256D02*
X0306200Y0076256D01*
X0306200Y0074657D02*
X0296300Y0074657D01*
X0295725Y0073059D02*
X0306200Y0073059D01*
X0306200Y0071460D02*
X0294455Y0071460D01*
X0294134Y0069862D02*
X0306200Y0069862D01*
X0306200Y0068263D02*
X0295592Y0068263D01*
X0296254Y0066665D02*
X0306200Y0066665D01*
X0306200Y0065066D02*
X0296300Y0065066D01*
X0315800Y0065066D02*
X0343221Y0065066D01*
X0315800Y0065066D01*
X0315800Y0063468D02*
X0344062Y0063468D01*
X0345440Y0061869D02*
X0315800Y0061869D01*
X0315800Y0060271D02*
X0343755Y0060271D01*
X0343272Y0058672D02*
X0315800Y0058672D01*
X0315800Y0057074D02*
X0343458Y0057074D01*
X0344462Y0055475D02*
X0315800Y0055475D01*
X0315800Y0053877D02*
X0345154Y0053877D01*
X0343706Y0052278D02*
X0315800Y0052278D01*
X0315800Y0050680D02*
X0343272Y0050680D01*
X0343507Y0049081D02*
X0315800Y0049081D01*
X0315800Y0047482D02*
X0344581Y0047482D01*
X0349919Y0047482D02*
X0369313Y0047482D01*
X0369282Y0045884D02*
X0315800Y0045884D01*
X0315800Y0044285D02*
X0369251Y0044285D01*
X0369219Y0042687D02*
X0315800Y0042687D01*
X0315800Y0041088D02*
X0369188Y0041088D01*
X0369157Y0039490D02*
X0315800Y0039490D01*
X0315800Y0037891D02*
X0369125Y0037891D01*
X0369094Y0036293D02*
X0363144Y0036293D01*
X0363683Y0035753D02*
X0362564Y0036872D01*
X0361102Y0037478D01*
X0359520Y0037478D01*
X0358058Y0036872D01*
X0356939Y0035753D01*
X0356374Y0034390D01*
X0355809Y0035753D01*
X0354690Y0036872D01*
X0353228Y0037478D01*
X0351646Y0037478D01*
X0350184Y0036872D01*
X0349065Y0035753D01*
X0348593Y0034616D01*
X0348435Y0035104D01*
X0348136Y0035690D01*
X0347750Y0036222D01*
X0347285Y0036687D01*
X0346753Y0037073D01*
X0346167Y0037372D01*
X0345541Y0037575D01*
X0344892Y0037678D01*
X0344563Y0037678D01*
X0344563Y0033500D01*
X0344563Y0033500D01*
X0344563Y0029322D01*
X0344892Y0029322D01*
X0345541Y0029425D01*
X0346167Y0029628D01*
X0346753Y0029927D01*
X0347285Y0030313D01*
X0347750Y0030778D01*
X0348136Y0031310D01*
X0348435Y0031896D01*
X0348593Y0032384D01*
X0349065Y0031247D01*
X0350184Y0030128D01*
X0351646Y0029522D01*
X0353228Y0029522D01*
X0354690Y0030128D01*
X0355809Y0031247D01*
X0356374Y0032610D01*
X0356939Y0031247D01*
X0358058Y0030128D01*
X0359520Y0029522D01*
X0361102Y0029522D01*
X0362564Y0030128D01*
X0363683Y0031247D01*
X0364289Y0032709D01*
X0364289Y0034291D01*
X0363683Y0035753D01*
X0364122Y0034694D02*
X0369063Y0034694D01*
X0369031Y0033096D02*
X0364289Y0033096D01*
X0363787Y0031497D02*
X0369000Y0031497D01*
X0368969Y0029899D02*
X0362012Y0029899D01*
X0358610Y0029899D02*
X0354138Y0029899D01*
X0355913Y0031497D02*
X0356835Y0031497D01*
X0356500Y0034694D02*
X0356248Y0034694D01*
X0355270Y0036293D02*
X0357478Y0036293D01*
X0349604Y0036293D02*
X0347679Y0036293D01*
X0348568Y0034694D02*
X0348626Y0034694D01*
X0348961Y0031497D02*
X0348232Y0031497D01*
X0346698Y0029899D02*
X0350736Y0029899D01*
X0344563Y0029899D02*
X0344563Y0029899D01*
X0344563Y0029322D02*
X0344563Y0033500D01*
X0344563Y0033500D01*
X0344563Y0037678D01*
X0344234Y0037678D01*
X0343585Y0037575D01*
X0342959Y0037372D01*
X0342373Y0037073D01*
X0341841Y0036687D01*
X0341376Y0036222D01*
X0340990Y0035690D01*
X0340691Y0035104D01*
X0340533Y0034616D01*
X0340061Y0035753D01*
X0338942Y0036872D01*
X0337480Y0037478D01*
X0335898Y0037478D01*
X0334436Y0036872D01*
X0333317Y0035753D01*
X0332711Y0034291D01*
X0332711Y0032709D01*
X0333317Y0031247D01*
X0334436Y0030128D01*
X0335898Y0029522D01*
X0337480Y0029522D01*
X0338942Y0030128D01*
X0340061Y0031247D01*
X0340533Y0032384D01*
X0340691Y0031896D01*
X0340990Y0031310D01*
X0341376Y0030778D01*
X0341841Y0030313D01*
X0342373Y0029927D01*
X0342959Y0029628D01*
X0343585Y0029425D01*
X0344234Y0029322D01*
X0344563Y0029322D01*
X0344563Y0031497D02*
X0344563Y0031497D01*
X0344563Y0033096D02*
X0344563Y0033096D01*
X0344563Y0034694D02*
X0344563Y0034694D01*
X0344563Y0036293D02*
X0344563Y0036293D01*
X0341447Y0036293D02*
X0339522Y0036293D01*
X0340500Y0034694D02*
X0340558Y0034694D01*
X0340894Y0031497D02*
X0340165Y0031497D01*
X0338390Y0029899D02*
X0342428Y0029899D01*
X0334988Y0029899D02*
X0315800Y0029899D01*
X0315800Y0031497D02*
X0333213Y0031497D01*
X0332711Y0033096D02*
X0315800Y0033096D01*
X0315800Y0034694D02*
X0332878Y0034694D01*
X0333856Y0036293D02*
X0315800Y0036293D01*
X0315800Y0028300D02*
X0368937Y0028300D01*
X0368906Y0026702D02*
X0315800Y0026702D01*
X0315800Y0025103D02*
X0368875Y0025103D01*
X0368843Y0023505D02*
X0315800Y0023505D01*
X0315800Y0021906D02*
X0368812Y0021906D01*
X0368781Y0020308D02*
X0315800Y0020308D01*
X0324856Y0018709D02*
X0368749Y0018709D01*
X0368718Y0017111D02*
X0326972Y0017111D01*
X0328330Y0015512D02*
X0368687Y0015512D01*
X0368655Y0013914D02*
X0329253Y0013914D01*
X0329738Y0012315D02*
X0368624Y0012315D01*
X0368592Y0010717D02*
X0330062Y0010717D01*
X0330062Y0009118D02*
X0368561Y0009118D01*
X0368530Y0007520D02*
X0329828Y0007520D01*
X0329400Y0005921D02*
X0365112Y0005921D01*
X0369345Y0049081D02*
X0350993Y0049081D01*
X0351228Y0050680D02*
X0369376Y0050680D01*
X0369227Y0052278D02*
X0350794Y0052278D01*
X0349346Y0053877D02*
X0368436Y0053877D01*
X0368200Y0055475D02*
X0350038Y0055475D01*
X0351042Y0057074D02*
X0368415Y0057074D01*
X0369177Y0058672D02*
X0351228Y0058672D01*
X0350745Y0060271D02*
X0369564Y0060271D01*
X0369595Y0061869D02*
X0349060Y0061869D01*
X0350438Y0063468D02*
X0368605Y0063468D01*
X0368200Y0065066D02*
X0351279Y0065066D01*
X0368200Y0065066D01*
X0368246Y0066665D02*
X0351404Y0066665D01*
X0368246Y0066665D01*
X0368908Y0068263D02*
X0350881Y0068263D01*
X0368908Y0068263D01*
X0347250Y0066187D02*
X0347250Y0066187D01*
X0343072Y0066187D01*
X0347250Y0066187D01*
X0345259Y0069862D02*
X0315800Y0069862D01*
X0315800Y0071460D02*
X0344225Y0071460D01*
X0343359Y0073059D02*
X0315800Y0073059D01*
X0315800Y0074657D02*
X0343272Y0074657D01*
X0343853Y0076256D02*
X0315800Y0076256D01*
X0315800Y0077854D02*
X0346013Y0077854D01*
X0343619Y0068263D02*
X0315800Y0068263D01*
X0343619Y0068263D01*
X0343096Y0066665D02*
X0315800Y0066665D01*
X0343096Y0066665D01*
X0345484Y0215572D02*
X0344835Y0215675D01*
X0344209Y0215878D01*
X0343623Y0216177D01*
X0343091Y0216563D01*
X0342626Y0217028D01*
X0342240Y0217560D01*
X0341941Y0218146D01*
X0341783Y0218634D01*
X0341311Y0217497D01*
X0340192Y0216378D01*
X0338730Y0215772D01*
X0337148Y0215772D01*
X0335686Y0216378D01*
X0334567Y0217497D01*
X0333961Y0218959D01*
X0333961Y0220541D01*
X0334567Y0222003D01*
X0335686Y0223122D01*
X0337148Y0223728D01*
X0338730Y0223728D01*
X0340192Y0223122D01*
X0341311Y0222003D01*
X0341783Y0220866D01*
X0341941Y0221354D01*
X0342240Y0221940D01*
X0342626Y0222472D01*
X0343091Y0222937D01*
X0343623Y0223323D01*
X0344209Y0223622D01*
X0344835Y0223825D01*
X0345484Y0223928D01*
X0345813Y0223928D01*
X0345813Y0219750D01*
X0345813Y0219750D01*
X0345813Y0215572D01*
X0345484Y0215572D01*
X0345813Y0216925D02*
X0345813Y0216925D01*
X0345813Y0218523D02*
X0345813Y0218523D01*
X0345813Y0220122D02*
X0345813Y0220122D01*
X0345813Y0221720D02*
X0345813Y0221720D01*
X0345813Y0223319D02*
X0345813Y0223319D01*
X0348009Y0223319D02*
X0351908Y0223319D01*
X0350197Y0221720D02*
X0349498Y0221720D01*
X0349807Y0218523D02*
X0349889Y0218523D01*
X0348896Y0216925D02*
X0350887Y0216925D01*
X0356487Y0216925D02*
X0358761Y0216925D01*
X0357763Y0218523D02*
X0357485Y0218523D01*
X0357177Y0221720D02*
X0358071Y0221720D01*
X0359782Y0223319D02*
X0355466Y0223319D01*
X0343617Y0223319D02*
X0339718Y0223319D01*
X0341429Y0221720D02*
X0342128Y0221720D01*
X0341819Y0218523D02*
X0341737Y0218523D01*
X0342730Y0216925D02*
X0340739Y0216925D01*
X0335139Y0216925D02*
X0315721Y0216925D01*
X0315721Y0218523D02*
X0334141Y0218523D01*
X0333961Y0220122D02*
X0315721Y0220122D01*
X0315721Y0221720D02*
X0334449Y0221720D01*
X0336160Y0223319D02*
X0315721Y0223319D01*
X0347271Y0232910D02*
X0368047Y0232910D01*
X0368079Y0234508D02*
X0349402Y0234508D01*
X0349978Y0236107D02*
X0368110Y0236107D01*
X0368141Y0237705D02*
X0349885Y0237705D01*
X0349011Y0239304D02*
X0368173Y0239304D01*
X0368204Y0240902D02*
X0347557Y0240902D01*
X0349452Y0242501D02*
X0368235Y0242501D01*
X0368267Y0244099D02*
X0349978Y0244099D01*
X0349836Y0245698D02*
X0368200Y0245698D01*
X0368329Y0247296D02*
X0348892Y0247296D01*
X0348233Y0248895D02*
X0368361Y0248895D01*
X0368392Y0250493D02*
X0349699Y0250493D01*
X0350175Y0252092D02*
X0368423Y0252092D01*
X0368455Y0253690D02*
X0349986Y0253690D01*
X0368513Y0253690D01*
X0368200Y0255289D02*
X0349057Y0255289D01*
X0368200Y0255289D01*
X0368338Y0256887D02*
X0348130Y0256887D01*
X0349550Y0258486D02*
X0369000Y0258486D01*
X0370718Y0260084D02*
X0349978Y0260084D01*
X0349737Y0261683D02*
X0369822Y0261683D01*
X0368682Y0263282D02*
X0348655Y0263282D01*
X0342943Y0255289D02*
X0315721Y0255289D01*
X0346000Y0252437D02*
X0346000Y0252437D01*
X0376282Y0260084D02*
X0440718Y0260084D01*
X0439822Y0261683D02*
X0377178Y0261683D01*
X0378318Y0263282D02*
X0438682Y0263282D01*
X0438200Y0264880D02*
X0378800Y0264880D01*
X0378800Y0266479D02*
X0438200Y0266479D01*
X0438831Y0268077D02*
X0378169Y0268077D01*
X0376820Y0269676D02*
X0440180Y0269676D01*
X0440231Y0271274D02*
X0376769Y0271274D01*
X0378148Y0272873D02*
X0438852Y0272873D01*
X0438200Y0274471D02*
X0378800Y0274471D01*
X0378800Y0276070D02*
X0438200Y0276070D01*
X0438661Y0277668D02*
X0378339Y0277668D01*
X0377229Y0279267D02*
X0439771Y0279267D01*
X0440840Y0280865D02*
X0376160Y0280865D01*
X0377959Y0282464D02*
X0439041Y0282464D01*
X0438359Y0284062D02*
X0378641Y0284062D01*
X0378800Y0285661D02*
X0438200Y0285661D01*
X0438492Y0287259D02*
X0378508Y0287259D01*
X0377638Y0288858D02*
X0439362Y0288858D01*
X0441616Y0290456D02*
X0375384Y0290456D01*
X0377550Y0292055D02*
X0439450Y0292055D01*
X0438528Y0293653D02*
X0378472Y0293653D01*
X0378800Y0295252D02*
X0438200Y0295252D01*
X0438323Y0296850D02*
X0378677Y0296850D01*
X0378015Y0298449D02*
X0438985Y0298449D01*
X0440629Y0300047D02*
X0376371Y0300047D01*
X0377141Y0301646D02*
X0439859Y0301646D01*
X0438698Y0303244D02*
X0378302Y0303244D01*
X0378800Y0304843D02*
X0438200Y0304843D01*
X0438200Y0306441D02*
X0378800Y0306441D01*
X0378185Y0308040D02*
X0438815Y0308040D01*
X0440143Y0309638D02*
X0376857Y0309638D01*
X0376732Y0311237D02*
X0440268Y0311237D01*
X0438867Y0312835D02*
X0378133Y0312835D01*
X0378795Y0314434D02*
X0438205Y0314434D01*
X0438200Y0316032D02*
X0378800Y0316032D01*
X0378354Y0317631D02*
X0438646Y0317631D01*
X0439734Y0319229D02*
X0377266Y0319229D01*
X0376070Y0320828D02*
X0440573Y0320828D01*
X0438935Y0322426D02*
X0377922Y0322426D01*
X0378626Y0324025D02*
X0438196Y0324025D01*
X0438276Y0327222D02*
X0378523Y0327222D01*
X0378800Y0325623D02*
X0443300Y0325623D01*
X0443700Y0325623D02*
X0461121Y0325623D01*
X0461121Y0324025D02*
X0448804Y0324025D01*
X0448065Y0322426D02*
X0461121Y0322426D01*
X0461121Y0320828D02*
X0446427Y0320828D01*
X0447266Y0319229D02*
X0461121Y0319229D01*
X0461121Y0317631D02*
X0448354Y0317631D01*
X0448800Y0316032D02*
X0461121Y0316032D01*
X0461121Y0314434D02*
X0448795Y0314434D01*
X0448133Y0312835D02*
X0461121Y0312835D01*
X0461121Y0311237D02*
X0446732Y0311237D01*
X0446857Y0309638D02*
X0461121Y0309638D01*
X0461121Y0308040D02*
X0448185Y0308040D01*
X0448800Y0306441D02*
X0461121Y0306441D01*
X0461121Y0304843D02*
X0448800Y0304843D01*
X0448302Y0303244D02*
X0461121Y0303244D01*
X0461121Y0301646D02*
X0447141Y0301646D01*
X0446371Y0300047D02*
X0461121Y0300047D01*
X0461121Y0298449D02*
X0448015Y0298449D01*
X0448677Y0296850D02*
X0461121Y0296850D01*
X0461121Y0295252D02*
X0448800Y0295252D01*
X0448472Y0293653D02*
X0461121Y0293653D01*
X0461121Y0292055D02*
X0447550Y0292055D01*
X0445384Y0290456D02*
X0461121Y0290456D01*
X0461121Y0288858D02*
X0447638Y0288858D01*
X0448508Y0287259D02*
X0461121Y0287259D01*
X0461121Y0285661D02*
X0448800Y0285661D01*
X0448641Y0284062D02*
X0461121Y0284062D01*
X0461121Y0282464D02*
X0447959Y0282464D01*
X0446160Y0280865D02*
X0461121Y0280865D01*
X0461121Y0279267D02*
X0447229Y0279267D01*
X0448339Y0277668D02*
X0461121Y0277668D01*
X0461121Y0276070D02*
X0448800Y0276070D01*
X0448800Y0274471D02*
X0461121Y0274471D01*
X0461121Y0272873D02*
X0448148Y0272873D01*
X0446769Y0271274D02*
X0461121Y0271274D01*
X0461121Y0269676D02*
X0446820Y0269676D01*
X0448169Y0268077D02*
X0461121Y0268077D01*
X0461121Y0266479D02*
X0448800Y0266479D01*
X0448800Y0264880D02*
X0461117Y0264880D01*
X0461101Y0263282D02*
X0448318Y0263282D01*
X0447178Y0261683D02*
X0461084Y0261683D01*
X0461068Y0260084D02*
X0446282Y0260084D01*
X0448000Y0258486D02*
X0461051Y0258486D01*
X0461035Y0256887D02*
X0448662Y0256887D01*
X0448800Y0255289D02*
X0461018Y0255289D01*
X0461002Y0253690D02*
X0448487Y0253690D01*
X0438513Y0253690D02*
X0378487Y0253690D01*
X0378800Y0255289D02*
X0438200Y0255289D01*
X0438338Y0256887D02*
X0378662Y0256887D01*
X0378000Y0258486D02*
X0439000Y0258486D01*
X0448724Y0327222D02*
X0461121Y0327222D01*
X0461121Y0328820D02*
X0447886Y0328820D01*
X0445961Y0330419D02*
X0461121Y0330419D01*
X0461121Y0332018D02*
X0447513Y0332018D01*
X0448456Y0333616D02*
X0461121Y0333616D01*
X0461121Y0335215D02*
X0448800Y0335215D01*
X0448693Y0336813D02*
X0461121Y0336813D01*
X0461121Y0338412D02*
X0448031Y0338412D01*
X0446461Y0340010D02*
X0461121Y0340010D01*
X0461121Y0341609D02*
X0447104Y0341609D01*
X0448287Y0343207D02*
X0461121Y0343207D01*
X0461121Y0344806D02*
X0448800Y0344806D01*
X0448800Y0346404D02*
X0461121Y0346404D01*
X0461121Y0348003D02*
X0448200Y0348003D01*
X0446894Y0349601D02*
X0461121Y0349601D01*
X0461121Y0351200D02*
X0446695Y0351200D01*
X0448118Y0352798D02*
X0461121Y0352798D01*
X0461121Y0354397D02*
X0448780Y0354397D01*
X0448800Y0355995D02*
X0461121Y0355995D01*
X0461121Y0357594D02*
X0448369Y0357594D01*
X0447303Y0359192D02*
X0461121Y0359192D01*
X0452144Y0360791D02*
X0444577Y0360791D01*
X0442423Y0360791D02*
X0374577Y0360791D01*
X0372423Y0360791D02*
X0326106Y0360791D01*
X0328222Y0362389D02*
X0450028Y0362389D01*
X0448670Y0363988D02*
X0329580Y0363988D01*
X0330503Y0365586D02*
X0447747Y0365586D01*
X0447262Y0367185D02*
X0330988Y0367185D01*
X0331312Y0368783D02*
X0446938Y0368783D01*
X0446938Y0370382D02*
X0331312Y0370382D01*
X0331078Y0371980D02*
X0447172Y0371980D01*
X0447600Y0373579D02*
X0330650Y0373579D01*
X0315721Y0335215D02*
X0348532Y0335215D01*
X0346621Y0333616D02*
X0315721Y0333616D01*
X0315721Y0332018D02*
X0345892Y0332018D01*
X0345700Y0330419D02*
X0315721Y0330419D01*
X0315721Y0328820D02*
X0345959Y0328820D01*
X0346783Y0327222D02*
X0315721Y0327222D01*
X0315721Y0325623D02*
X0348923Y0325623D01*
X0346763Y0324025D02*
X0315721Y0324025D01*
X0315721Y0322426D02*
X0345843Y0322426D01*
X0345500Y0320828D02*
X0315721Y0320828D01*
X0315721Y0319229D02*
X0345633Y0319229D01*
X0346289Y0317631D02*
X0315721Y0317631D01*
X0315721Y0316032D02*
X0347792Y0316032D01*
X0347439Y0314434D02*
X0315721Y0314434D01*
X0315721Y0312835D02*
X0346231Y0312835D01*
X0345700Y0311237D02*
X0315721Y0311237D01*
X0315721Y0309638D02*
X0345700Y0309638D01*
X0346282Y0308040D02*
X0315721Y0308040D01*
X0375474Y0330419D02*
X0441039Y0330419D01*
X0439487Y0332018D02*
X0377513Y0332018D01*
X0378456Y0333616D02*
X0438544Y0333616D01*
X0438200Y0335215D02*
X0378800Y0335215D01*
X0378693Y0336813D02*
X0438307Y0336813D01*
X0438969Y0338412D02*
X0378031Y0338412D01*
X0376461Y0340010D02*
X0440539Y0340010D01*
X0439896Y0341609D02*
X0377387Y0341609D01*
X0378504Y0343207D02*
X0438713Y0343207D01*
X0438200Y0344806D02*
X0378959Y0344806D01*
X0378925Y0346404D02*
X0438200Y0346404D01*
X0438800Y0348003D02*
X0378398Y0348003D01*
X0377177Y0349601D02*
X0440106Y0349601D01*
X0440305Y0351200D02*
X0376695Y0351200D01*
X0378118Y0352798D02*
X0438882Y0352798D01*
X0438220Y0354397D02*
X0378780Y0354397D01*
X0378800Y0355995D02*
X0438200Y0355995D01*
X0438631Y0357594D02*
X0378369Y0357594D01*
X0377303Y0359192D02*
X0439697Y0359192D01*
X0439114Y0328820D02*
X0377675Y0328820D01*
X0060453Y0081051D02*
X0037135Y0081051D01*
X0038376Y0079453D02*
X0059957Y0079453D01*
X0058738Y0077854D02*
X0038728Y0077854D01*
X0038411Y0076256D02*
X0058200Y0076256D01*
X0058200Y0074657D02*
X0037222Y0074657D01*
X0037537Y0073059D02*
X0058775Y0073059D01*
X0060045Y0071460D02*
X0038648Y0071460D01*
X0038928Y0069862D02*
X0060366Y0069862D01*
X0058908Y0068263D02*
X0049328Y0068263D01*
X0058246Y0066665D02*
X0037354Y0066665D01*
X0058246Y0066665D01*
X0058200Y0065066D02*
X0037373Y0065066D01*
X0058200Y0065066D01*
X0058605Y0063468D02*
X0038474Y0063468D01*
X0038728Y0061869D02*
X0059620Y0061869D01*
X0059589Y0060271D02*
X0038313Y0060271D01*
X0036958Y0058672D02*
X0059177Y0058672D01*
X0058415Y0057074D02*
X0037491Y0057074D01*
X0038523Y0055475D02*
X0058200Y0055475D01*
X0058436Y0053877D02*
X0038728Y0053877D01*
X0038264Y0052278D02*
X0059227Y0052278D01*
X0059401Y0050680D02*
X0036672Y0050680D01*
X0038586Y0068263D02*
X0058908Y0068263D01*
X0068092Y0068263D02*
X0128908Y0068263D01*
X0128246Y0066665D02*
X0068754Y0066665D01*
X0068800Y0065066D02*
X0128200Y0065066D01*
M02*
